<?xml version="1.0" standalone="no"?>
<!DOCTYPE svg PUBLIC "-//W3C//DTD SVG 1.1//EN" "http://www.w3.org/Graphics/SVG/1.1/DTD/svg11.dtd" >
<svg xmlns="http://www.w3.org/2000/svg" xmlns:xlink="http://www.w3.org/1999/xlink" version="1.1">
<metadata>
Created by FontForge 20201107 at Thu Jan 11 12:26:25 2018
 By Unknown
Copyright (c) 2018 Monotype Imaging Inc. All rights reserved
</metadata>
<defs>
<font id="Madera-Regular" horiz-adv-x="1070" >
  <font-face 
    font-family="Madera"
    font-weight="400"
    font-stretch="normal"
    units-per-em="1000"
    panose-1="2 11 5 4 2 2 4 2 2 4"
    ascent="767"
    descent="-233"
    x-height="517"
    cap-height="739"
    bbox="-676 -233 1426 1241"
    underline-thickness="50"
    underline-position="-100"
    stemh="72"
    stemv="79"
    unicode-range="U+000D-FEFF"
  />
<missing-glyph horiz-adv-x="832" 
d="M105 881h622v-1015h-622v1015zM350 192h74v20c0 137 223 97 223 290c0 116 -83 211 -235 211c-111 0 -192 -46 -246 -117l56 -52c41 56 101 94 187 94c100 0 154 -62 154 -140c0 -146 -213 -111 -213 -282v-24zM395 0c30 0 54 24 54 55c0 30 -24 54 -54 54
c-32 0 -56 -24 -56 -54c0 -31 24 -55 56 -55z" />
    <glyph glyph-name="IJ" unicode="IJ" horiz-adv-x="832" 
d="M105 0v739h84v-739h-84zM743 739v-500c0 -167 -101 -249 -220 -249c-106 0 -161 39 -211 99l60 58c40 -51 79 -78 150 -78c81 0 137 60 137 172v422h-278l21 76h341z" />
    <glyph glyph-name="ij" unicode="ij" horiz-adv-x="514" 
d="M128 640c-32 0 -55 24 -55 54c0 31 23 53 55 53c34 0 58 -22 58 -53c0 -30 -24 -54 -58 -54zM385 640c-32 0 -55 24 -55 54c0 31 23 53 55 53c34 0 58 -22 58 -53c0 -30 -24 -54 -58 -54zM89 0v517h79v-517h-79zM190 -204l19 67c17 -7 35 -11 55 -11c49 0 83 30 83 104
v561h78v-558c0 -118 -62 -177 -156 -177c-30 0 -56 5 -79 14z" />
    <glyph glyph-name="f_f" unicode="ff" horiz-adv-x="740" 
d="M110 568c0 113 63 183 169 183c30 0 53 -4 71 -10l-7 -68c-15 5 -34 9 -57 9c-66 0 -98 -43 -98 -111v-54h148v-71h-148v-446h-78v446h-97l19 71h78v51zM656 682c-66 0 -98 -43 -98 -111v-54h148v-71h-148v-446h-78v446h-97l19 71h78v51c0 113 63 183 169 183
c30 0 53 -4 71 -10l-7 -68c-15 5 -34 9 -57 9z" />
    <glyph glyph-name="f_f_i" unicode="ffi" horiz-adv-x="997" 
d="M110 568c0 113 63 183 169 183c30 0 53 -4 71 -10l-7 -68c-15 5 -34 9 -57 9c-66 0 -98 -43 -98 -111v-54h148v-71h-148v-446h-78v446h-97l19 71h78v51zM480 568c0 113 63 183 169 183c30 0 53 -4 71 -10l-7 -68c-15 5 -34 9 -57 9c-66 0 -98 -43 -98 -111v-54h148v-71
h-148v-446h-78v446h-97l19 71h78v51zM869 747c33 0 57 -22 57 -53c0 -30 -24 -54 -57 -54s-56 24 -56 54c0 31 23 53 56 53zM829 0v517h79v-517h-79z" />
    <glyph glyph-name="f_f_l" unicode="ffl" horiz-adv-x="997" 
d="M110 568c0 113 63 183 169 183c30 0 53 -4 71 -10l-7 -68c-15 5 -34 9 -57 9c-66 0 -98 -43 -98 -111v-54h148v-71h-148v-446h-78v446h-97l19 71h78v51zM480 568c0 113 63 183 169 183c30 0 53 -4 71 -10l-7 -68c-15 5 -34 9 -57 9c-66 0 -98 -43 -98 -111v-54h148v-71
h-148v-446h-78v446h-97l19 71h78v51zM829 739h79v-739h-79v739z" />
    <glyph glyph-name="f_i" unicode="fi" horiz-adv-x="627" 
d="M110 568c0 113 63 183 169 183c30 0 53 -4 71 -10l-7 -68c-15 5 -34 9 -57 9c-66 0 -98 -43 -98 -111v-54h148v-71h-148v-446h-78v446h-97l19 71h78v51zM498 747c34 0 58 -22 58 -53c0 -30 -24 -54 -58 -54c-32 0 -55 24 -55 54c0 31 23 53 55 53zM459 0v517h79v-517h-79
z" />
    <glyph glyph-name="f_l" unicode="fl" horiz-adv-x="627" 
d="M110 568c0 113 63 183 169 183c30 0 53 -4 71 -10l-7 -68c-15 5 -34 9 -57 9c-66 0 -98 -43 -98 -111v-54h148v-71h-148v-446h-78v446h-97l19 71h78v51zM459 739h79v-739h-79v739z" />
    <glyph glyph-name=".notdef" horiz-adv-x="832" 
d="M105 881h622v-1015h-622v1015zM350 192h74v20c0 137 223 97 223 290c0 116 -83 211 -235 211c-111 0 -192 -46 -246 -117l56 -52c41 56 101 94 187 94c100 0 154 -62 154 -140c0 -146 -213 -111 -213 -282v-24zM395 0c30 0 54 24 54 55c0 30 -24 54 -54 54
c-32 0 -56 -24 -56 -54c0 -31 24 -55 56 -55z" />
    <glyph glyph-name="NULL" horiz-adv-x="0" 
 />
    <glyph glyph-name="CR" unicode="&#xd;" horiz-adv-x="220" 
 />
    <glyph glyph-name="space" unicode=" " horiz-adv-x="220" 
 />
    <glyph glyph-name="A" unicode="A" horiz-adv-x="649" 
d="M550 0l-78 199h-296l-79 -199h-89l309 751h16l309 -751h-92zM445 274l-122 311l-121 -311h243z" />
    <glyph glyph-name="Aacute" unicode="&#xc1;" horiz-adv-x="649" 
d="M442 944l-83 -136h-67l73 173zM550 0l-78 199h-296l-79 -199h-89l309 751h16l309 -751h-92zM445 274l-122 311l-121 -311h243z" />
    <glyph glyph-name="Abreve" unicode="&#x102;" horiz-adv-x="649" 
d="M325 813c-84 0 -131 52 -137 148h64c5 -56 29 -85 73 -85c45 0 67 29 73 85h64c-6 -96 -54 -148 -137 -148zM550 0l-78 199h-296l-79 -199h-89l309 751h16l309 -751h-92zM445 274l-122 311l-121 -311h243z" />
    <glyph glyph-name="Acircumflex" unicode="&#xc2;" horiz-adv-x="649" 
d="M324 909l-71 -101h-68l92 153h93l94 -153h-68zM550 0l-78 199h-296l-79 -199h-89l309 751h16l309 -751h-92zM445 274l-122 311l-121 -311h243z" />
    <glyph glyph-name="Adieresis" unicode="&#xc4;" horiz-adv-x="649" 
d="M229 822c-30 0 -52 22 -52 52c0 29 22 53 52 53c31 0 52 -24 52 -53c0 -30 -21 -52 -52 -52zM420 822c-30 0 -52 22 -52 52c0 29 22 53 52 53c31 0 52 -24 52 -53c0 -30 -21 -52 -52 -52zM550 0l-78 199h-296l-79 -199h-89l309 751h16l309 -751h-92zM445 274l-122 311
l-121 -311h243z" />
    <glyph glyph-name="Agrave" unicode="&#xc0;" horiz-adv-x="649" 
d="M357 808h-67l-83 136l77 37zM550 0l-78 199h-296l-79 -199h-89l309 751h16l309 -751h-92zM445 274l-122 311l-121 -311h243z" />
    <glyph glyph-name="Amacron" unicode="&#x100;" horiz-adv-x="649" 
d="M456 908v-67h-261v67h261zM550 0l-78 199h-296l-79 -199h-89l309 751h16l309 -751h-92zM445 274l-122 311l-121 -311h243z" />
    <glyph glyph-name="Aogonek" unicode="&#x104;" horiz-adv-x="649" 
d="M607 -121c32 0 55 7 79 17v-65c-26 -9 -54 -16 -87 -16c-75 0 -113 30 -113 83c0 37 18 68 63 104l-77 197h-296l-79 -199h-89l309 751h16l309 -751h-26c-53 -34 -65 -58 -65 -82c0 -25 17 -39 56 -39zM445 274l-122 311l-121 -311h243z" />
    <glyph glyph-name="Aring" unicode="&#xc5;" horiz-adv-x="649" 
d="M325 790c-73 0 -126 51 -126 119s54 120 126 120c71 0 125 -52 125 -120c0 -69 -55 -119 -125 -119zM325 977c-40 0 -68 -28 -68 -68c0 -41 28 -68 68 -68c39 0 67 27 67 68c0 40 -28 68 -67 68zM550 0l-78 199h-296l-79 -199h-89l309 751h16l309 -751h-92zM445 274
l-122 311l-121 -311h243z" />
    <glyph glyph-name="Aringacute" unicode="&#x1fa;" horiz-adv-x="649" 
d="M442 1204l-83 -136h-67l73 173zM325 790c-73 0 -126 51 -126 119s54 120 126 120c71 0 125 -52 125 -120c0 -69 -55 -119 -125 -119zM325 977c-40 0 -68 -28 -68 -68c0 -41 28 -68 68 -68c39 0 67 27 67 68c0 40 -28 68 -67 68zM550 0l-78 199h-296l-79 -199h-89l309 751
h16l309 -751h-92zM445 274l-122 311l-121 -311h243z" />
    <glyph glyph-name="Atilde" unicode="&#xc3;" horiz-adv-x="649" 
d="M266 873c-20 0 -30 -11 -41 -45l-54 14c16 67 47 96 87 96c59 0 83 -47 121 -47c22 0 31 11 43 47l53 -15c-17 -67 -47 -97 -87 -97c-60 0 -83 47 -122 47zM550 0l-78 199h-296l-79 -199h-89l309 751h16l309 -751h-92zM445 274l-122 311l-121 -311h243z" />
    <glyph glyph-name="AE" unicode="&#xc6;" horiz-adv-x="968" 
d="M567 78h327v-78h-410v216h-258l-123 -216h-95l428 739h447v-77h-316v-244h302v-78h-302v-262zM269 292h215v372h-4z" />
    <glyph glyph-name="AEacute" unicode="&#x1fc;" horiz-adv-x="968" 
d="M738 944l-83 -136h-67l73 173zM567 78h327v-78h-410v216h-258l-123 -216h-95l428 739h447v-77h-316v-244h302v-78h-302v-262zM269 292h215v372h-4z" />
    <glyph glyph-name="B" unicode="B" horiz-adv-x="671" 
d="M470 388c95 -24 143 -92 143 -183c0 -133 -95 -205 -250 -205h-258v739h228c157 0 249 -68 249 -189c0 -74 -36 -135 -112 -162zM331 662h-143v-245h143c104 0 166 39 166 126c0 76 -63 119 -166 119zM360 77c106 0 168 47 168 131c0 89 -62 135 -169 135h-171v-266h172z
" />
    <glyph glyph-name="C" unicode="C" horiz-adv-x="739" 
d="M412 -11c-198 0 -354 157 -354 380c0 227 157 380 362 380c120 0 212 -46 275 -124l-60 -56c-49 65 -124 100 -213 100c-161 0 -278 -121 -278 -300c0 -177 118 -300 272 -300c97 0 171 43 223 115l60 -52c-63 -93 -164 -143 -287 -143z" />
    <glyph glyph-name="Cacute" unicode="&#x106;" horiz-adv-x="739" 
d="M388 808l73 173l77 -37l-83 -136h-67zM412 -11c-198 0 -354 157 -354 380c0 227 157 380 362 380c120 0 212 -46 275 -124l-60 -56c-49 65 -124 100 -213 100c-161 0 -278 -121 -278 -300c0 -177 118 -300 272 -300c97 0 171 43 223 115l60 -52
c-63 -93 -164 -143 -287 -143z" />
    <glyph glyph-name="Ccaron" unicode="&#x10c;" horiz-adv-x="739" 
d="M473 809h-93l-94 153h68l72 -100l71 100h68zM639 184l60 -52c-63 -93 -164 -143 -287 -143c-198 0 -354 157 -354 380c0 227 157 380 362 380c120 0 212 -46 275 -124l-60 -56c-49 65 -124 100 -213 100c-161 0 -278 -121 -278 -300c0 -177 118 -300 272 -300
c97 0 171 43 223 115z" />
    <glyph glyph-name="Ccedilla" unicode="&#xc7;" horiz-adv-x="739" 
d="M412 -11c-198 0 -354 157 -354 380c0 227 157 380 362 380c120 0 212 -46 275 -124l-60 -56c-49 65 -124 100 -213 100c-161 0 -278 -121 -278 -300c0 -177 118 -300 272 -300c97 0 171 43 223 115l60 -52c-63 -93 -164 -143 -287 -143zM330 -206l43 143h87l-65 -143h-65
z" />
    <glyph glyph-name="Ccircumflex" unicode="&#x108;" horiz-adv-x="739" 
d="M420 909l-71 -101h-68l92 153h93l94 -153h-68zM639 184l60 -52c-63 -93 -164 -143 -287 -143c-198 0 -354 157 -354 380c0 227 157 380 362 380c120 0 212 -46 275 -124l-60 -56c-49 65 -124 100 -213 100c-161 0 -278 -121 -278 -300c0 -177 118 -300 272 -300
c97 0 171 43 223 115z" />
    <glyph glyph-name="Cdotaccent" unicode="&#x10a;" horiz-adv-x="739" 
d="M419 818c-32 0 -57 25 -57 56c0 32 25 55 57 55c34 0 60 -24 60 -55s-26 -56 -60 -56zM412 -11c-198 0 -354 157 -354 380c0 227 157 380 362 380c120 0 212 -46 275 -124l-60 -56c-49 65 -124 100 -213 100c-161 0 -278 -121 -278 -300c0 -177 118 -300 272 -300
c97 0 171 43 223 115l60 -52c-63 -93 -164 -143 -287 -143z" />
    <glyph glyph-name="D" unicode="D" horiz-adv-x="756" 
d="M295 739c242 0 403 -132 403 -363c0 -236 -165 -376 -403 -376h-190v739h190zM297 78c186 0 314 106 314 298c0 190 -125 286 -314 286h-109v-584h109z" />
    <glyph glyph-name="Eth" unicode="&#xd0;" horiz-adv-x="756" 
d="M295 739c242 0 403 -132 403 -363c0 -236 -165 -376 -403 -376h-190v336h-81v68h81v335h190zM297 78c186 0 314 106 314 298c0 190 -125 286 -314 286h-109v-258h194v-68h-194v-258h109z" />
    <glyph glyph-name="Dcaron" unicode="&#x10e;" horiz-adv-x="756" 
d="M370 809h-93l-94 153h68l72 -100l71 100h68zM295 739c242 0 403 -132 403 -363c0 -236 -165 -376 -403 -376h-190v739h190zM297 78c186 0 314 106 314 298c0 190 -125 286 -314 286h-109v-584h109z" />
    <glyph glyph-name="Dcroat" unicode="&#x110;" horiz-adv-x="756" 
d="M295 739c242 0 403 -132 403 -363c0 -236 -165 -376 -403 -376h-190v336h-81v68h81v335h190zM297 78c186 0 314 106 314 298c0 190 -125 286 -314 286h-109v-258h194v-68h-194v-258h109z" />
    <glyph glyph-name="E" unicode="E" horiz-adv-x="623" 
d="M188 78h362v-78h-445v739h434v-77h-351v-244h336v-78h-336v-262z" />
    <glyph glyph-name="Eacute" unicode="&#xc9;" horiz-adv-x="623" 
d="M443 944l-83 -136h-67l73 173zM188 78h362v-78h-445v739h434v-77h-351v-244h336v-78h-336v-262z" />
    <glyph glyph-name="Ebreve" unicode="&#x114;" horiz-adv-x="623" 
d="M326 813c-84 0 -131 52 -137 148h64c5 -56 29 -85 73 -85c45 0 67 29 73 85h64c-6 -96 -54 -148 -137 -148zM188 78h362v-78h-445v739h434v-77h-351v-244h336v-78h-336v-262z" />
    <glyph glyph-name="Ecaron" unicode="&#x11a;" horiz-adv-x="623" 
d="M378 809h-93l-94 153h68l72 -100l71 100h68zM188 78h362v-78h-445v739h434v-77h-351v-244h336v-78h-336v-262z" />
    <glyph glyph-name="Ecircumflex" unicode="&#xca;" horiz-adv-x="623" 
d="M325 909l-71 -101h-68l92 153h93l94 -153h-68zM188 78h362v-78h-445v739h434v-77h-351v-244h336v-78h-336v-262z" />
    <glyph glyph-name="Edieresis" unicode="&#xcb;" horiz-adv-x="623" 
d="M230 822c-30 0 -52 22 -52 52c0 29 22 53 52 53c31 0 52 -24 52 -53c0 -30 -21 -52 -52 -52zM421 822c-30 0 -52 22 -52 52c0 29 22 53 52 53c31 0 52 -24 52 -53c0 -30 -21 -52 -52 -52zM188 78h362v-78h-445v739h434v-77h-351v-244h336v-78h-336v-262z" />
    <glyph glyph-name="Edotaccent" unicode="&#x116;" horiz-adv-x="623" 
d="M324 818c-32 0 -57 25 -57 56c0 32 25 55 57 55c34 0 60 -24 60 -55s-26 -56 -60 -56zM188 78h362v-78h-445v739h434v-77h-351v-244h336v-78h-336v-262z" />
    <glyph glyph-name="Egrave" unicode="&#xc8;" horiz-adv-x="623" 
d="M358 808h-67l-83 136l77 37zM188 78h362v-78h-445v739h434v-77h-351v-244h336v-78h-336v-262z" />
    <glyph glyph-name="Emacron" unicode="&#x112;" horiz-adv-x="623" 
d="M457 908v-67h-261v67h261zM188 78h362v-78h-445v739h434v-77h-351v-244h336v-78h-336v-262z" />
    <glyph glyph-name="Eogonek" unicode="&#x118;" horiz-adv-x="623" 
d="M455 0c-53 -34 -65 -58 -65 -82c0 -25 17 -39 56 -39c32 0 55 7 79 17v-65c-26 -9 -54 -16 -87 -16c-75 0 -113 30 -113 83c0 37 17 67 61 102h-281v739h434v-77h-351v-244h336v-78h-336v-262h362v-78h-95z" />
    <glyph glyph-name="F" unicode="F" horiz-adv-x="581" 
d="M518 662h-329v-250h315v-77h-315v-335h-84v739h413v-77z" />
    <glyph glyph-name="G" unicode="G" horiz-adv-x="800" 
d="M752 387c1 -11 1 -22 1 -32c0 -220 -132 -367 -335 -367c-195 0 -360 151 -360 381s159 383 363 383c122 0 218 -47 281 -130l-58 -56c-48 67 -127 106 -220 106c-161 0 -280 -122 -280 -303c0 -180 118 -301 274 -301c149 0 238 96 249 242h-267v77h352z" />
    <glyph glyph-name="Gbreve" unicode="&#x11e;" horiz-adv-x="800" 
d="M423 813c-84 0 -131 52 -137 148h64c5 -56 29 -85 73 -85c45 0 67 29 73 85h64c-6 -96 -54 -148 -137 -148zM752 387c1 -11 1 -22 1 -32c0 -220 -132 -367 -335 -367c-195 0 -360 151 -360 381s159 383 363 383c122 0 218 -47 281 -130l-58 -56c-48 67 -127 106 -220 106
c-161 0 -280 -122 -280 -303c0 -180 118 -301 274 -301c149 0 238 96 249 242h-267v77h352z" />
    <glyph glyph-name="Gcircumflex" unicode="&#x11c;" horiz-adv-x="800" 
d="M422 909l-71 -101h-68l92 153h93l94 -153h-68zM752 387c1 -11 1 -22 1 -32c0 -220 -132 -367 -335 -367c-195 0 -360 151 -360 381s159 383 363 383c122 0 218 -47 281 -130l-58 -56c-48 67 -127 106 -220 106c-161 0 -280 -122 -280 -303c0 -180 118 -301 274 -301
c149 0 238 96 249 242h-267v77h352z" />
    <glyph glyph-name="uni0122" unicode="&#x122;" horiz-adv-x="800" 
d="M752 387c1 -11 1 -22 1 -32c0 -220 -132 -367 -335 -367c-195 0 -360 151 -360 381s159 383 363 383c122 0 218 -47 281 -130l-58 -56c-48 67 -127 106 -220 106c-161 0 -280 -122 -280 -303c0 -180 118 -301 274 -301c149 0 238 96 249 242h-267v77h352zM419 -57
c44 0 67 -38 67 -74c0 -52 -31 -104 -116 -101v31c39 0 59 21 61 45c1 6 1 12 0 17c-6 -9 -18 -14 -34 -11c-20 2 -34 18 -34 40c0 28 18 53 56 53z" />
    <glyph glyph-name="Gdotaccent" unicode="&#x120;" horiz-adv-x="800" 
d="M421 818c-32 0 -57 25 -57 56c0 32 25 55 57 55c34 0 60 -24 60 -55s-26 -56 -60 -56zM752 387c1 -11 1 -22 1 -32c0 -220 -132 -367 -335 -367c-195 0 -360 151 -360 381s159 383 363 383c122 0 218 -47 281 -130l-58 -56c-48 67 -127 106 -220 106
c-161 0 -280 -122 -280 -303c0 -180 118 -301 274 -301c149 0 238 96 249 242h-267v77h352z" />
    <glyph glyph-name="H" unicode="H" horiz-adv-x="752" 
d="M564 739h83v-739h-83v340h-375v-340h-84v739h84v-321h375v321z" />
    <glyph glyph-name="Hbar" unicode="&#x126;" horiz-adv-x="752" 
d="M564 739h83v-739h-83v340h-375v-340h-84v739h84v-120h375v120zM189 418h375v132h-375v-132z" />
    <glyph glyph-name="Hcircumflex" unicode="&#x124;" horiz-adv-x="752" 
d="M376 909l-71 -101h-68l92 153h93l94 -153h-68zM564 739h83v-739h-83v340h-375v-340h-84v739h84v-321h375v321z" />
    <glyph glyph-name="I" unicode="I" horiz-adv-x="294" 
d="M105 0v739h84v-739h-84z" />
    <glyph glyph-name="Iacute" unicode="&#xcd;" horiz-adv-x="294" 
d="M114 808l73 173l77 -37l-83 -136h-67zM105 0v739h84v-739h-84z" />
    <glyph glyph-name="Ibreve" unicode="&#x12c;" horiz-adv-x="294" 
d="M147 813c-84 0 -131 52 -137 148h64c5 -56 29 -85 73 -85c45 0 67 29 73 85h64c-6 -96 -54 -148 -137 -148zM105 0v739h84v-739h-84z" />
    <glyph glyph-name="Icircumflex" unicode="&#xce;" horiz-adv-x="294" 
d="M192 961l94 -153h-68l-72 101l-71 -101h-68l92 153h93zM105 0v739h84v-739h-84z" />
    <glyph glyph-name="Idieresis" unicode="&#xcf;" horiz-adv-x="294" 
d="M51 822c-30 0 -52 22 -52 52c0 29 22 53 52 53c31 0 52 -24 52 -53c0 -30 -21 -52 -52 -52zM242 822c-30 0 -52 22 -52 52c0 29 22 53 52 53c31 0 52 -24 52 -53c0 -30 -21 -52 -52 -52zM105 0v739h84v-739h-84z" />
    <glyph glyph-name="Idotaccent" unicode="&#x130;" horiz-adv-x="294" 
d="M145 818c-32 0 -57 25 -57 56c0 32 25 55 57 55c34 0 60 -24 60 -55s-26 -56 -60 -56zM105 0v739h84v-739h-84z" />
    <glyph glyph-name="Igrave" unicode="&#xcc;" horiz-adv-x="294" 
d="M112 808l-83 136l77 37l73 -173h-67zM105 0v739h84v-739h-84z" />
    <glyph glyph-name="Imacron" unicode="&#x12a;" horiz-adv-x="294" 
d="M16 841v67h261v-67h-261zM105 0v739h84v-739h-84z" />
    <glyph glyph-name="Iogonek" unicode="&#x12e;" horiz-adv-x="294" 
d="M163 -185c-75 0 -113 30 -113 83c0 38 18 69 65 105l-10 1v735h84v-738l-10 -1c-53 -36 -65 -58 -65 -82c0 -25 18 -39 57 -39c31 0 55 7 79 17v-65c-26 -9 -54 -16 -87 -16z" />
    <glyph glyph-name="Itilde" unicode="&#x128;" horiz-adv-x="294" 
d="M-7 842c16 67 47 96 87 96c59 0 83 -47 121 -47c22 0 31 11 43 47l53 -15c-17 -67 -47 -97 -87 -97c-60 0 -83 47 -122 47c-20 0 -30 -11 -41 -45zM105 0v739h84v-739h-84z" />
    <glyph glyph-name="J" unicode="J" horiz-adv-x="538" 
d="M449 739v-500c0 -167 -101 -249 -220 -249c-106 0 -161 39 -211 99l60 58c40 -51 79 -78 150 -78c81 0 137 60 137 172v422h-278l21 76h341z" />
    <glyph glyph-name="Jcircumflex" unicode="&#x134;" horiz-adv-x="538" 
d="M263 909l-71 -101h-68l92 153h93l94 -153h-68zM449 739v-500c0 -167 -101 -249 -220 -249c-106 0 -161 39 -211 99l60 58c40 -51 79 -78 150 -78c81 0 137 60 137 172v422h-278l21 76h341z" />
    <glyph glyph-name="K" unicode="K" horiz-adv-x="600" 
d="M592 0h-107l-296 373v-373h-84v739h84v-344l291 344h103l-305 -353z" />
    <glyph glyph-name="uni0136" unicode="&#x136;" horiz-adv-x="600" 
d="M278 386l314 -386h-107l-296 373v-373h-84v739h84v-344l291 344h103zM309 -57c44 0 67 -38 67 -74c0 -52 -31 -104 -116 -101v31c39 0 59 21 61 45c1 6 1 12 0 17c-6 -9 -18 -14 -34 -11c-20 2 -34 18 -34 40c0 28 18 53 56 53z" />
    <glyph glyph-name="L" unicode="L" horiz-adv-x="537" 
d="M189 78h306v-78h-390v739h84v-661z" />
    <glyph glyph-name="Lacute" unicode="&#x139;" horiz-adv-x="537" 
d="M264 944l-83 -136h-67l73 173zM189 78h306v-78h-390v739h84v-661z" />
    <glyph glyph-name="Lcaron" unicode="&#x13d;" horiz-adv-x="537" 
d="M189 78h306v-78h-390v739h84v-661zM371 739l-25 -157h-59l10 157h74z" />
    <glyph glyph-name="uni013B" unicode="&#x13b;" horiz-adv-x="537" 
d="M189 78h306v-78h-390v739h84v-661zM313 -57c44 0 67 -38 67 -74c0 -52 -31 -104 -116 -101v31c39 0 59 21 61 45c1 6 1 12 0 17c-6 -9 -18 -14 -34 -11c-20 2 -34 18 -34 40c0 28 18 53 56 53z" />
    <glyph glyph-name="Ldot" unicode="&#x13f;" horiz-adv-x="543" 
d="M189 78h306v-78h-390v739h84v-661zM419 343c-33 0 -58 25 -58 57s25 56 58 56c32 0 57 -24 57 -56s-25 -57 -57 -57z" />
    <glyph glyph-name="Lslash" unicode="&#x141;" horiz-adv-x="537" 
d="M189 78h306v-78h-390v739h84v-357l177 163v-96l-177 -162v-209z" />
    <glyph glyph-name="M" unicode="M" horiz-adv-x="887" 
d="M846 0h-84l-91 516l-218 -517h-15l-218 516l-94 -515h-84l137 751h20l246 -587l246 587h21z" />
    <glyph glyph-name="N" unicode="N" horiz-adv-x="788" 
d="M599 739h84v-750h-21l-473 564v-553h-84v750h21l473 -565v554z" />
    <glyph glyph-name="Nacute" unicode="&#x143;" horiz-adv-x="788" 
d="M502 944l-83 -136h-67l73 173zM599 739h84v-750h-21l-473 564v-553h-84v750h21l473 -565v554z" />
    <glyph glyph-name="Ncaron" unicode="&#x147;" horiz-adv-x="788" 
d="M437 809h-93l-94 153h68l72 -100l71 100h68zM599 739h84v-750h-21l-473 564v-553h-84v750h21l473 -565v554z" />
    <glyph glyph-name="uni0145" unicode="&#x145;" horiz-adv-x="788" 
d="M599 739h84v-750h-21l-473 564v-553h-84v750h21l473 -565v554zM394 -57c44 0 67 -38 67 -74c0 -52 -31 -104 -116 -101v31c39 0 59 21 61 45c1 6 1 12 0 17c-6 -9 -18 -14 -34 -11c-20 2 -34 18 -34 40c0 28 18 53 56 53z" />
    <glyph glyph-name="Eng" unicode="&#x14a;" horiz-adv-x="776" 
d="M587 739h84v-780c0 -118 -62 -177 -155 -177c-31 0 -57 5 -80 15l18 72c16 -7 34 -11 54 -11c48 0 79 28 79 100v111l-398 480v-549h-84v751h18l464 -560v548z" />
    <glyph glyph-name="Ntilde" unicode="&#xd1;" horiz-adv-x="788" 
d="M326 873c-20 0 -30 -11 -41 -45l-54 14c16 67 47 96 87 96c59 0 83 -47 121 -47c22 0 31 11 43 47l53 -15c-17 -67 -47 -97 -87 -97c-60 0 -83 47 -122 47zM599 739h84v-750h-21l-473 564v-553h-84v750h21l473 -565v554z" />
    <glyph glyph-name="O" unicode="O" horiz-adv-x="841" 
d="M420 -13c-195 0 -362 148 -362 382c0 235 167 383 362 383s363 -148 363 -383c0 -234 -168 -382 -363 -382zM420 68c150 0 277 113 277 301c0 189 -127 303 -277 303s-276 -114 -276 -303c0 -188 126 -301 276 -301z" />
    <glyph glyph-name="Oacute" unicode="&#xd3;" horiz-adv-x="841" 
d="M388 808l73 173l77 -37l-83 -136h-67zM420 -13c-195 0 -362 148 -362 382c0 235 167 383 362 383s363 -148 363 -383c0 -234 -168 -382 -363 -382zM420 68c150 0 277 113 277 301c0 189 -127 303 -277 303s-276 -114 -276 -303c0 -188 126 -301 276 -301z" />
    <glyph glyph-name="Obreve" unicode="&#x14e;" horiz-adv-x="841" 
d="M420 813c-84 0 -131 52 -137 148h64c5 -56 29 -85 73 -85c45 0 67 29 73 85h64c-6 -96 -54 -148 -137 -148zM420 -13c-195 0 -362 148 -362 382c0 235 167 383 362 383s363 -148 363 -383c0 -234 -168 -382 -363 -382zM420 68c150 0 277 113 277 301
c0 189 -127 303 -277 303s-276 -114 -276 -303c0 -188 126 -301 276 -301z" />
    <glyph glyph-name="Ocircumflex" unicode="&#xd4;" horiz-adv-x="841" 
d="M420 909l-71 -101h-68l92 153h93l94 -153h-68zM420 752c195 0 363 -148 363 -383c0 -234 -168 -382 -363 -382s-362 148 -362 382c0 235 167 383 362 383zM420 68c150 0 277 113 277 301c0 189 -127 303 -277 303s-276 -114 -276 -303c0 -188 126 -301 276 -301z" />
    <glyph glyph-name="Odieresis" unicode="&#xd6;" horiz-adv-x="841" 
d="M324 822c-30 0 -52 22 -52 52c0 29 22 53 52 53c31 0 52 -24 52 -53c0 -30 -21 -52 -52 -52zM515 822c-30 0 -52 22 -52 52c0 29 22 53 52 53c31 0 52 -24 52 -53c0 -30 -21 -52 -52 -52zM420 -13c-195 0 -362 148 -362 382c0 235 167 383 362 383s363 -148 363 -383
c0 -234 -168 -382 -363 -382zM420 68c150 0 277 113 277 301c0 189 -127 303 -277 303s-276 -114 -276 -303c0 -188 126 -301 276 -301z" />
    <glyph glyph-name="Ograve" unicode="&#xd2;" horiz-adv-x="841" 
d="M386 808l-83 136l77 37l73 -173h-67zM420 -13c-195 0 -362 148 -362 382c0 235 167 383 362 383s363 -148 363 -383c0 -234 -168 -382 -363 -382zM420 68c150 0 277 113 277 301c0 189 -127 303 -277 303s-276 -114 -276 -303c0 -188 126 -301 276 -301z" />
    <glyph glyph-name="Ohungarumlaut" unicode="&#x150;" horiz-adv-x="841" 
d="M314 808l72 174l66 -31l-70 -143h-68zM459 808l78 168l66 -31l-76 -137h-68zM420 -13c-195 0 -362 148 -362 382c0 235 167 383 362 383s363 -148 363 -383c0 -234 -168 -382 -363 -382zM420 68c150 0 277 113 277 301c0 189 -127 303 -277 303s-276 -114 -276 -303
c0 -188 126 -301 276 -301z" />
    <glyph glyph-name="Omacron" unicode="&#x14c;" horiz-adv-x="841" 
d="M290 841v67h261v-67h-261zM420 -13c-195 0 -362 148 -362 382c0 235 167 383 362 383s363 -148 363 -383c0 -234 -168 -382 -363 -382zM420 68c150 0 277 113 277 301c0 189 -127 303 -277 303s-276 -114 -276 -303c0 -188 126 -301 276 -301z" />
    <glyph glyph-name="Oslash" unicode="&#xd8;" horiz-adv-x="841" 
d="M690 633c57 -66 93 -156 93 -264c0 -234 -168 -382 -363 -382c-82 0 -159 26 -221 74l-41 -48l-51 43l43 51c-57 65 -92 154 -92 262c0 235 167 383 362 383c82 0 159 -26 220 -73l42 48l51 -44zM144 369c0 -81 23 -148 62 -198l381 445c-47 36 -105 56 -167 56
c-150 0 -276 -114 -276 -303zM420 68c150 0 277 113 277 301c0 81 -24 149 -62 199l-382 -444c47 -37 105 -56 167 -56z" />
    <glyph glyph-name="Oslashacute" unicode="&#x1fe;" horiz-adv-x="841" 
d="M538 944l-83 -136h-67l73 173zM690 633c57 -66 93 -156 93 -264c0 -234 -168 -382 -363 -382c-82 0 -159 26 -221 74l-41 -48l-51 43l43 51c-57 65 -92 154 -92 262c0 235 167 383 362 383c82 0 159 -26 220 -73l42 48l51 -44zM144 369c0 -81 23 -148 62 -198l381 445
c-47 36 -105 56 -167 56c-150 0 -276 -114 -276 -303zM420 68c150 0 277 113 277 301c0 81 -24 149 -62 199l-382 -444c47 -37 105 -56 167 -56z" />
    <glyph glyph-name="Otilde" unicode="&#xd5;" horiz-adv-x="841" 
d="M266 842c16 67 47 96 87 96c59 0 83 -47 121 -47c22 0 31 11 43 47l53 -15c-17 -67 -47 -97 -87 -97c-60 0 -83 47 -122 47c-20 0 -30 -11 -41 -45zM420 -13c-195 0 -362 148 -362 382c0 235 167 383 362 383s363 -148 363 -383c0 -234 -168 -382 -363 -382zM420 68
c150 0 277 113 277 301c0 189 -127 303 -277 303s-276 -114 -276 -303c0 -188 126 -301 276 -301z" />
    <glyph glyph-name="OE" unicode="&#x152;" horiz-adv-x="991" 
d="M589 78h328v-78h-479c-218 0 -380 141 -380 369c0 230 162 370 380 370h468v-77h-317v-244h302v-78h-302v-262zM438 75h68v589h-68c-179 0 -294 -112 -294 -295c0 -181 115 -294 294 -294z" />
    <glyph glyph-name="P" unicode="P" horiz-adv-x="654" 
d="M335 739c166 0 267 -83 267 -223c0 -150 -102 -226 -280 -226h-133v-290h-84v739h230zM322 367c129 0 194 48 194 149c0 96 -64 146 -183 146h-144v-295h133z" />
    <glyph glyph-name="Thorn" unicode="&#xde;" horiz-adv-x="654" 
d="M335 602c166 0 267 -83 267 -224c0 -150 -102 -226 -280 -226h-133v-152h-84v739h84v-137h146zM322 229c129 0 194 47 194 149c0 96 -64 146 -183 146h-144v-295h133z" />
    <glyph glyph-name="Q" unicode="Q" horiz-adv-x="841" 
d="M783 369c0 -110 -37 -201 -97 -267l88 -102l-60 -53l-88 103c-59 -41 -131 -63 -206 -63c-195 0 -362 148 -362 382c0 235 167 383 362 383s363 -148 363 -383zM420 68c56 0 108 16 152 45l-116 135l59 52l116 -134c41 51 66 119 66 203c0 189 -127 303 -277 303
s-276 -114 -276 -303c0 -188 126 -301 276 -301z" />
    <glyph glyph-name="R" unicode="R" horiz-adv-x="648" 
d="M596 0h-105l-302 369v-369h-84v739h217c161 0 257 -74 257 -208c0 -129 -88 -199 -256 -205zM189 395h99c141 0 205 43 205 135c0 87 -59 132 -175 132h-129v-267z" />
    <glyph glyph-name="Racute" unicode="&#x154;" horiz-adv-x="648" 
d="M432 944l-83 -136h-67l73 173zM596 0h-105l-302 369v-369h-84v739h217c161 0 257 -74 257 -208c0 -129 -88 -199 -256 -205zM189 395h99c141 0 205 43 205 135c0 87 -59 132 -175 132h-129v-267z" />
    <glyph glyph-name="Rcaron" unicode="&#x158;" horiz-adv-x="648" 
d="M367 809h-93l-94 153h68l72 -100l71 100h68zM596 0h-105l-302 369v-369h-84v739h217c161 0 257 -74 257 -208c0 -129 -88 -199 -256 -205zM189 395h99c141 0 205 43 205 135c0 87 -59 132 -175 132h-129v-267z" />
    <glyph glyph-name="uni0156" unicode="&#x156;" horiz-adv-x="648" 
d="M323 326l273 -326h-105l-302 369v-369h-84v739h217c161 0 257 -74 257 -208c0 -129 -88 -199 -256 -205zM189 395h99c141 0 205 43 205 135c0 87 -59 132 -175 132h-129v-267zM358 -57c44 0 67 -38 67 -74c0 -52 -31 -104 -116 -101v31c39 0 59 21 61 45c1 6 1 12 0 17
c-6 -9 -18 -14 -34 -11c-20 2 -34 18 -34 40c0 28 18 53 56 53z" />
    <glyph glyph-name="S" unicode="S" horiz-adv-x="609" 
d="M302 -11c-119 0 -205 50 -263 107l52 64c60 -59 133 -93 213 -93c104 0 167 53 167 133c0 197 -412 66 -412 341c0 122 105 209 255 209c102 0 182 -39 233 -91l-49 -62c-44 48 -106 76 -184 76c-102 0 -169 -54 -169 -130c0 -190 412 -67 412 -337
c0 -132 -102 -217 -255 -217z" />
    <glyph glyph-name="Sacute" unicode="&#x15a;" horiz-adv-x="609" 
d="M272 808l73 173l77 -37l-83 -136h-67zM302 -11c-119 0 -205 50 -263 107l52 64c60 -59 133 -93 213 -93c104 0 167 53 167 133c0 197 -412 66 -412 341c0 122 105 209 255 209c102 0 182 -39 233 -91l-49 -62c-44 48 -106 76 -184 76c-102 0 -169 -54 -169 -130
c0 -190 412 -67 412 -337c0 -132 -102 -217 -255 -217z" />
    <glyph glyph-name="Scaron" unicode="&#x160;" horiz-adv-x="609" 
d="M357 809h-93l-94 153h68l72 -100l71 100h68zM145 543c0 -190 412 -67 412 -337c0 -132 -102 -217 -255 -217c-119 0 -205 50 -263 107l52 64c60 -59 133 -93 213 -93c104 0 167 53 167 133c0 197 -412 66 -412 341c0 122 105 209 255 209c102 0 182 -39 233 -91l-49 -62
c-44 48 -106 76 -184 76c-102 0 -169 -54 -169 -130z" />
    <glyph glyph-name="Scedilla" unicode="&#x15e;" horiz-adv-x="609" 
d="M302 -11c-119 0 -205 50 -263 107l52 64c60 -59 133 -93 213 -93c104 0 167 53 167 133c0 197 -412 66 -412 341c0 122 105 209 255 209c102 0 182 -39 233 -91l-49 -62c-44 48 -106 76 -184 76c-102 0 -169 -54 -169 -130c0 -190 412 -67 412 -337
c0 -132 -102 -217 -255 -217zM231 -206l43 143h87l-65 -143h-65z" />
    <glyph glyph-name="Scircumflex" unicode="&#x15c;" horiz-adv-x="609" 
d="M304 909l-71 -101h-68l92 153h93l94 -153h-68zM145 543c0 -190 412 -67 412 -337c0 -132 -102 -217 -255 -217c-119 0 -205 50 -263 107l52 64c60 -59 133 -93 213 -93c104 0 167 53 167 133c0 197 -412 66 -412 341c0 122 105 209 255 209c102 0 182 -39 233 -91
l-49 -62c-44 48 -106 76 -184 76c-102 0 -169 -54 -169 -130z" />
    <glyph glyph-name="uni0218" unicode="&#x218;" horiz-adv-x="609" 
d="M302 -11c-119 0 -205 50 -263 107l52 64c60 -59 133 -93 213 -93c104 0 167 53 167 133c0 197 -412 66 -412 341c0 122 105 209 255 209c102 0 182 -39 233 -91l-49 -62c-44 48 -106 76 -184 76c-102 0 -169 -54 -169 -130c0 -190 412 -67 412 -337
c0 -132 -102 -217 -255 -217zM265 -232v31c39 0 59 21 61 45c1 6 1 12 0 17c-6 -9 -18 -14 -34 -11c-20 2 -34 18 -34 40c0 28 18 53 56 53c44 0 67 -38 67 -74c0 -52 -31 -104 -116 -101z" />
    <glyph glyph-name="uni1E9E" unicode="&#x1e9e;" horiz-adv-x="725" 
d="M485 409c130 -58 188 -120 188 -228c0 -116 -90 -191 -221 -191c-86 0 -141 22 -187 59l39 68c41 -33 84 -49 144 -49c79 0 138 38 138 116c0 77 -45 134 -206 190l-3 14l165 195c-39 56 -103 91 -178 91c-117 0 -192 -69 -192 -197v-479h-83v479c0 180 117 275 271 275
c137 0 226 -80 274 -173z" />
    <glyph glyph-name="uni018F" unicode="&#x18f;" horiz-adv-x="802" 
d="M384 752c205 0 360 -153 360 -383s-162 -381 -356 -381c-203 0 -342 151 -342 375c0 12 1 24 2 38h609c-13 163 -124 271 -274 271c-93 0 -175 -37 -230 -101l-57 57c69 78 168 124 288 124zM388 68c142 0 250 101 268 256h-522c9 -154 103 -256 254 -256z" />
    <glyph glyph-name="T" unicode="T" horiz-adv-x="644" 
d="M281 0v662h-239v77h561v-77h-239v-662h-83z" />
    <glyph glyph-name="Tbar" unicode="&#x166;" horiz-adv-x="644" 
d="M603 662h-239v-258h119v-68h-119v-336h-83v336h-119v68h119v258h-239v77h561v-77z" />
    <glyph glyph-name="Tcaron" unicode="&#x164;" horiz-adv-x="644" 
d="M375 809h-93l-94 153h68l72 -100l71 100h68zM42 739h561v-77h-239v-662h-83v662h-239v77z" />
    <glyph glyph-name="uni0162" unicode="&#x162;" horiz-adv-x="644" 
d="M281 0v662h-239v77h561v-77h-239v-662h-83zM240 -206l43 143h87l-65 -143h-65z" />
    <glyph glyph-name="uni021A" unicode="&#x21a;" horiz-adv-x="644" 
d="M281 0v662h-239v77h561v-77h-239v-662h-83zM274 -232v31c39 0 59 21 61 45c1 6 1 12 0 17c-6 -9 -18 -14 -34 -11c-20 2 -34 18 -34 40c0 28 18 53 56 53c44 0 67 -38 67 -74c0 -52 -31 -104 -116 -101z" />
    <glyph glyph-name="U" unicode="U" horiz-adv-x="738" 
d="M369 -10c-156 0 -279 93 -280 296v453h84v-449c-1 -146 79 -219 196 -219c118 0 196 73 196 219l1 449h83l-1 -453c0 -203 -124 -296 -279 -296z" />
    <glyph glyph-name="Uacute" unicode="&#xda;" horiz-adv-x="738" 
d="M336 808l73 173l77 -37l-83 -136h-67zM369 -10c-156 0 -279 93 -280 296v453h84v-449c-1 -146 79 -219 196 -219c118 0 196 73 196 219l1 449h83l-1 -453c0 -203 -124 -296 -279 -296z" />
    <glyph glyph-name="Ubreve" unicode="&#x16c;" horiz-adv-x="738" 
d="M369 813c-84 0 -131 52 -137 148h64c5 -56 29 -85 73 -85c45 0 67 29 73 85h64c-6 -96 -54 -148 -137 -148zM369 -10c-156 0 -279 93 -280 296v453h84v-449c-1 -146 79 -219 196 -219c118 0 196 73 196 219l1 449h83l-1 -453c0 -203 -124 -296 -279 -296z" />
    <glyph glyph-name="Ucircumflex" unicode="&#xdb;" horiz-adv-x="738" 
d="M368 909l-71 -101h-68l92 153h93l94 -153h-68zM566 739h83l-1 -453c0 -203 -124 -296 -279 -296c-156 0 -279 93 -280 296v453h84v-449c-1 -146 79 -219 196 -219c118 0 196 73 196 219z" />
    <glyph glyph-name="Udieresis" unicode="&#xdc;" horiz-adv-x="738" 
d="M273 822c-30 0 -52 22 -52 52c0 29 22 53 52 53c31 0 52 -24 52 -53c0 -30 -21 -52 -52 -52zM464 822c-30 0 -52 22 -52 52c0 29 22 53 52 53c31 0 52 -24 52 -53c0 -30 -21 -52 -52 -52zM369 -10c-156 0 -279 93 -280 296v453h84v-449c-1 -146 79 -219 196 -219
c118 0 196 73 196 219l1 449h83l-1 -453c0 -203 -124 -296 -279 -296z" />
    <glyph glyph-name="Ugrave" unicode="&#xd9;" horiz-adv-x="738" 
d="M334 808l-83 136l77 37l73 -173h-67zM369 -10c-156 0 -279 93 -280 296v453h84v-449c-1 -146 79 -219 196 -219c118 0 196 73 196 219l1 449h83l-1 -453c0 -203 -124 -296 -279 -296z" />
    <glyph glyph-name="Uhungarumlaut" unicode="&#x170;" horiz-adv-x="738" 
d="M263 808l72 174l66 -31l-70 -143h-68zM408 808l78 168l66 -31l-76 -137h-68zM369 -10c-156 0 -279 93 -280 296v453h84v-449c-1 -146 79 -219 196 -219c118 0 196 73 196 219l1 449h83l-1 -453c0 -203 -124 -296 -279 -296z" />
    <glyph glyph-name="Umacron" unicode="&#x16a;" horiz-adv-x="738" 
d="M239 841v67h261v-67h-261zM369 -10c-156 0 -279 93 -280 296v453h84v-449c-1 -146 79 -219 196 -219c118 0 196 73 196 219l1 449h83l-1 -453c0 -203 -124 -296 -279 -296z" />
    <glyph glyph-name="Uogonek" unicode="&#x172;" horiz-adv-x="738" 
d="M566 739h83l-1 -453c0 -169 -86 -262 -204 -288c-50 -33 -62 -56 -62 -80c0 -25 17 -39 56 -39c32 0 55 7 79 17v-65c-26 -9 -54 -16 -87 -16c-75 0 -113 30 -113 83c0 33 14 61 49 92c-155 1 -276 94 -277 296v453h84v-449c-1 -146 79 -219 196 -219
c118 0 196 73 196 219z" />
    <glyph glyph-name="Uring" unicode="&#x16e;" horiz-adv-x="738" 
d="M369 790c-73 0 -126 51 -126 119s54 120 126 120c71 0 125 -52 125 -120c0 -69 -55 -119 -125 -119zM369 841c39 0 67 27 67 68c0 40 -28 68 -67 68c-40 0 -68 -28 -68 -68c0 -41 28 -68 68 -68zM369 -10c-156 0 -279 93 -280 296v453h84v-449c-1 -146 79 -219 196 -219
c118 0 196 73 196 219l1 449h83l-1 -453c0 -203 -124 -296 -279 -296z" />
    <glyph glyph-name="Utilde" unicode="&#x168;" horiz-adv-x="738" 
d="M215 842c16 67 47 96 87 96c59 0 83 -47 121 -47c22 0 31 11 43 47l53 -15c-17 -67 -47 -97 -87 -97c-60 0 -83 47 -122 47c-20 0 -30 -11 -41 -45zM369 -10c-156 0 -279 93 -280 296v453h84v-449c-1 -146 79 -219 196 -219c118 0 196 73 196 219l1 449h83l-1 -453
c0 -203 -124 -296 -279 -296z" />
    <glyph glyph-name="V" unicode="V" horiz-adv-x="667" 
d="M569 739h90l-316 -750h-20l-315 750h92l235 -583z" />
    <glyph glyph-name="W" unicode="W" horiz-adv-x="990" 
d="M891 739h90l-258 -750h-21l-207 564l-207 -564h-20l-259 750h93l182 -563l202 565h20l205 -564z" />
    <glyph glyph-name="Wacute" unicode="&#x1e82;" horiz-adv-x="990" 
d="M613 944l-83 -136h-67l73 173zM891 739h90l-258 -750h-21l-207 564l-207 -564h-20l-259 750h93l182 -563l202 565h20l205 -564z" />
    <glyph glyph-name="Wcircumflex" unicode="&#x174;" horiz-adv-x="990" 
d="M495 909l-71 -101h-68l92 153h93l94 -153h-68zM891 739h90l-258 -750h-21l-207 564l-207 -564h-20l-259 750h93l182 -563l202 565h20l205 -564z" />
    <glyph glyph-name="Wdieresis" unicode="&#x1e84;" horiz-adv-x="990" 
d="M400 822c-30 0 -52 22 -52 52c0 29 22 53 52 53c31 0 52 -24 52 -53c0 -30 -21 -52 -52 -52zM591 822c-30 0 -52 22 -52 52c0 29 22 53 52 53c31 0 52 -24 52 -53c0 -30 -21 -52 -52 -52zM891 739h90l-258 -750h-21l-207 564l-207 -564h-20l-259 750h93l182 -563l202 565
h20l205 -564z" />
    <glyph glyph-name="Wgrave" unicode="&#x1e80;" horiz-adv-x="990" 
d="M528 808h-67l-83 136l77 37zM891 739h90l-258 -750h-21l-207 564l-207 -564h-20l-259 750h93l182 -563l202 565h20l205 -564z" />
    <glyph glyph-name="X" unicode="X" horiz-adv-x="666" 
d="M658 0h-100l-231 319l-222 -319h-97l269 381l-258 358h100l210 -293l202 293h97l-249 -352z" />
    <glyph glyph-name="Y" unicode="Y" horiz-adv-x="625" 
d="M522 739h98l-263 -448v-291h-84v289l-268 450h98l212 -365z" />
    <glyph glyph-name="Yacute" unicode="&#xdd;" horiz-adv-x="625" 
d="M429 944l-83 -136h-67l73 173zM522 739h98l-263 -448v-291h-84v289l-268 450h98l212 -365z" />
    <glyph glyph-name="Ycircumflex" unicode="&#x176;" horiz-adv-x="625" 
d="M312 909l-71 -101h-68l92 153h93l94 -153h-68zM522 739h98l-263 -448v-291h-84v289l-268 450h98l212 -365z" />
    <glyph glyph-name="Ydieresis" unicode="&#x178;" horiz-adv-x="625" 
d="M216 822c-30 0 -52 22 -52 52c0 29 22 53 52 53c31 0 52 -24 52 -53c0 -30 -21 -52 -52 -52zM407 822c-30 0 -52 22 -52 52c0 29 22 53 52 53c31 0 52 -24 52 -53c0 -30 -21 -52 -52 -52zM522 739h98l-263 -448v-291h-84v289l-268 450h98l212 -365z" />
    <glyph glyph-name="Ygrave" unicode="&#x1ef2;" horiz-adv-x="625" 
d="M344 808h-67l-83 136l77 37zM522 739h98l-263 -448v-291h-84v289l-268 450h98l212 -365z" />
    <glyph glyph-name="Z" unicode="Z" horiz-adv-x="577" 
d="M536 739v-20l-364 -641h363v-78h-488v20l365 642h-370l20 77h474z" />
    <glyph glyph-name="Zacute" unicode="&#x179;" horiz-adv-x="577" 
d="M409 944l-83 -136h-67l73 173zM536 739v-20l-364 -641h363v-78h-488v20l365 642h-370l20 77h474z" />
    <glyph glyph-name="Zcaron" unicode="&#x17d;" horiz-adv-x="577" 
d="M344 809h-93l-94 153h68l72 -100l71 100h68zM536 739v-20l-364 -641h363v-78h-488v20l365 642h-370l20 77h474z" />
    <glyph glyph-name="Zdotaccent" unicode="&#x17b;" horiz-adv-x="577" 
d="M290 818c-32 0 -57 25 -57 56c0 32 25 55 57 55c34 0 60 -24 60 -55s-26 -56 -60 -56zM536 739v-20l-364 -641h363v-78h-488v20l365 642h-370l20 77h474z" />
    <glyph glyph-name="R.alt" horiz-adv-x="700" 
d="M544 0l-230 320h-125v-320h-84v739h256c162 0 258 -76 258 -207c0 -122 -77 -192 -210 -208l240 -324h-105zM189 662v-264h157c123 0 187 42 187 134c0 87 -60 130 -173 130h-171z" />
    <glyph glyph-name="uni1E9E.calt" horiz-adv-x="725" 
d="M485 409c130 -58 188 -120 188 -228c0 -116 -90 -191 -221 -191c-86 0 -141 22 -187 59l39 68c41 -33 84 -49 144 -49c79 0 138 38 138 116c0 77 -45 134 -206 190l-3 14l165 195c-39 56 -103 91 -178 91c-117 0 -192 -69 -192 -197v-479h-83v479c0 180 117 275 271 275
c137 0 226 -80 274 -173z" />
    <glyph glyph-name="J.ss02" horiz-adv-x="463" 
d="M164 -9c-64 0 -110 15 -146 37l32 75c28 -20 62 -33 110 -33c78 0 131 53 131 159v510h83v-511c0 -162 -96 -237 -210 -237z" />
    <glyph glyph-name="Jcircumflex.ss02" horiz-adv-x="463" 
d="M378 961l94 -153h-68l-72 101l-71 -101h-68l92 153h93zM291 229v510h83v-511c0 -162 -96 -237 -210 -237c-64 0 -110 15 -146 37l32 75c28 -20 62 -33 110 -33c78 0 131 53 131 159z" />
    <glyph glyph-name="A.ss06" horiz-adv-x="654" 
d="M646 0h-91l-79 201l-150 -104l-150 104l-79 -201h-89l311 751h16zM326 183l124 84l-124 314l-124 -314z" />
    <glyph glyph-name="Aacute.ss06" horiz-adv-x="654" 
d="M444 944l-83 -136h-67l73 173zM646 0h-91l-79 201l-150 -104l-150 104l-79 -201h-89l311 751h16zM326 183l124 84l-124 314l-124 -314z" />
    <glyph glyph-name="Abreve.ss06" horiz-adv-x="654" 
d="M327 813c-84 0 -131 52 -137 148h64c5 -56 29 -85 73 -85c45 0 67 29 73 85h64c-6 -96 -54 -148 -137 -148zM646 0h-91l-79 201l-150 -104l-150 104l-79 -201h-89l311 751h16zM326 183l124 84l-124 314l-124 -314z" />
    <glyph glyph-name="Acircumflex.ss06" horiz-adv-x="654" 
d="M326 909l-71 -101h-68l92 153h93l94 -153h-68zM646 0h-91l-79 201l-150 -104l-150 104l-79 -201h-89l311 751h16zM326 183l124 84l-124 314l-124 -314z" />
    <glyph glyph-name="Adieresis.ss06" horiz-adv-x="654" 
d="M231 822c-30 0 -52 22 -52 52c0 29 22 53 52 53c31 0 52 -24 52 -53c0 -30 -21 -52 -52 -52zM422 822c-30 0 -52 22 -52 52c0 29 22 53 52 53c31 0 52 -24 52 -53c0 -30 -21 -52 -52 -52zM646 0h-91l-79 201l-150 -104l-150 104l-79 -201h-89l311 751h16zM326 183l124 84
l-124 314l-124 -314z" />
    <glyph glyph-name="Agrave.ss06" horiz-adv-x="654" 
d="M359 808h-67l-83 136l77 37zM646 0h-91l-79 201l-150 -104l-150 104l-79 -201h-89l311 751h16zM326 183l124 84l-124 314l-124 -314z" />
    <glyph glyph-name="Amacron.ss06" horiz-adv-x="654" 
d="M458 908v-67h-261v67h261zM646 0h-91l-79 201l-150 -104l-150 104l-79 -201h-89l311 751h16zM326 183l124 84l-124 314l-124 -314z" />
    <glyph glyph-name="Aring.ss06" horiz-adv-x="654" 
d="M327 790c-73 0 -126 51 -126 119s54 120 126 120c71 0 125 -52 125 -120c0 -69 -55 -119 -125 -119zM327 977c-40 0 -68 -28 -68 -68c0 -41 28 -68 68 -68c39 0 67 27 67 68c0 40 -28 68 -67 68zM646 0h-91l-79 201l-150 -104l-150 104l-79 -201h-89l311 751h16zM326 183
l124 84l-124 314l-124 -314z" />
    <glyph glyph-name="Atilde.ss06" horiz-adv-x="654" 
d="M268 873c-20 0 -30 -11 -41 -45l-54 14c16 67 47 96 87 96c59 0 83 -47 121 -47c22 0 31 11 43 47l53 -15c-17 -67 -47 -97 -87 -97c-60 0 -83 47 -122 47zM646 0h-91l-79 201l-150 -104l-150 104l-79 -201h-89l311 751h16zM326 183l124 84l-124 314l-124 -314z" />
    <glyph glyph-name="Q.ss07" horiz-adv-x="841" 
d="M783 369c0 -217 -144 -360 -321 -380v-139h-83v139c-177 19 -321 163 -321 380c0 235 167 383 362 383s363 -148 363 -383zM420 68c150 0 277 113 277 301c0 189 -127 303 -277 303s-276 -114 -276 -303c0 -188 126 -301 276 -301z" />
    <glyph glyph-name="a" unicode="a" horiz-adv-x="551" 
d="M486 0h-75c-4 29 -8 54 -10 81c-35 -59 -95 -92 -173 -92c-108 0 -183 57 -183 156c0 101 81 164 224 164c53 0 94 -7 129 -16v34c0 82 -52 130 -137 130c-66 0 -113 -22 -151 -52l-34 62c47 35 109 60 188 60c130 0 211 -72 211 -200v-176c0 -58 5 -110 11 -151zM242 56
c95 0 155 58 156 151v25c-35 10 -71 16 -122 16c-105 0 -152 -40 -152 -101c0 -55 45 -91 118 -91z" />
    <glyph glyph-name="aacute" unicode="&#xe1;" horiz-adv-x="551" 
d="M379 721l-83 -136h-67l73 173zM486 0h-75c-4 29 -8 54 -10 81c-35 -59 -95 -92 -173 -92c-108 0 -183 57 -183 156c0 101 81 164 224 164c53 0 94 -7 129 -16v34c0 82 -52 130 -137 130c-66 0 -113 -22 -151 -52l-34 62c47 35 109 60 188 60c130 0 211 -72 211 -200v-176
c0 -58 5 -110 11 -151zM242 56c95 0 155 58 156 151v25c-35 10 -71 16 -122 16c-105 0 -152 -40 -152 -101c0 -55 45 -91 118 -91z" />
    <glyph glyph-name="abreve" unicode="&#x103;" horiz-adv-x="551" 
d="M262 590c-84 0 -131 52 -137 148h64c5 -56 29 -85 73 -85c45 0 67 29 73 85h64c-6 -96 -54 -148 -137 -148zM486 0h-75c-4 29 -8 54 -10 81c-35 -59 -95 -92 -173 -92c-108 0 -183 57 -183 156c0 101 81 164 224 164c53 0 94 -7 129 -16v34c0 82 -52 130 -137 130
c-66 0 -113 -22 -151 -52l-34 62c47 35 109 60 188 60c130 0 211 -72 211 -200v-176c0 -58 5 -110 11 -151zM242 56c95 0 155 58 156 151v25c-35 10 -71 16 -122 16c-105 0 -152 -40 -152 -101c0 -55 45 -91 118 -91z" />
    <glyph glyph-name="acircumflex" unicode="&#xe2;" horiz-adv-x="551" 
d="M262 686l-71 -101h-68l92 153h93l94 -153h-68zM486 0h-75c-4 29 -8 54 -10 81c-35 -59 -95 -92 -173 -92c-108 0 -183 57 -183 156c0 101 81 164 224 164c53 0 94 -7 129 -16v34c0 82 -52 130 -137 130c-66 0 -113 -22 -151 -52l-34 62c47 35 109 60 188 60
c130 0 211 -72 211 -200v-176c0 -58 5 -110 11 -151zM242 56c95 0 155 58 156 151v25c-35 10 -71 16 -122 16c-105 0 -152 -40 -152 -101c0 -55 45 -91 118 -91z" />
    <glyph glyph-name="adieresis" unicode="&#xe4;" horiz-adv-x="551" 
d="M166 599c-30 0 -52 22 -52 52c0 29 22 53 52 53c31 0 52 -24 52 -53c0 -30 -21 -52 -52 -52zM357 599c-30 0 -52 22 -52 52c0 29 22 53 52 53c31 0 52 -24 52 -53c0 -30 -21 -52 -52 -52zM486 0h-75c-4 29 -8 54 -10 81c-35 -59 -95 -92 -173 -92
c-108 0 -183 57 -183 156c0 101 81 164 224 164c53 0 94 -7 129 -16v34c0 82 -52 130 -137 130c-66 0 -113 -22 -151 -52l-34 62c47 35 109 60 188 60c130 0 211 -72 211 -200v-176c0 -58 5 -110 11 -151zM242 56c95 0 155 58 156 151v25c-35 10 -71 16 -122 16
c-105 0 -152 -40 -152 -101c0 -55 45 -91 118 -91z" />
    <glyph glyph-name="agrave" unicode="&#xe0;" horiz-adv-x="551" 
d="M295 585h-67l-83 136l77 37zM486 0h-75c-4 29 -8 54 -10 81c-35 -59 -95 -92 -173 -92c-108 0 -183 57 -183 156c0 101 81 164 224 164c53 0 94 -7 129 -16v34c0 82 -52 130 -137 130c-66 0 -113 -22 -151 -52l-34 62c47 35 109 60 188 60c130 0 211 -72 211 -200v-176
c0 -58 5 -110 11 -151zM242 56c95 0 155 58 156 151v25c-35 10 -71 16 -122 16c-105 0 -152 -40 -152 -101c0 -55 45 -91 118 -91z" />
    <glyph glyph-name="amacron" unicode="&#x101;" horiz-adv-x="551" 
d="M393 685v-67h-261v67h261zM486 0h-75c-4 29 -8 54 -10 81c-35 -59 -95 -92 -173 -92c-108 0 -183 57 -183 156c0 101 81 164 224 164c53 0 94 -7 129 -16v34c0 82 -52 130 -137 130c-66 0 -113 -22 -151 -52l-34 62c47 35 109 60 188 60c130 0 211 -72 211 -200v-176
c0 -58 5 -110 11 -151zM242 56c95 0 155 58 156 151v25c-35 10 -71 16 -122 16c-105 0 -152 -40 -152 -101c0 -55 45 -91 118 -91z" />
    <glyph glyph-name="aogonek" unicode="&#x105;" horiz-adv-x="551" 
d="M464 -121c32 0 55 7 79 17v-65c-26 -9 -54 -16 -87 -16c-75 0 -113 30 -113 83c0 38 19 70 67 107c-4 27 -7 51 -9 76c-35 -59 -95 -92 -173 -92c-108 0 -183 57 -183 156c0 101 81 164 224 164c53 0 94 -7 129 -16v34c0 82 -52 130 -137 130c-66 0 -113 -22 -151 -52
l-34 62c47 35 109 60 188 60c130 0 211 -72 211 -200v-176c0 -58 5 -110 11 -151h-13c-53 -34 -65 -58 -65 -82c0 -25 17 -39 56 -39zM242 56c95 0 155 58 156 151v25c-35 10 -71 16 -122 16c-105 0 -152 -40 -152 -101c0 -55 45 -91 118 -91z" />
    <glyph glyph-name="aring" unicode="&#xe5;" horiz-adv-x="551" 
d="M262 567c-73 0 -126 51 -126 119s54 120 126 120c71 0 125 -52 125 -120c0 -69 -55 -119 -125 -119zM262 754c-40 0 -68 -28 -68 -68c0 -41 28 -68 68 -68c39 0 67 27 67 68c0 40 -28 68 -67 68zM486 0h-75c-4 29 -8 54 -10 81c-35 -59 -95 -92 -173 -92
c-108 0 -183 57 -183 156c0 101 81 164 224 164c53 0 94 -7 129 -16v34c0 82 -52 130 -137 130c-66 0 -113 -22 -151 -52l-34 62c47 35 109 60 188 60c130 0 211 -72 211 -200v-176c0 -58 5 -110 11 -151zM242 56c95 0 155 58 156 151v25c-35 10 -71 16 -122 16
c-105 0 -152 -40 -152 -101c0 -55 45 -91 118 -91z" />
    <glyph glyph-name="aringacute" unicode="&#x1fb;" horiz-adv-x="551" 
d="M379 980l-83 -136h-67l73 173zM262 567c-73 0 -126 51 -126 119s54 120 126 120c71 0 125 -52 125 -120c0 -69 -55 -119 -125 -119zM262 754c-40 0 -68 -28 -68 -68c0 -41 28 -68 68 -68c39 0 67 27 67 68c0 40 -28 68 -67 68zM486 0h-75c-4 29 -8 54 -10 81
c-35 -59 -95 -92 -173 -92c-108 0 -183 57 -183 156c0 101 81 164 224 164c53 0 94 -7 129 -16v34c0 82 -52 130 -137 130c-66 0 -113 -22 -151 -52l-34 62c47 35 109 60 188 60c130 0 211 -72 211 -200v-176c0 -58 5 -110 11 -151zM242 56c95 0 155 58 156 151v25
c-35 10 -71 16 -122 16c-105 0 -152 -40 -152 -101c0 -55 45 -91 118 -91z" />
    <glyph glyph-name="atilde" unicode="&#xe3;" horiz-adv-x="551" 
d="M203 650c-20 0 -30 -11 -41 -45l-54 14c16 67 47 96 87 96c59 0 83 -47 121 -47c22 0 31 11 43 47l53 -15c-17 -67 -47 -97 -87 -97c-60 0 -83 47 -122 47zM486 0h-75c-4 29 -8 54 -10 81c-35 -59 -95 -92 -173 -92c-108 0 -183 57 -183 156c0 101 81 164 224 164
c53 0 94 -7 129 -16v34c0 82 -52 130 -137 130c-66 0 -113 -22 -151 -52l-34 62c47 35 109 60 188 60c130 0 211 -72 211 -200v-176c0 -58 5 -110 11 -151zM242 56c95 0 155 58 156 151v25c-35 10 -71 16 -122 16c-105 0 -152 -40 -152 -101c0 -55 45 -91 118 -91z" />
    <glyph glyph-name="ae" unicode="&#xe6;" horiz-adv-x="930" 
d="M646 528c151 0 250 -117 236 -291h-409c9 -115 76 -177 182 -177c64 0 111 21 158 75l50 -52c-56 -65 -122 -95 -212 -95c-98 0 -175 44 -216 123c-36 -81 -107 -122 -205 -122c-111 0 -185 57 -185 157c0 99 84 164 227 164c52 0 91 -5 124 -11v27
c0 83 -47 133 -128 133c-64 0 -114 -22 -155 -53l-36 61c51 37 116 61 193 61c89 0 151 -36 180 -100c44 63 114 100 196 100zM646 458c-92 0 -157 -62 -171 -156l328 -1c-9 98 -68 157 -157 157zM243 55c91 0 152 56 153 163v20c-33 6 -71 10 -118 10
c-105 0 -154 -41 -154 -100c0 -57 41 -93 119 -93z" />
    <glyph glyph-name="aeacute" unicode="&#x1fd;" horiz-adv-x="930" 
d="M583 722l-83 -136h-67l73 173zM646 528c151 0 250 -117 236 -291h-409c9 -115 76 -177 182 -177c64 0 111 21 158 75l50 -52c-56 -65 -122 -95 -212 -95c-98 0 -175 44 -216 123c-36 -81 -107 -122 -205 -122c-111 0 -185 57 -185 157c0 99 84 164 227 164
c52 0 91 -5 124 -11v27c0 83 -47 133 -128 133c-64 0 -114 -22 -155 -53l-36 61c51 37 116 61 193 61c89 0 151 -36 180 -100c44 63 114 100 196 100zM646 458c-92 0 -157 -62 -171 -156l328 -1c-9 98 -68 157 -157 157zM243 55c91 0 152 56 153 163v20
c-33 6 -71 10 -118 10c-105 0 -154 -41 -154 -100c0 -57 41 -93 119 -93z" />
    <glyph glyph-name="b" unicode="b" horiz-adv-x="658" 
d="M364 529c151 0 245 -119 245 -270c0 -152 -101 -271 -247 -271c-92 0 -157 41 -195 107l-1 -95h-77v739h79v-321c38 68 104 111 196 111zM347 60c102 0 181 79 181 198s-74 199 -176 199c-104 0 -184 -77 -184 -199c0 -121 73 -198 179 -198z" />
    <glyph glyph-name="c" unicode="c" horiz-adv-x="542" 
d="M303 -10c-143 0 -254 101 -254 269c0 154 112 266 263 266c79 0 137 -26 184 -74l-45 -58c-37 39 -80 59 -137 59c-104 0 -184 -81 -184 -194c0 -126 82 -195 177 -195c57 0 101 18 147 64l45 -55c-53 -55 -113 -82 -196 -82z" />
    <glyph glyph-name="cacute" unicode="&#x107;" horiz-adv-x="542" 
d="M267 586l73 173l77 -37l-83 -136h-67zM303 -10c-143 0 -254 101 -254 269c0 154 112 266 263 266c79 0 137 -26 184 -74l-45 -58c-37 39 -80 59 -137 59c-104 0 -184 -81 -184 -194c0 -126 82 -195 177 -195c57 0 101 18 147 64l45 -55c-53 -55 -113 -82 -196 -82z" />
    <glyph glyph-name="ccaron" unicode="&#x10d;" horiz-adv-x="542" 
d="M352 587h-93l-94 153h68l72 -100l71 100h68zM454 127l45 -55c-53 -55 -113 -82 -196 -82c-143 0 -254 101 -254 269c0 154 112 266 263 266c79 0 137 -26 184 -74l-45 -58c-37 39 -80 59 -137 59c-104 0 -184 -81 -184 -194c0 -126 82 -195 177 -195c57 0 101 18 147 64z
" />
    <glyph glyph-name="ccedilla" unicode="&#xe7;" horiz-adv-x="542" 
d="M303 -10c-143 0 -254 101 -254 269c0 154 112 266 263 266c79 0 137 -26 184 -74l-45 -58c-37 39 -80 59 -137 59c-104 0 -184 -81 -184 -194c0 -126 82 -195 177 -195c57 0 101 18 147 64l45 -55c-53 -55 -113 -82 -196 -82zM218 -206l43 143h87l-65 -143h-65z" />
    <glyph glyph-name="ccircumflex" unicode="&#x109;" horiz-adv-x="542" 
d="M299 687l-71 -101h-68l92 153h93l94 -153h-68zM454 127l45 -55c-53 -55 -113 -82 -196 -82c-143 0 -254 101 -254 269c0 154 112 266 263 266c79 0 137 -26 184 -74l-45 -58c-37 39 -80 59 -137 59c-104 0 -184 -81 -184 -194c0 -126 82 -195 177 -195
c57 0 101 18 147 64z" />
    <glyph glyph-name="cdotaccent" unicode="&#x10b;" horiz-adv-x="542" 
d="M298 596c-32 0 -57 25 -57 56c0 32 25 55 57 55c34 0 60 -24 60 -55s-26 -56 -60 -56zM303 -10c-143 0 -254 101 -254 269c0 154 112 266 263 266c79 0 137 -26 184 -74l-45 -58c-37 39 -80 59 -137 59c-104 0 -184 -81 -184 -194c0 -126 82 -195 177 -195
c57 0 101 18 147 64l45 -55c-53 -55 -113 -82 -196 -82z" />
    <glyph glyph-name="d" unicode="d" horiz-adv-x="657" 
d="M489 739h79v-739h-77l-1 96c-39 -66 -105 -108 -196 -108c-151 0 -245 119 -245 270s101 271 247 271c91 0 155 -40 193 -104v314zM306 60c98 0 174 66 183 175v47c-9 108 -79 174 -177 174c-103 0 -182 -79 -182 -198s74 -198 176 -198z" />
    <glyph glyph-name="eth" unicode="&#xf0;" horiz-adv-x="630" 
d="M509 434c47 -60 72 -122 72 -195c0 -143 -104 -248 -268 -248c-162 0 -264 102 -264 243c0 144 105 246 249 246c39 0 70 -7 98 -19l-116 143l-157 -66l-23 51l143 61l-73 89h95l47 -59l144 61l24 -52l-131 -55zM314 63c111 0 185 74 185 173c0 100 -69 178 -185 178
c-114 0 -184 -78 -184 -178s70 -173 184 -173z" />
    <glyph glyph-name="dcaron" unicode="&#x10f;" horiz-adv-x="657" 
d="M489 425v314h79v-739h-77l-1 96c-39 -66 -105 -108 -196 -108c-151 0 -245 119 -245 270s101 271 247 271c91 0 155 -40 193 -104zM639 739h74l-25 -157h-59zM306 60c98 0 174 66 183 175v47c-9 108 -79 174 -177 174c-103 0 -182 -79 -182 -198s74 -198 176 -198z" />
    <glyph glyph-name="dcroat" unicode="&#x111;" horiz-adv-x="657" 
d="M654 665v-60h-86v-605h-77l-1 96c-39 -66 -105 -108 -196 -108c-151 0 -245 119 -245 270s101 271 247 271c91 0 155 -40 193 -104v180h-170v60h170v74h79v-74h86zM306 60c98 0 174 66 183 175v47c-9 108 -79 174 -177 174c-103 0 -182 -79 -182 -198s74 -198 176 -198z
" />
    <glyph glyph-name="e" unicode="e" horiz-adv-x="588" 
d="M541 268c0 -9 0 -18 -1 -28h-409c8 -117 76 -180 181 -180c65 0 113 19 162 72l49 -50c-57 -67 -124 -94 -215 -94c-154 0 -259 101 -259 273c0 157 112 268 254 268c143 0 238 -103 238 -261zM303 459c-89 0 -155 -63 -170 -156h327c-9 95 -66 156 -157 156z" />
    <glyph glyph-name="eacute" unicode="&#xe9;" horiz-adv-x="588" 
d="M419 722l-83 -136h-67l73 173zM541 268c0 -9 0 -18 -1 -28h-409c8 -117 76 -180 181 -180c65 0 113 19 162 72l49 -50c-57 -67 -124 -94 -215 -94c-154 0 -259 101 -259 273c0 157 112 268 254 268c143 0 238 -103 238 -261zM303 459c-89 0 -155 -63 -170 -156h327
c-9 95 -66 156 -157 156z" />
    <glyph glyph-name="ebreve" unicode="&#x115;" horiz-adv-x="588" 
d="M302 591c-84 0 -131 52 -137 148h64c5 -56 29 -85 73 -85c45 0 67 29 73 85h64c-6 -96 -54 -148 -137 -148zM541 268c0 -9 0 -18 -1 -28h-409c8 -117 76 -180 181 -180c65 0 113 19 162 72l49 -50c-57 -67 -124 -94 -215 -94c-154 0 -259 101 -259 273
c0 157 112 268 254 268c143 0 238 -103 238 -261zM303 459c-89 0 -155 -63 -170 -156h327c-9 95 -66 156 -157 156z" />
    <glyph glyph-name="ecaron" unicode="&#x11b;" horiz-adv-x="588" 
d="M354 587h-93l-94 153h68l72 -100l71 100h68zM541 268c0 -9 0 -18 -1 -28h-409c8 -117 76 -180 181 -180c65 0 113 19 162 72l49 -50c-57 -67 -124 -94 -215 -94c-154 0 -259 101 -259 273c0 157 112 268 254 268c143 0 238 -103 238 -261zM303 459
c-89 0 -155 -63 -170 -156h327c-9 95 -66 156 -157 156z" />
    <glyph glyph-name="ecircumflex" unicode="&#xea;" horiz-adv-x="588" 
d="M301 687l-71 -101h-68l92 153h93l94 -153h-68zM541 268c0 -9 0 -18 -1 -28h-409c8 -117 76 -180 181 -180c65 0 113 19 162 72l49 -50c-57 -67 -124 -94 -215 -94c-154 0 -259 101 -259 273c0 157 112 268 254 268c143 0 238 -103 238 -261zM303 459
c-89 0 -155 -63 -170 -156h327c-9 95 -66 156 -157 156z" />
    <glyph glyph-name="edieresis" unicode="&#xeb;" horiz-adv-x="588" 
d="M206 600c-30 0 -52 22 -52 52c0 29 22 53 52 53c31 0 52 -24 52 -53c0 -30 -21 -52 -52 -52zM397 600c-30 0 -52 22 -52 52c0 29 22 53 52 53c31 0 52 -24 52 -53c0 -30 -21 -52 -52 -52zM541 268c0 -9 0 -18 -1 -28h-409c8 -117 76 -180 181 -180c65 0 113 19 162 72
l49 -50c-57 -67 -124 -94 -215 -94c-154 0 -259 101 -259 273c0 157 112 268 254 268c143 0 238 -103 238 -261zM303 459c-89 0 -155 -63 -170 -156h327c-9 95 -66 156 -157 156z" />
    <glyph glyph-name="edotaccent" unicode="&#x117;" horiz-adv-x="588" 
d="M300 596c-32 0 -57 25 -57 56c0 32 25 55 57 55c34 0 60 -24 60 -55s-26 -56 -60 -56zM541 268c0 -9 0 -18 -1 -28h-409c8 -117 76 -180 181 -180c65 0 113 19 162 72l49 -50c-57 -67 -124 -94 -215 -94c-154 0 -259 101 -259 273c0 157 112 268 254 268
c143 0 238 -103 238 -261zM303 459c-89 0 -155 -63 -170 -156h327c-9 95 -66 156 -157 156z" />
    <glyph glyph-name="egrave" unicode="&#xe8;" horiz-adv-x="588" 
d="M334 586h-67l-83 136l77 37zM541 268c0 -9 0 -18 -1 -28h-409c8 -117 76 -180 181 -180c65 0 113 19 162 72l49 -50c-57 -67 -124 -94 -215 -94c-154 0 -259 101 -259 273c0 157 112 268 254 268c143 0 238 -103 238 -261zM303 459c-89 0 -155 -63 -170 -156h327
c-9 95 -66 156 -157 156z" />
    <glyph glyph-name="emacron" unicode="&#x113;" horiz-adv-x="588" 
d="M432 686v-67h-261v67h261zM541 268c0 -9 0 -18 -1 -28h-409c8 -117 76 -180 181 -180c65 0 113 19 162 72l49 -50c-57 -67 -124 -94 -215 -94c-154 0 -259 101 -259 273c0 157 112 268 254 268c143 0 238 -103 238 -261zM303 459c-89 0 -155 -63 -170 -156h327
c-9 95 -66 156 -157 156z" />
    <glyph glyph-name="eogonek" unicode="&#x119;" horiz-adv-x="588" 
d="M541 268c0 -9 0 -18 -1 -28h-409c8 -117 76 -180 181 -180c65 0 113 19 162 72l49 -50c-36 -42 -76 -69 -123 -82c-45 -31 -56 -53 -56 -76c0 -25 17 -39 56 -39c32 0 55 7 79 17v-65c-26 -9 -54 -16 -87 -16c-75 0 -113 30 -113 83c0 30 12 56 41 84h-12
c-154 0 -259 101 -259 273c0 157 112 268 254 268c143 0 238 -103 238 -261zM303 459c-89 0 -155 -63 -170 -156h327c-9 95 -66 156 -157 156z" />
    <glyph glyph-name="uni0259" unicode="&#x259;" horiz-adv-x="588" 
d="M280 529c154 0 259 -102 259 -273c0 -157 -112 -268 -254 -268c-143 0 -238 103 -238 260c0 9 0 19 1 29h409c-8 118 -76 180 -181 180c-65 0 -113 -19 -162 -73l-49 51c57 66 124 94 215 94zM285 57c89 0 156 64 170 157h-327c9 -96 66 -157 157 -157z" />
    <glyph glyph-name="f" unicode="f" horiz-adv-x="412" 
d="M199 569v-52h192v-71h-192v-446h-78v446h-108l19 71h89v49c0 114 64 185 173 185c52 0 93 -15 128 -42l-36 -60c-26 21 -53 32 -87 32c-61 0 -100 -39 -100 -112z" />
    <glyph glyph-name="g" unicode="g" horiz-adv-x="642" 
d="M476 517h76v-499c0 -160 -100 -234 -249 -234c-67 0 -121 14 -166 36l26 68c37 -18 85 -32 139 -32c105 0 172 46 172 158v87c-37 -66 -101 -107 -187 -107c-145 0 -238 118 -238 267c0 150 100 268 240 268c87 0 149 -40 186 -104zM299 65c99 0 175 76 175 196
s-70 195 -169 195c-98 0 -175 -78 -175 -195c0 -116 72 -196 169 -196z" />
    <glyph glyph-name="gbreve" unicode="&#x11f;" horiz-adv-x="642" 
d="M306 591c-84 0 -131 52 -137 148h64c5 -56 29 -85 73 -85c45 0 67 29 73 85h64c-6 -96 -54 -148 -137 -148zM476 517h76v-499c0 -160 -100 -234 -249 -234c-67 0 -121 14 -166 36l26 68c37 -18 85 -32 139 -32c105 0 172 46 172 158v87c-37 -66 -101 -107 -187 -107
c-145 0 -238 118 -238 267c0 150 100 268 240 268c87 0 149 -40 186 -104zM299 65c99 0 175 76 175 196s-70 195 -169 195c-98 0 -175 -78 -175 -195c0 -116 72 -196 169 -196z" />
    <glyph glyph-name="gcircumflex" unicode="&#x11d;" horiz-adv-x="642" 
d="M305 687l-71 -101h-68l92 153h93l94 -153h-68zM476 517h76v-499c0 -160 -100 -234 -249 -234c-67 0 -121 14 -166 36l26 68c37 -18 85 -32 139 -32c105 0 172 46 172 158v87c-37 -66 -101 -107 -187 -107c-145 0 -238 118 -238 267c0 150 100 268 240 268
c87 0 149 -40 186 -104zM299 65c99 0 175 76 175 196s-70 195 -169 195c-98 0 -175 -78 -175 -195c0 -116 72 -196 169 -196z" />
    <glyph glyph-name="uni0123" unicode="&#x123;" horiz-adv-x="642" 
d="M314 592c-45 0 -67 38 -67 75c0 51 30 104 115 100v-31c-39 1 -58 -20 -60 -45c-2 -6 -1 -12 -1 -17c7 9 19 14 35 12c20 -3 34 -19 34 -41c0 -28 -18 -53 -56 -53zM476 517h76v-499c0 -160 -100 -234 -249 -234c-67 0 -121 14 -166 36l26 68c37 -18 85 -32 139 -32
c105 0 172 46 172 158v87c-37 -66 -101 -107 -187 -107c-145 0 -238 118 -238 267c0 150 100 268 240 268c87 0 149 -40 186 -104zM299 65c99 0 175 76 175 196s-70 195 -169 195c-98 0 -175 -78 -175 -195c0 -116 72 -196 169 -196z" />
    <glyph glyph-name="gdotaccent" unicode="&#x121;" horiz-adv-x="642" 
d="M304 596c-32 0 -57 25 -57 56c0 32 25 55 57 55c34 0 60 -24 60 -55s-26 -56 -60 -56zM476 517h76v-499c0 -160 -100 -234 -249 -234c-67 0 -121 14 -166 36l26 68c37 -18 85 -32 139 -32c105 0 172 46 172 158v87c-37 -66 -101 -107 -187 -107c-145 0 -238 118 -238 267
c0 150 100 268 240 268c87 0 149 -40 186 -104zM299 65c99 0 175 76 175 196s-70 195 -169 195c-98 0 -175 -78 -175 -195c0 -116 72 -196 169 -196z" />
    <glyph glyph-name="h" unicode="h" horiz-adv-x="620" 
d="M349 529c114 0 195 -77 195 -227v-302h-78v296c0 105 -53 158 -139 158c-84 0 -159 -53 -159 -181v-273h-79v739h79v-307c39 65 102 97 181 97z" />
    <glyph glyph-name="hbar" unicode="&#x127;" horiz-adv-x="620" 
d="M349 529c114 0 195 -77 195 -227v-302h-78v296c0 105 -53 158 -140 158c-83 0 -158 -53 -158 -181v-273h-79v605h-87v60h87v74h79v-74h169v-60h-169v-173c39 65 102 97 181 97z" />
    <glyph glyph-name="hcircumflex" unicode="&#x125;" horiz-adv-x="620" 
d="M200 808l-72 101l-71 -101h-68l92 153h93l94 -153h-68zM349 529c114 0 195 -77 195 -227v-302h-78v296c0 105 -53 158 -139 158c-84 0 -159 -53 -159 -181v-273h-79v739h79v-307c39 65 102 97 181 97z" />
    <glyph glyph-name="i" unicode="i" horiz-adv-x="257" 
d="M128 640c-32 0 -55 24 -55 54c0 31 23 53 55 53c34 0 58 -22 58 -53c0 -30 -24 -54 -58 -54zM89 0v517h79v-517h-79z" />
    <glyph glyph-name="dotlessi" unicode="&#x131;" horiz-adv-x="257" 
d="M89 0v517h79v-517h-79z" />
    <glyph glyph-name="iacute" unicode="&#xed;" horiz-adv-x="257" 
d="M96 586l73 173l77 -37l-83 -136h-67zM89 0v517h79v-517h-79z" />
    <glyph glyph-name="ibreve" unicode="&#x12d;" horiz-adv-x="257" 
d="M129 591c-84 0 -131 52 -137 148h64c5 -56 29 -85 73 -85c45 0 67 29 73 85h64c-6 -96 -54 -148 -137 -148zM89 0v517h79v-517h-79z" />
    <glyph glyph-name="icircumflex" unicode="&#xee;" horiz-adv-x="257" 
d="M174 739l94 -153h-68l-72 101l-71 -101h-68l92 153h93zM89 0v517h79v-517h-79z" />
    <glyph glyph-name="idieresis" unicode="&#xef;" horiz-adv-x="257" 
d="M33 600c-30 0 -52 22 -52 52c0 29 22 53 52 53c31 0 52 -24 52 -53c0 -30 -21 -52 -52 -52zM224 600c-30 0 -52 22 -52 52c0 29 22 53 52 53c31 0 52 -24 52 -53c0 -30 -21 -52 -52 -52zM89 0v517h79v-517h-79z" />
    <glyph glyph-name="igrave" unicode="&#xec;" horiz-adv-x="257" 
d="M94 586l-83 136l77 37l73 -173h-67zM89 0v517h79v-517h-79z" />
    <glyph glyph-name="imacron" unicode="&#x12b;" horiz-adv-x="257" 
d="M-2 619v67h261v-67h-261zM89 0v517h79v-517h-79z" />
    <glyph glyph-name="iogonek" unicode="&#x12f;" horiz-adv-x="257" 
d="M128 640c-32 0 -55 24 -55 54c0 31 23 53 55 53c34 0 58 -22 58 -53c0 -30 -24 -54 -58 -54zM149 -121c31 0 55 7 79 17v-65c-26 -9 -54 -16 -88 -16c-74 0 -112 30 -112 83c0 37 17 67 61 102v517h79v-517h-10c-53 -34 -66 -58 -66 -82c0 -25 18 -39 57 -39z" />
    <glyph glyph-name="itilde" unicode="&#x129;" horiz-adv-x="257" 
d="M-25 620c16 67 47 96 87 96c59 0 83 -47 121 -47c22 0 31 11 43 47l53 -15c-17 -67 -47 -97 -87 -97c-60 0 -83 47 -122 47c-20 0 -30 -11 -41 -45zM89 0v517h79v-517h-79z" />
    <glyph glyph-name="j" unicode="j" horiz-adv-x="257" 
d="M128 640c-32 0 -55 24 -55 54c0 31 23 53 55 53c34 0 58 -22 58 -53c0 -30 -24 -54 -58 -54zM-67 -204l19 67c17 -7 35 -11 55 -11c49 0 83 30 83 104v561h78v-558c0 -118 -62 -177 -156 -177c-30 0 -56 5 -79 14z" />
    <glyph glyph-name="uni0237" unicode="&#x237;" horiz-adv-x="257" 
d="M12 -218c-30 0 -56 5 -79 14l19 67c17 -7 35 -11 55 -11c49 0 83 30 83 104v561h78v-558c0 -118 -62 -177 -156 -177z" />
    <glyph glyph-name="jcircumflex" unicode="&#x135;" horiz-adv-x="257" 
d="M174 739l94 -153h-68l-72 101l-71 -101h-68l92 153h93zM90 -44v561h78v-558c0 -118 -62 -177 -156 -177c-30 0 -56 5 -79 14l19 67c17 -7 35 -11 55 -11c49 0 83 30 83 104z" />
    <glyph glyph-name="k" unicode="k" horiz-adv-x="493" 
d="M489 0h-101l-220 264v-264h-79v739h79v-461l220 239h99l-232 -243z" />
    <glyph glyph-name="uni0137" unicode="&#x137;" horiz-adv-x="493" 
d="M255 274l234 -274h-101l-220 264v-264h-79v739h79v-461l220 239h99zM261 -57c44 0 67 -38 67 -74c0 -52 -31 -104 -116 -101v31c39 0 59 21 61 45c1 6 1 12 0 17c-6 -9 -18 -14 -34 -11c-20 2 -34 18 -34 40c0 28 18 53 56 53z" />
    <glyph glyph-name="kgreenlandic" unicode="&#x138;" horiz-adv-x="500" 
d="M490 0h-101l-220 263v-263h-79v517h79v-238l220 238h100l-234 -243z" />
    <glyph glyph-name="l" unicode="l" horiz-adv-x="257" 
d="M89 0v739h79v-739h-79z" />
    <glyph glyph-name="lacute" unicode="&#x13a;" horiz-adv-x="257" 
d="M95 808l73 173l77 -37l-83 -136h-67zM89 0v739h79v-739h-79z" />
    <glyph glyph-name="lcaron" unicode="&#x13e;" horiz-adv-x="257" 
d="M89 0v739h79v-739h-79zM230 582l10 157h74l-25 -157h-59z" />
    <glyph glyph-name="uni013C" unicode="&#x13c;" horiz-adv-x="257" 
d="M89 0v739h79v-739h-79zM80 -232v31c39 0 59 21 61 45c1 6 1 12 0 17c-6 -9 -18 -14 -34 -11c-20 2 -34 18 -34 40c0 28 18 53 56 53c44 0 67 -38 67 -74c0 -52 -31 -104 -116 -101z" />
    <glyph glyph-name="ldot" unicode="&#x140;" horiz-adv-x="368" 
d="M89 0v739h79v-739h-79zM312 307c-31 0 -55 23 -55 55c0 30 24 54 55 54s55 -24 55 -54c0 -32 -24 -55 -55 -55z" />
    <glyph glyph-name="lslash" unicode="&#x142;" horiz-adv-x="261" 
d="M250 499v-77l-80 -59v-363h-79v315l-78 -59v76l78 59v348h79v-300z" />
    <glyph glyph-name="m" unicode="m" horiz-adv-x="951" 
d="M691 529c109 0 184 -76 184 -217v-312h-78v307c0 96 -49 147 -126 147c-80 0 -149 -51 -149 -170v-284h-79v307c0 96 -49 147 -126 147c-80 0 -149 -51 -149 -170v-284h-79v517h77l1 -79c37 59 96 91 171 91c78 0 139 -39 167 -114c35 73 100 114 186 114z" />
    <glyph glyph-name="n" unicode="n" horiz-adv-x="611" 
d="M345 529c112 0 191 -77 191 -227v-302h-79v296c0 105 -51 158 -135 158c-81 0 -154 -53 -154 -181v-273h-79v517h77l1 -87c38 66 101 99 178 99z" />
    <glyph glyph-name="nacute" unicode="&#x144;" horiz-adv-x="611" 
d="M431 722l-83 -136h-67l73 173zM345 529c112 0 191 -77 191 -227v-302h-79v296c0 105 -51 158 -135 158c-81 0 -154 -53 -154 -181v-273h-79v517h77l1 -87c38 66 101 99 178 99z" />
    <glyph glyph-name="napostrophe" unicode="&#x149;" horiz-adv-x="834" 
d="M113 751c39 0 61 -32 61 -80c0 -66 -36 -129 -97 -176l-30 34c41 34 70 74 72 115v3c-4 -1 -7 -1 -13 -1c-28 0 -49 22 -49 50c0 32 23 55 56 55zM567 529c112 0 191 -77 191 -227v-302h-79v296c0 105 -51 158 -135 158c-81 0 -154 -53 -154 -181v-273h-79v517h77l1 -87
c38 66 101 99 178 99z" />
    <glyph glyph-name="ncaron" unicode="&#x148;" horiz-adv-x="611" 
d="M366 587h-93l-94 153h68l72 -100l71 100h68zM345 529c112 0 191 -77 191 -227v-302h-79v296c0 105 -51 158 -135 158c-81 0 -154 -53 -154 -181v-273h-79v517h77l1 -87c38 66 101 99 178 99z" />
    <glyph glyph-name="uni0146" unicode="&#x146;" horiz-adv-x="611" 
d="M345 529c112 0 191 -77 191 -227v-302h-79v296c0 105 -51 158 -135 158c-81 0 -154 -53 -154 -181v-273h-79v517h77l1 -87c38 66 101 99 178 99zM310 -57c44 0 67 -38 67 -74c0 -52 -31 -104 -116 -101v31c39 0 59 21 61 45c1 6 1 12 0 17c-6 -9 -18 -14 -34 -11
c-20 2 -34 18 -34 40c0 28 18 53 56 53z" />
    <glyph glyph-name="eng" unicode="&#x14b;" horiz-adv-x="609" 
d="M340 529c114 0 194 -78 194 -228v-342c0 -118 -62 -177 -156 -177c-31 0 -57 5 -80 15l19 66c17 -7 35 -11 56 -11c48 0 82 30 82 104v339c0 104 -50 159 -134 159c-82 0 -154 -54 -154 -182v-272h-78v517h75l2 -81c37 61 97 93 174 93z" />
    <glyph glyph-name="ntilde" unicode="&#xf1;" horiz-adv-x="611" 
d="M255 651c-20 0 -30 -11 -41 -45l-54 14c16 67 47 96 87 96c59 0 83 -47 121 -47c22 0 31 11 43 47l53 -15c-17 -67 -47 -97 -87 -97c-60 0 -83 47 -122 47zM345 529c112 0 191 -77 191 -227v-302h-79v296c0 105 -51 158 -135 158c-81 0 -154 -53 -154 -181v-273h-79v517
h77l1 -87c38 66 101 99 178 99z" />
    <glyph glyph-name="o" unicode="o" horiz-adv-x="628" 
d="M315 -12c-143 0 -266 105 -266 270c0 166 122 271 266 271c143 0 264 -104 264 -271c0 -164 -120 -270 -264 -270zM315 60c98 0 183 76 183 199s-83 198 -183 198c-99 0 -185 -75 -185 -199c0 -122 85 -198 185 -198z" />
    <glyph glyph-name="oacute" unicode="&#xf3;" horiz-adv-x="628" 
d="M281 586l73 173l77 -37l-83 -136h-67zM315 -12c-143 0 -266 105 -266 270c0 166 122 271 266 271c143 0 264 -104 264 -271c0 -164 -120 -270 -264 -270zM315 60c98 0 183 76 183 199s-83 198 -183 198c-99 0 -185 -75 -185 -199c0 -122 85 -198 185 -198z" />
    <glyph glyph-name="obreve" unicode="&#x14f;" horiz-adv-x="628" 
d="M314 591c-84 0 -131 52 -137 148h64c5 -56 29 -85 73 -85c45 0 67 29 73 85h64c-6 -96 -54 -148 -137 -148zM315 -12c-143 0 -266 105 -266 270c0 166 122 271 266 271c143 0 264 -104 264 -271c0 -164 -120 -270 -264 -270zM315 60c98 0 183 76 183 199
s-83 198 -183 198c-99 0 -185 -75 -185 -199c0 -122 85 -198 185 -198z" />
    <glyph glyph-name="ocircumflex" unicode="&#xf4;" horiz-adv-x="628" 
d="M314 687l-71 -101h-68l92 153h93l94 -153h-68zM315 529c143 0 264 -104 264 -271c0 -164 -120 -270 -264 -270c-143 0 -266 105 -266 270c0 166 122 271 266 271zM315 60c98 0 183 76 183 199s-83 198 -183 198c-99 0 -185 -75 -185 -199c0 -122 85 -198 185 -198z" />
    <glyph glyph-name="odieresis" unicode="&#xf6;" horiz-adv-x="628" 
d="M218 600c-30 0 -52 22 -52 52c0 29 22 53 52 53c31 0 52 -24 52 -53c0 -30 -21 -52 -52 -52zM409 600c-30 0 -52 22 -52 52c0 29 22 53 52 53c31 0 52 -24 52 -53c0 -30 -21 -52 -52 -52zM315 -12c-143 0 -266 105 -266 270c0 166 122 271 266 271
c143 0 264 -104 264 -271c0 -164 -120 -270 -264 -270zM315 60c98 0 183 76 183 199s-83 198 -183 198c-99 0 -185 -75 -185 -199c0 -122 85 -198 185 -198z" />
    <glyph glyph-name="ograve" unicode="&#xf2;" horiz-adv-x="628" 
d="M280 586l-83 136l77 37l73 -173h-67zM315 -12c-143 0 -266 105 -266 270c0 166 122 271 266 271c143 0 264 -104 264 -271c0 -164 -120 -270 -264 -270zM315 60c98 0 183 76 183 199s-83 198 -183 198c-99 0 -185 -75 -185 -199c0 -122 85 -198 185 -198z" />
    <glyph glyph-name="ohungarumlaut" unicode="&#x151;" horiz-adv-x="628" 
d="M208 586l72 174l66 -31l-70 -143h-68zM353 586l78 168l66 -31l-76 -137h-68zM315 -12c-143 0 -266 105 -266 270c0 166 122 271 266 271c143 0 264 -104 264 -271c0 -164 -120 -270 -264 -270zM315 60c98 0 183 76 183 199s-83 198 -183 198c-99 0 -185 -75 -185 -199
c0 -122 85 -198 185 -198z" />
    <glyph glyph-name="omacron" unicode="&#x14d;" horiz-adv-x="628" 
d="M184 619v67h261v-67h-261zM315 -12c-143 0 -266 105 -266 270c0 166 122 271 266 271c143 0 264 -104 264 -271c0 -164 -120 -270 -264 -270zM315 60c98 0 183 76 183 199s-83 198 -183 198c-99 0 -185 -75 -185 -199c0 -122 85 -198 185 -198z" />
    <glyph glyph-name="oslash" unicode="&#xf8;" horiz-adv-x="628" 
d="M510 446c43 -46 69 -110 69 -188c0 -164 -120 -270 -264 -270c-55 0 -106 15 -150 44l-34 -42l-44 39l33 40c-44 47 -71 111 -71 189c0 166 122 271 266 271c55 0 107 -16 150 -44l32 38l45 -38zM130 258c0 -52 15 -95 41 -128l246 297c-29 19 -64 30 -102 30
c-99 0 -185 -75 -185 -199zM315 60c98 0 183 76 183 199c0 51 -14 94 -38 127l-246 -296c29 -20 64 -30 101 -30z" />
    <glyph glyph-name="oslashacute" unicode="&#x1ff;" horiz-adv-x="628" 
d="M431 722l-83 -136h-67l73 173zM510 446c43 -46 69 -110 69 -188c0 -164 -120 -270 -264 -270c-55 0 -106 15 -150 44l-34 -42l-44 39l33 40c-44 47 -71 111 -71 189c0 166 122 271 266 271c55 0 107 -16 150 -44l32 38l45 -38zM130 258c0 -52 15 -95 41 -128l246 297
c-29 19 -64 30 -102 30c-99 0 -185 -75 -185 -199zM315 60c98 0 183 76 183 199c0 51 -14 94 -38 127l-246 -296c29 -20 64 -30 101 -30z" />
    <glyph glyph-name="otilde" unicode="&#xf5;" horiz-adv-x="628" 
d="M160 620c16 67 47 96 87 96c59 0 83 -47 121 -47c22 0 31 11 43 47l53 -15c-17 -67 -47 -97 -87 -97c-60 0 -83 47 -122 47c-20 0 -30 -11 -41 -45zM315 -12c-143 0 -266 105 -266 270c0 166 122 271 266 271c143 0 264 -104 264 -271c0 -164 -120 -270 -264 -270z
M315 60c98 0 183 76 183 199s-83 198 -183 198c-99 0 -185 -75 -185 -199c0 -122 85 -198 185 -198z" />
    <glyph glyph-name="oe" unicode="&#x153;" horiz-adv-x="1038" 
d="M753 528c151 0 250 -118 237 -293h-410c9 -114 77 -175 181 -175c65 0 112 21 159 75l50 -51c-56 -66 -123 -96 -212 -96c-99 0 -177 42 -221 118c-47 -74 -130 -118 -222 -118c-143 0 -266 105 -266 270c0 166 122 271 266 271c93 0 176 -44 223 -120
c45 74 123 119 215 119zM753 458c-92 0 -158 -63 -171 -158h328c-8 99 -68 158 -157 158zM315 60c98 0 183 76 183 199c0 122 -82 197 -183 197c-99 0 -185 -75 -185 -198c0 -122 85 -198 185 -198z" />
    <glyph glyph-name="p" unicode="p" horiz-adv-x="658" 
d="M364 529c151 0 245 -119 245 -270c0 -152 -101 -271 -247 -271c-92 0 -157 41 -194 106v-300h-79v723h77l1 -100c39 68 105 112 197 112zM347 60c102 0 181 79 181 198s-74 199 -176 199c-104 0 -184 -77 -184 -199c0 -121 73 -198 179 -198z" />
    <glyph glyph-name="thorn" unicode="&#xfe;" horiz-adv-x="658" 
d="M364 529c151 0 244 -119 244 -270c0 -152 -101 -271 -246 -271c-92 0 -158 41 -195 106v-300h-78v945h78v-321c38 68 105 111 197 111zM346 60c102 0 181 79 181 198s-73 199 -176 199c-104 0 -184 -77 -184 -199c0 -121 74 -198 179 -198z" />
    <glyph glyph-name="q" unicode="q" horiz-adv-x="658" 
d="M492 517h77v-723h-79v303c-38 -67 -104 -109 -196 -109c-151 0 -245 119 -245 270s101 271 247 271c92 0 157 -41 195 -107zM306 60c105 0 184 76 184 198s-73 198 -178 198c-103 0 -182 -79 -182 -198s74 -198 176 -198z" />
    <glyph glyph-name="r" unicode="r" horiz-adv-x="399" 
d="M167 404c49 99 136 119 206 119v-82c-87 5 -205 -30 -205 -194v-247h-79v517h77z" />
    <glyph glyph-name="racute" unicode="&#x155;" horiz-adv-x="399" 
d="M339 722l-83 -136h-67l73 173zM167 404c49 99 136 119 206 119v-82c-87 5 -205 -30 -205 -194v-247h-79v517h77z" />
    <glyph glyph-name="rcaron" unicode="&#x159;" horiz-adv-x="399" 
d="M274 587h-93l-94 153h68l72 -100l71 100h68zM167 404c49 99 136 119 206 119v-82c-87 5 -205 -30 -205 -194v-247h-79v517h77z" />
    <glyph glyph-name="uni0157" unicode="&#x157;" horiz-adv-x="399" 
d="M167 404c49 99 136 119 206 119v-82c-87 5 -205 -30 -205 -194v-247h-79v517h77zM129 -57c44 0 67 -38 67 -74c0 -52 -31 -104 -116 -101v31c39 0 59 21 61 45c1 6 1 12 0 17c-6 -9 -18 -14 -34 -11c-20 2 -34 18 -34 40c0 28 18 53 56 53z" />
    <glyph glyph-name="s" unicode="s" horiz-adv-x="479" 
d="M242 -10c-103 0 -167 38 -214 87l48 54c48 -48 98 -70 165 -70c68 0 118 25 118 80c0 137 -313 29 -313 234c0 81 72 150 195 150c86 0 149 -30 195 -76l-45 -55c-38 38 -86 61 -148 61c-81 0 -117 -34 -117 -77c0 -128 313 -30 313 -233c0 -97 -88 -155 -197 -155z" />
    <glyph glyph-name="sacute" unicode="&#x15b;" horiz-adv-x="479" 
d="M214 586l73 173l77 -37l-83 -136h-67zM242 -10c-103 0 -167 38 -214 87l48 54c48 -48 98 -70 165 -70c68 0 118 25 118 80c0 137 -313 29 -313 234c0 81 72 150 195 150c86 0 149 -30 195 -76l-45 -55c-38 38 -86 61 -148 61c-81 0 -117 -34 -117 -77
c0 -128 313 -30 313 -233c0 -97 -88 -155 -197 -155z" />
    <glyph glyph-name="scaron" unicode="&#x161;" horiz-adv-x="479" 
d="M299 587h-93l-94 153h68l72 -100l71 100h68zM126 378c0 -128 313 -30 313 -233c0 -97 -88 -155 -197 -155c-103 0 -167 38 -214 87l48 54c48 -48 98 -70 165 -70c68 0 118 25 118 80c0 137 -313 29 -313 234c0 81 72 150 195 150c86 0 149 -30 195 -76l-45 -55
c-38 38 -86 61 -148 61c-81 0 -117 -34 -117 -77z" />
    <glyph glyph-name="scedilla" unicode="&#x15f;" horiz-adv-x="479" 
d="M242 -10c-103 0 -167 38 -214 87l48 54c48 -48 98 -70 165 -70c68 0 118 25 118 80c0 137 -313 29 -313 234c0 81 72 150 195 150c86 0 149 -30 195 -76l-45 -55c-38 38 -86 61 -148 61c-81 0 -117 -34 -117 -77c0 -128 313 -30 313 -233c0 -97 -88 -155 -197 -155z
M156 -206l43 143h87l-65 -143h-65z" />
    <glyph glyph-name="scircumflex" unicode="&#x15d;" horiz-adv-x="479" 
d="M246 687l-71 -101h-68l92 153h93l94 -153h-68zM126 378c0 -128 313 -30 313 -233c0 -97 -88 -155 -197 -155c-103 0 -167 38 -214 87l48 54c48 -48 98 -70 165 -70c68 0 118 25 118 80c0 137 -313 29 -313 234c0 81 72 150 195 150c86 0 149 -30 195 -76l-45 -55
c-38 38 -86 61 -148 61c-81 0 -117 -34 -117 -77z" />
    <glyph glyph-name="uni0219" unicode="&#x219;" horiz-adv-x="479" 
d="M242 -10c-103 0 -167 38 -214 87l48 54c48 -48 98 -70 165 -70c68 0 118 25 118 80c0 137 -313 29 -313 234c0 81 72 150 195 150c86 0 149 -30 195 -76l-45 -55c-38 38 -86 61 -148 61c-81 0 -117 -34 -117 -77c0 -128 313 -30 313 -233c0 -97 -88 -155 -197 -155z
M189 -232v31c39 0 59 21 61 45c1 6 1 12 0 17c-6 -9 -18 -14 -34 -11c-20 2 -34 18 -34 40c0 28 18 53 56 53c44 0 67 -38 67 -74c0 -52 -31 -104 -116 -101z" />
    <glyph glyph-name="germandbls" unicode="&#xdf;" horiz-adv-x="650" 
d="M422 398c120 -53 187 -127 187 -228c0 -112 -85 -181 -191 -181c-66 0 -117 15 -164 47l36 66c38 -30 77 -44 124 -44c62 0 114 38 114 110c0 79 -56 145 -216 213v13c104 59 144 110 144 175c0 64 -57 111 -135 111c-98 0 -154 -65 -154 -178v-502h-78v502
c0 155 86 248 232 248c130 0 216 -73 216 -180c0 -77 -48 -131 -115 -172z" />
    <glyph glyph-name="longs" unicode="&#x17f;" horiz-adv-x="412" 
d="M294 751c52 0 93 -15 128 -42l-36 -60c-26 21 -53 32 -87 32c-61 0 -100 -39 -100 -112v-569h-78v446h-108l19 71h89v49c0 114 64 185 173 185z" />
    <glyph glyph-name="t" unicode="t" horiz-adv-x="442" 
d="M373 97l38 -56c-38 -35 -80 -53 -134 -53c-91 0 -156 49 -156 159v299h-108l19 71h89v149h78v-149h205v-71h-205v-298c0 -60 36 -87 83 -87c37 0 61 11 91 36z" />
    <glyph glyph-name="tbar" unicode="&#x167;" horiz-adv-x="442" 
d="M373 97l38 -56c-38 -35 -80 -53 -134 -53c-91 0 -156 49 -156 159v81h-88v60h88v158h-108l19 71h89v149h78v-149h205v-71h-205v-158h169v-60h-169v-80c0 -60 36 -87 83 -87c37 0 61 11 91 36z" />
    <glyph glyph-name="tcaron" unicode="&#x165;" horiz-adv-x="442" 
d="M345 739l-25 -157h-59l10 157h74zM373 97l38 -56c-38 -35 -80 -53 -134 -53c-91 0 -156 49 -156 159v299h-108l19 71h89v149h78v-149h205v-71h-205v-298c0 -60 36 -87 83 -87c37 0 61 11 91 36z" />
    <glyph glyph-name="uni0163" unicode="&#x163;" horiz-adv-x="442" 
d="M411 41c-38 -35 -80 -53 -134 -53c-91 0 -156 49 -156 159v299h-108l19 71h89v149h78v-149h205v-71h-205v-298c0 -60 36 -87 83 -87c37 0 61 11 91 36zM182 -206l43 143h87l-65 -143h-65z" />
    <glyph glyph-name="uni021B" unicode="&#x21b;" horiz-adv-x="442" 
d="M411 41c-38 -35 -80 -53 -134 -53c-91 0 -156 49 -156 159v299h-108l19 71h89v149h78v-149h205v-71h-205v-298c0 -60 36 -87 83 -87c37 0 61 11 91 36zM265 -57c44 0 67 -38 67 -74c0 -52 -31 -104 -116 -101v31c39 0 59 21 61 45c1 6 1 12 0 17c-6 -9 -18 -14 -34 -11
c-20 2 -34 18 -34 40c0 28 18 53 56 53z" />
    <glyph glyph-name="u" unicode="u" horiz-adv-x="611" 
d="M443 517h79v-517h-77l-1 85c-38 -65 -100 -97 -177 -97c-112 0 -191 77 -191 226v303h79v-297c0 -105 50 -158 135 -158c81 0 153 54 153 182v273z" />
    <glyph glyph-name="uacute" unicode="&#xfa;" horiz-adv-x="611" 
d="M415 722l-83 -136h-67l73 173zM443 517h79v-517h-77l-1 85c-38 -65 -100 -97 -177 -97c-112 0 -191 77 -191 226v303h79v-297c0 -105 50 -158 135 -158c81 0 153 54 153 182v273z" />
    <glyph glyph-name="ubreve" unicode="&#x16d;" horiz-adv-x="611" 
d="M298 591c-84 0 -131 52 -137 148h64c5 -56 29 -85 73 -85c45 0 67 29 73 85h64c-6 -96 -54 -148 -137 -148zM443 517h79v-517h-77l-1 85c-38 -65 -100 -97 -177 -97c-112 0 -191 77 -191 226v303h79v-297c0 -105 50 -158 135 -158c81 0 153 54 153 182v273z" />
    <glyph glyph-name="ucircumflex" unicode="&#xfb;" horiz-adv-x="611" 
d="M297 687l-71 -101h-68l92 153h93l94 -153h-68zM443 517h79v-517h-77l-1 85c-38 -65 -100 -97 -177 -97c-112 0 -191 77 -191 226v303h79v-297c0 -105 50 -158 135 -158c81 0 153 54 153 182v273z" />
    <glyph glyph-name="udieresis" unicode="&#xfc;" horiz-adv-x="611" 
d="M202 600c-30 0 -52 22 -52 52c0 29 22 53 52 53c31 0 52 -24 52 -53c0 -30 -21 -52 -52 -52zM393 600c-30 0 -52 22 -52 52c0 29 22 53 52 53c31 0 52 -24 52 -53c0 -30 -21 -52 -52 -52zM443 517h79v-517h-77l-1 85c-38 -65 -100 -97 -177 -97c-112 0 -191 77 -191 226
v303h79v-297c0 -105 50 -158 135 -158c81 0 153 54 153 182v273z" />
    <glyph glyph-name="ugrave" unicode="&#xf9;" horiz-adv-x="611" 
d="M330 586h-67l-83 136l77 37zM443 517h79v-517h-77l-1 85c-38 -65 -100 -97 -177 -97c-112 0 -191 77 -191 226v303h79v-297c0 -105 50 -158 135 -158c81 0 153 54 153 182v273z" />
    <glyph glyph-name="uhungarumlaut" unicode="&#x171;" horiz-adv-x="611" 
d="M330 729l-70 -143h-68l72 174zM481 723l-76 -137h-68l78 168zM443 517h79v-517h-77l-1 85c-38 -65 -100 -97 -177 -97c-112 0 -191 77 -191 226v303h79v-297c0 -105 50 -158 135 -158c81 0 153 54 153 182v273z" />
    <glyph glyph-name="umacron" unicode="&#x16b;" horiz-adv-x="611" 
d="M429 686v-67h-261v67h261zM443 517h79v-517h-77l-1 85c-38 -65 -100 -97 -177 -97c-112 0 -191 77 -191 226v303h79v-297c0 -105 50 -158 135 -158c81 0 153 54 153 182v273z" />
    <glyph glyph-name="uogonek" unicode="&#x173;" horiz-adv-x="611" 
d="M497 -121c32 0 55 7 79 17v-65c-26 -9 -54 -16 -87 -16c-75 0 -113 30 -113 83c0 39 19 71 69 108l-1 79c-38 -65 -100 -97 -177 -97c-112 0 -191 77 -191 226v303h79v-297c0 -105 50 -158 135 -158c81 0 153 54 153 182v273h79v-517h-16c-53 -34 -65 -58 -65 -82
c0 -25 17 -39 56 -39z" />
    <glyph glyph-name="uring" unicode="&#x16f;" horiz-adv-x="611" 
d="M298 568c-73 0 -126 51 -126 119s54 120 126 120c71 0 125 -52 125 -120c0 -69 -55 -119 -125 -119zM298 755c-40 0 -68 -28 -68 -68c0 -41 28 -68 68 -68c39 0 67 27 67 68c0 40 -28 68 -67 68zM443 517h79v-517h-77l-1 85c-38 -65 -100 -97 -177 -97
c-112 0 -191 77 -191 226v303h79v-297c0 -105 50 -158 135 -158c81 0 153 54 153 182v273z" />
    <glyph glyph-name="utilde" unicode="&#x169;" horiz-adv-x="611" 
d="M239 651c-20 0 -30 -11 -41 -45l-54 14c16 67 47 96 87 96c59 0 83 -47 121 -47c22 0 31 11 43 47l53 -15c-17 -67 -47 -97 -87 -97c-60 0 -83 47 -122 47zM443 517h79v-517h-77l-1 85c-38 -65 -100 -97 -177 -97c-112 0 -191 77 -191 226v303h79v-297
c0 -105 50 -158 135 -158c81 0 153 54 153 182v273z" />
    <glyph glyph-name="v" unicode="v" horiz-adv-x="532" 
d="M438 517h88l-251 -528h-20l-250 528h90l172 -387z" />
    <glyph glyph-name="w" unicode="w" horiz-adv-x="762" 
d="M661 517h86l-199 -528h-20l-147 378l-148 -378h-21l-197 528h87l126 -367l143 370h21l144 -369z" />
    <glyph glyph-name="wacute" unicode="&#x1e83;" horiz-adv-x="762" 
d="M496 722l-83 -136h-67l73 173zM661 517h86l-199 -528h-20l-147 378l-148 -378h-21l-197 528h87l126 -367l143 370h21l144 -369z" />
    <glyph glyph-name="wcircumflex" unicode="&#x175;" horiz-adv-x="762" 
d="M379 687l-71 -101h-68l92 153h93l94 -153h-68zM661 517h86l-199 -528h-20l-147 378l-148 -378h-21l-197 528h87l126 -367l143 370h21l144 -369z" />
    <glyph glyph-name="wdieresis" unicode="&#x1e85;" horiz-adv-x="762" 
d="M283 600c-30 0 -52 22 -52 52c0 29 22 53 52 53c31 0 52 -24 52 -53c0 -30 -21 -52 -52 -52zM474 600c-30 0 -52 22 -52 52c0 29 22 53 52 53c31 0 52 -24 52 -53c0 -30 -21 -52 -52 -52zM661 517h86l-199 -528h-20l-147 378l-148 -378h-21l-197 528h87l126 -367l143 370
h21l144 -369z" />
    <glyph glyph-name="wgrave" unicode="&#x1e81;" horiz-adv-x="762" 
d="M411 586h-67l-83 136l77 37zM661 517h86l-199 -528h-20l-147 378l-148 -378h-21l-197 528h87l126 -367l143 370h21l144 -369z" />
    <glyph glyph-name="x" unicode="x" horiz-adv-x="501" 
d="M497 0h-96l-154 212l-151 -212h-92l198 266l-188 251h97l137 -194l136 194h92l-182 -247z" />
    <glyph glyph-name="y" unicode="y" horiz-adv-x="529" 
d="M434 517h88l-228 -517l-90 -206h-85l106 238l-219 485h89l171 -398z" />
    <glyph glyph-name="yacute" unicode="&#xfd;" horiz-adv-x="529" 
d="M382 722l-83 -136h-67l73 173zM434 517h88l-228 -517l-90 -206h-85l106 238l-219 485h89l171 -398z" />
    <glyph glyph-name="ycircumflex" unicode="&#x177;" horiz-adv-x="529" 
d="M264 687l-71 -101h-68l92 153h93l94 -153h-68zM434 517h88l-228 -517l-90 -206h-85l106 238l-219 485h89l171 -398z" />
    <glyph glyph-name="ydieresis" unicode="&#xff;" horiz-adv-x="529" 
d="M169 600c-30 0 -52 22 -52 52c0 29 22 53 52 53c31 0 52 -24 52 -53c0 -30 -21 -52 -52 -52zM360 600c-30 0 -52 22 -52 52c0 29 22 53 52 53c31 0 52 -24 52 -53c0 -30 -21 -52 -52 -52zM434 517h88l-228 -517l-90 -206h-85l106 238l-219 485h89l171 -398z" />
    <glyph glyph-name="ygrave" unicode="&#x1ef3;" horiz-adv-x="529" 
d="M297 586h-67l-83 136l77 37zM434 517h88l-228 -517l-90 -206h-85l106 238l-219 485h89l171 -398z" />
    <glyph glyph-name="z" unicode="z" horiz-adv-x="478" 
d="M439 517v-21l-280 -426h274v-70h-395v20l279 426h-275l15 71h382z" />
    <glyph glyph-name="zacute" unicode="&#x17a;" horiz-adv-x="478" 
d="M355 722l-83 -136h-67l73 173zM439 517v-21l-280 -426h274v-70h-395v20l279 426h-275l15 71h382z" />
    <glyph glyph-name="zcaron" unicode="&#x17e;" horiz-adv-x="478" 
d="M290 587h-93l-94 153h68l72 -100l71 100h68zM439 517v-21l-280 -426h274v-70h-395v20l279 426h-275l15 71h382z" />
    <glyph glyph-name="zdotaccent" unicode="&#x17c;" horiz-adv-x="478" 
d="M236 596c-32 0 -57 25 -57 56c0 32 25 55 57 55c34 0 60 -24 60 -55s-26 -56 -60 -56zM439 517v-21l-280 -426h274v-70h-395v20l279 426h-275l15 71h382z" />
    <glyph glyph-name="f.calt" horiz-adv-x="370" 
d="M286 682c-66 0 -98 -43 -98 -111v-54h148v-71h-148v-446h-78v446h-97l19 71h78v51c0 113 63 183 169 183c30 0 53 -4 71 -10l-7 -68c-15 5 -34 9 -57 9z" />
    <glyph glyph-name="j.calt" horiz-adv-x="257" 
d="M128 640c-32 0 -55 24 -55 54c0 31 23 53 55 53c34 0 58 -22 58 -53c0 -30 -24 -54 -58 -54zM21 -218v70c43 4 69 25 69 88v577h78v-573c0 -112 -59 -161 -147 -162z" />
    <glyph glyph-name="uni0237.calt" horiz-adv-x="257" 
d="M21 -148c43 4 69 25 69 88v577h78v-573c0 -112 -59 -161 -147 -162v70z" />
    <glyph glyph-name="a.ss01" horiz-adv-x="647" 
d="M479 517h79v-517h-77l-1 97c-38 -67 -103 -109 -192 -109c-148 0 -239 119 -239 270c0 152 99 271 241 271c89 0 152 -40 189 -103v91zM300 61c103 0 179 76 179 197c0 122 -70 199 -173 199c-100 0 -177 -80 -177 -199c0 -118 71 -197 171 -197z" />
    <glyph glyph-name="aacute.ss01" horiz-adv-x="647" 
d="M438 722l-83 -136h-67l73 173zM479 517h79v-517h-77l-1 97c-38 -67 -103 -109 -192 -109c-148 0 -239 119 -239 270c0 152 99 271 241 271c89 0 152 -40 189 -103v91zM300 61c103 0 179 76 179 197c0 122 -70 199 -173 199c-100 0 -177 -80 -177 -199
c0 -118 71 -197 171 -197z" />
    <glyph glyph-name="abreve.ss01" horiz-adv-x="647" 
d="M321 591c-84 0 -131 52 -137 148h64c5 -56 29 -85 73 -85c45 0 67 29 73 85h64c-6 -96 -54 -148 -137 -148zM479 517h79v-517h-77l-1 97c-38 -67 -103 -109 -192 -109c-148 0 -239 119 -239 270c0 152 99 271 241 271c89 0 152 -40 189 -103v91zM300 61
c103 0 179 76 179 197c0 122 -70 199 -173 199c-100 0 -177 -80 -177 -199c0 -118 71 -197 171 -197z" />
    <glyph glyph-name="acircumflex.ss01" horiz-adv-x="647" 
d="M320 687l-71 -101h-68l92 153h93l94 -153h-68zM479 517h79v-517h-77l-1 97c-38 -67 -103 -109 -192 -109c-148 0 -239 119 -239 270c0 152 99 271 241 271c89 0 152 -40 189 -103v91zM300 61c103 0 179 76 179 197c0 122 -70 199 -173 199c-100 0 -177 -80 -177 -199
c0 -118 71 -197 171 -197z" />
    <glyph glyph-name="adieresis.ss01" horiz-adv-x="647" 
d="M225 600c-30 0 -52 22 -52 52c0 29 22 53 52 53c31 0 52 -24 52 -53c0 -30 -21 -52 -52 -52zM416 600c-30 0 -52 22 -52 52c0 29 22 53 52 53c31 0 52 -24 52 -53c0 -30 -21 -52 -52 -52zM479 517h79v-517h-77l-1 97c-38 -67 -103 -109 -192 -109
c-148 0 -239 119 -239 270c0 152 99 271 241 271c89 0 152 -40 189 -103v91zM300 61c103 0 179 76 179 197c0 122 -70 199 -173 199c-100 0 -177 -80 -177 -199c0 -118 71 -197 171 -197z" />
    <glyph glyph-name="agrave.ss01" horiz-adv-x="647" 
d="M353 586h-67l-83 136l77 37zM479 517h79v-517h-77l-1 97c-38 -67 -103 -109 -192 -109c-148 0 -239 119 -239 270c0 152 99 271 241 271c89 0 152 -40 189 -103v91zM300 61c103 0 179 76 179 197c0 122 -70 199 -173 199c-100 0 -177 -80 -177 -199
c0 -118 71 -197 171 -197z" />
    <glyph glyph-name="amacron.ss01" horiz-adv-x="647" 
d="M451 686v-67h-261v67h261zM479 517h79v-517h-77l-1 97c-38 -67 -103 -109 -192 -109c-148 0 -239 119 -239 270c0 152 99 271 241 271c89 0 152 -40 189 -103v91zM300 61c103 0 179 76 179 197c0 122 -70 199 -173 199c-100 0 -177 -80 -177 -199
c0 -118 71 -197 171 -197z" />
    <glyph glyph-name="aogonek.ss01" horiz-adv-x="647" 
d="M532 -121c32 0 55 7 79 17v-65c-26 -9 -54 -16 -87 -16c-75 0 -113 30 -113 83c0 39 20 71 70 109l-1 90c-38 -67 -103 -109 -192 -109c-148 0 -239 119 -239 270c0 152 99 271 241 271c89 0 152 -40 189 -103v91h79v-517h-17c-53 -34 -65 -58 -65 -82
c0 -25 17 -39 56 -39zM300 61c103 0 179 76 179 197c0 122 -70 199 -173 199c-100 0 -177 -80 -177 -199c0 -118 71 -197 171 -197z" />
    <glyph glyph-name="aring.ss01" horiz-adv-x="647" 
d="M321 568c-73 0 -126 51 -126 119s54 120 126 120c71 0 125 -52 125 -120c0 -69 -55 -119 -125 -119zM321 755c-40 0 -68 -28 -68 -68c0 -41 28 -68 68 -68c39 0 67 27 67 68c0 40 -28 68 -67 68zM479 517h79v-517h-77l-1 97c-38 -67 -103 -109 -192 -109
c-148 0 -239 119 -239 270c0 152 99 271 241 271c89 0 152 -40 189 -103v91zM300 61c103 0 179 76 179 197c0 122 -70 199 -173 199c-100 0 -177 -80 -177 -199c0 -118 71 -197 171 -197z" />
    <glyph glyph-name="atilde.ss01" horiz-adv-x="647" 
d="M262 651c-20 0 -30 -11 -41 -45l-54 14c16 67 47 96 87 96c59 0 83 -47 121 -47c22 0 31 11 43 47l53 -15c-17 -67 -47 -97 -87 -97c-60 0 -83 47 -122 47zM479 517h79v-517h-77l-1 97c-38 -67 -103 -109 -192 -109c-148 0 -239 119 -239 270c0 152 99 271 241 271
c89 0 152 -40 189 -103v91zM300 61c103 0 179 76 179 197c0 122 -70 199 -173 199c-100 0 -177 -80 -177 -199c0 -118 71 -197 171 -197z" />
    <glyph glyph-name="i.ss05" horiz-adv-x="257" 
d="M128 624l-66 66l66 67l67 -66zM89 0v517h79v-517h-79z" />
    <glyph glyph-name="ij.ss05" horiz-adv-x="514" 
d="M128 624l-66 66l66 67l67 -66zM385 624l-66 66l66 67l67 -66zM89 0v517h79v-517h-79zM190 -204l19 67c17 -7 35 -11 55 -11c49 0 83 30 83 104v561h78v-558c0 -118 -62 -177 -156 -177c-30 0 -56 5 -79 14z" />
    <glyph glyph-name="j.ss05" horiz-adv-x="257" 
d="M128 624l-66 66l66 67l67 -66zM-67 -204l19 67c17 -7 35 -11 55 -11c49 0 83 30 83 104v561h78v-558c0 -118 -62 -177 -156 -177c-30 0 -56 5 -79 14z" />
    <glyph glyph-name="fi" unicode="&#xfb01;" horiz-adv-x="627" 
d="M110 568c0 113 63 183 169 183c30 0 53 -4 71 -10l-7 -68c-15 5 -34 9 -57 9c-66 0 -98 -43 -98 -111v-54h148v-71h-148v-446h-78v446h-97l19 71h78v51zM498 747c34 0 58 -22 58 -53c0 -30 -24 -54 -58 -54c-32 0 -55 24 -55 54c0 31 23 53 55 53zM459 0v517h79v-517h-79
z" />
    <glyph glyph-name="fl" unicode="&#xfb02;" horiz-adv-x="627" 
d="M110 568c0 113 63 183 169 183c30 0 53 -4 71 -10l-7 -68c-15 5 -34 9 -57 9c-66 0 -98 -43 -98 -111v-54h148v-71h-148v-446h-78v446h-97l19 71h78v51zM459 739h79v-739h-79v739z" />
    <glyph glyph-name="f_f_i.ss05" horiz-adv-x="997" 
d="M935 691l-66 -67l-67 66l67 67zM110 568c0 113 63 183 169 183c30 0 53 -4 71 -10l-7 -68c-15 5 -34 9 -57 9c-66 0 -98 -43 -98 -111v-54h148v-71h-148v-446h-78v446h-97l19 71h78v51zM480 568c0 113 63 183 169 183c30 0 53 -4 71 -10l-7 -68c-15 5 -34 9 -57 9
c-66 0 -98 -43 -98 -111v-54h148v-71h-148v-446h-78v446h-97l19 71h78v51zM829 0v517h79v-517h-79z" />
    <glyph glyph-name="f_i.ss05" horiz-adv-x="627" 
d="M565 691l-67 -67l-66 66l66 67zM110 568c0 113 63 183 169 183c30 0 53 -4 71 -10l-7 -68c-15 5 -34 9 -57 9c-66 0 -98 -43 -98 -111v-54h148v-71h-148v-446h-78v446h-97l19 71h78v51zM459 0v517h79v-517h-79z" />
    <glyph glyph-name="fi.ss05" horiz-adv-x="627" 
d="M565 691l-67 -67l-66 66l66 67zM110 568c0 113 63 183 169 183c30 0 53 -4 71 -10l-7 -68c-15 5 -34 9 -57 9c-66 0 -98 -43 -98 -111v-54h148v-71h-148v-446h-78v446h-97l19 71h78v51zM459 0v517h79v-517h-79z" />
    <glyph glyph-name="ordfeminine" unicode="&#xaa;" horiz-adv-x="422" 
d="M369 373h-61c-4 20 -6 39 -8 57c-26 -41 -70 -64 -128 -64c-80 0 -134 41 -134 111c0 69 60 115 166 115c37 0 69 -6 94 -12v23c-1 54 -39 85 -100 85c-48 0 -83 -15 -111 -36l-28 51c37 25 84 42 142 42c98 0 160 -52 160 -142v-123c0 -37 3 -73 8 -107zM186 419
c65 0 111 37 111 96l1 -1v19c-24 7 -51 11 -87 11c-75 0 -108 -27 -108 -66c0 -35 31 -59 83 -59z" />
    <glyph glyph-name="ordmasculine" unicode="&#xba;" horiz-adv-x="475" 
d="M238 366c-101 0 -189 73 -189 191c0 119 88 190 190 190c100 0 187 -70 187 -190c0 -118 -87 -191 -188 -191zM238 427c64 0 119 50 119 130c0 81 -54 131 -118 131s-120 -50 -120 -131c0 -80 55 -130 119 -130z" />
    <glyph glyph-name="i.sups.ss05" horiz-adv-x="207" 
d="M103 814l-47 47l47 48l47 -48zM70 373v364h67v-364h-67z" />
    <glyph glyph-name="j.sups.ss05" horiz-adv-x="206" 
d="M102 814l-47 47l47 48l48 -48zM17 220c-25 0 -45 4 -63 11l17 55c12 -5 26 -8 39 -8c36 0 60 20 60 70v389h67v-387c0 -86 -49 -130 -120 -130z" />
    <glyph glyph-name="a.sups" horiz-adv-x="422" 
d="M369 373h-61c-4 20 -6 39 -8 57c-26 -41 -70 -64 -128 -64c-80 0 -134 41 -134 111c0 69 60 115 166 115c37 0 69 -6 94 -12v23c-1 54 -39 85 -100 85c-48 0 -83 -15 -111 -36l-28 51c37 25 84 42 142 42c98 0 160 -52 160 -142v-123c0 -37 3 -73 8 -107zM186 419
c65 0 111 37 111 96l1 -1v19c-24 7 -51 11 -87 11c-75 0 -108 -27 -108 -66c0 -35 31 -59 83 -59z" />
    <glyph glyph-name="b.sups" horiz-adv-x="503" 
d="M280 746c112 0 181 -85 181 -191s-75 -191 -182 -191c-67 0 -115 29 -143 76l-2 -67h-64v517h67v-221c28 47 77 77 143 77zM263 425c74 0 130 51 130 130c0 80 -53 131 -126 131c-72 0 -130 -50 -130 -131s53 -130 126 -130z" />
    <glyph glyph-name="c.sups" horiz-adv-x="413" 
d="M233 366c-109 0 -191 71 -191 190c0 110 84 188 197 188c54 0 100 -16 135 -51l-37 -48c-26 26 -57 39 -96 39c-74 0 -131 -53 -131 -129c0 -84 59 -129 127 -129c39 0 71 12 103 42l37 -46c-39 -38 -85 -56 -144 -56z" />
    <glyph glyph-name="d.sups" horiz-adv-x="502" 
d="M365 890h66v-517h-64l-1 68c-29 -47 -77 -77 -143 -77c-112 0 -181 85 -181 191s75 191 182 191c66 0 113 -28 141 -73v217zM235 424c73 0 130 50 130 131c0 82 -53 131 -126 131c-72 0 -129 -52 -129 -131s53 -131 125 -131z" />
    <glyph glyph-name="e.sups" horiz-adv-x="450" 
d="M410 558v-19h-299c7 -74 54 -115 129 -115c46 0 81 13 117 47l38 -43c-43 -45 -94 -64 -160 -64c-115 0 -193 73 -193 192c0 114 85 190 189 190c106 0 179 -71 179 -188zM231 690c-62 0 -108 -42 -119 -103h230c-7 61 -47 103 -111 103z" />
    <glyph glyph-name="f.sups" horiz-adv-x="322" 
d="M161 770v-33h138v-58h-138v-306h-66v306h-79l15 58h64v30c0 81 49 132 132 132c36 0 68 -10 95 -29l-29 -49c-18 14 -37 21 -62 21c-42 0 -70 -26 -70 -72z" />
    <glyph glyph-name="g.sups" horiz-adv-x="490" 
d="M355 737h64v-342c0 -121 -79 -174 -190 -174c-49 0 -90 10 -125 26l21 57c29 -14 64 -23 103 -23c76 0 125 32 125 111v53c-28 -44 -74 -72 -135 -72c-109 0 -176 83 -176 186c0 105 73 187 177 187c62 0 108 -28 135 -72zM229 431c70 0 124 50 124 128
c0 80 -50 127 -119 127c-70 0 -124 -50 -124 -127c0 -76 50 -128 119 -128z" />
    <glyph glyph-name="h.sups" horiz-adv-x="473" 
d="M270 746c84 0 142 -55 142 -159v-214h-66v207c0 68 -36 104 -98 104c-59 0 -111 -36 -111 -119v-192h-67v517h67v-211c29 45 76 67 133 67z" />
    <glyph glyph-name="i.sups" horiz-adv-x="207" 
d="M103 819c-25 0 -45 17 -45 41s20 42 45 42c26 0 46 -18 46 -42s-20 -41 -46 -41zM70 373v364h67v-364h-67z" />
    <glyph glyph-name="j.sups" horiz-adv-x="206" 
d="M102 819c-25 0 -44 17 -44 41s19 42 44 42c27 0 46 -18 46 -42s-19 -41 -46 -41zM17 220c-25 0 -45 4 -63 11l17 55c12 -5 26 -8 39 -8c36 0 60 20 60 70v389h67v-387c0 -86 -49 -130 -120 -130z" />
    <glyph glyph-name="k.sups" horiz-adv-x="387" 
d="M379 373h-85l-157 185v-185h-67v517h67v-321l158 168h82l-168 -170z" />
    <glyph glyph-name="l.sups" horiz-adv-x="208" 
d="M70 373v517h67v-517h-67z" />
    <glyph glyph-name="m.sups" horiz-adv-x="717" 
d="M521 746c81 0 136 -53 136 -153v-220h-67v213c0 64 -34 98 -89 98c-56 0 -104 -34 -104 -112v-199h-67v213c0 64 -34 98 -89 98c-56 0 -104 -35 -104 -113v-198h-67v364h64l2 -56c26 42 71 65 125 65c57 0 102 -27 123 -78c25 48 73 78 137 78z" />
    <glyph glyph-name="n.sups" horiz-adv-x="468" 
d="M268 746c82 0 140 -55 140 -159v-214h-66v207c0 68 -35 104 -97 104c-57 0 -108 -36 -108 -119v-192h-67v364h64l2 -60c29 47 75 69 132 69z" />
    <glyph glyph-name="uni207F" unicode="&#x207f;" horiz-adv-x="468" 
d="M268 746c82 0 140 -55 140 -159v-214h-66v207c0 68 -35 104 -97 104c-57 0 -108 -36 -108 -119v-192h-67v364h64l2 -60c29 47 75 69 132 69z" />
    <glyph glyph-name="o.sups" horiz-adv-x="479" 
d="M240 364c-106 0 -198 73 -198 191c0 119 92 191 198 191s197 -72 197 -191c0 -117 -90 -191 -197 -191zM240 424c68 0 129 50 129 131c0 82 -58 131 -129 131c-70 0 -130 -49 -130 -131c0 -81 60 -131 130 -131z" />
    <glyph glyph-name="p.sups" horiz-adv-x="503" 
d="M280 746c112 0 181 -85 181 -191s-75 -191 -182 -191c-67 0 -114 29 -142 75v-210h-67v508h64l2 -70c29 48 78 79 144 79zM263 425c74 0 130 51 130 130c0 80 -53 131 -126 131c-72 0 -130 -50 -130 -131s53 -130 126 -130z" />
    <glyph glyph-name="q.sups" horiz-adv-x="503" 
d="M368 737h64v-508h-67v211c-29 -47 -77 -76 -142 -76c-112 0 -181 85 -181 191s75 191 182 191c66 0 114 -29 142 -75zM235 424c73 0 130 50 130 131c0 82 -53 131 -126 131c-72 0 -129 -52 -129 -131s53 -131 125 -131z" />
    <glyph glyph-name="r.sups" horiz-adv-x="312" 
d="M136 657c35 67 96 84 150 84v-67c-65 3 -149 -21 -149 -125v-176h-67v364h64z" />
    <glyph glyph-name="s.sups" horiz-adv-x="367" 
d="M186 366c-78 0 -125 26 -161 62l38 44c36 -34 73 -50 122 -50c47 0 81 17 81 51c0 89 -227 22 -227 162c0 62 57 109 146 109c65 0 112 -22 146 -53l-36 -45c-28 26 -61 42 -107 42c-56 0 -81 -22 -81 -49c0 -82 227 -22 227 -162c0 -70 -68 -111 -148 -111z" />
    <glyph glyph-name="t.sups" horiz-adv-x="343" 
d="M288 448l28 -49c-29 -22 -62 -35 -101 -35c-69 0 -120 35 -120 119v196h-79l15 58h64v102h66v-102h148v-58h-148v-195c0 -39 25 -59 61 -59c26 0 45 8 66 23z" />
    <glyph glyph-name="u.sups" horiz-adv-x="468" 
d="M332 739h66v-363h-64l-1 61c-28 -46 -74 -70 -133 -70c-82 0 -139 54 -139 158v214h67v-206c0 -69 34 -104 95 -104c57 0 109 35 109 119v191z" />
    <glyph glyph-name="v.sups" horiz-adv-x="411" 
d="M327 737h76l-190 -370h-15l-189 370h77l121 -253z" />
    <glyph glyph-name="w.sups" horiz-adv-x="581" 
d="M493 737h72l-152 -370h-15l-108 251l-109 -251h-14l-151 370h73l90 -239l105 241h15l105 -241z" />
    <glyph glyph-name="x.sups" horiz-adv-x="390" 
d="M382 373h-82l-108 143l-107 -143h-77l146 188l-139 176h81l98 -130l95 130h77l-134 -173z" />
    <glyph glyph-name="y.sups" horiz-adv-x="407" 
d="M324 737h74l-170 -364l-66 -144h-71l79 172l-161 336h75l122 -267z" />
    <glyph glyph-name="z.sups" horiz-adv-x="366" 
d="M335 737v-13l-201 -292h196v-59h-298v14l200 292h-199l13 58h289z" />
    <glyph glyph-name="uni0394" unicode="&#x394;" horiz-adv-x="664" 
d="M338 745l318 -745h-648l317 745h13zM127 75h408l-204 508z" />
    <glyph glyph-name="uni03A9" unicode="&#x3a9;" horiz-adv-x="807" 
d="M565 79h184v-79h-291v67c120 96 193 209 193 345c0 153 -99 255 -247 255c-150 0 -247 -102 -247 -255c0 -136 72 -249 192 -345v-67h-291v79h184c-113 93 -172 209 -172 337c0 204 145 332 334 332s333 -128 333 -332c0 -128 -59 -244 -172 -337z" />
    <glyph glyph-name="uni03BC" unicode="&#x3bc;" horiz-adv-x="636" 
d="M470 515h77v-515h-71l-4 100c-30 -75 -92 -111 -161 -111c-60 0 -114 27 -146 83v-278h-76v721h78v-273c0 -123 68 -181 150 -181s153 56 153 184v270z" />
    <glyph glyph-name="pi" unicode="&#x3c0;" horiz-adv-x="705" 
d="M672 446h-141v-299c0 -54 22 -84 70 -84c22 0 38 4 54 11l17 -66c-23 -11 -47 -17 -77 -17c-87 0 -143 45 -143 155v300h-231v-446h-79v446h-129l19 71h640v-71z" />
    <glyph glyph-name="uni2099" unicode="&#x2099;" horiz-adv-x="468" 
d="M268 273c82 0 140 -54 140 -158v-214h-66v206c0 69 -35 105 -97 105c-57 0 -108 -36 -108 -120v-191h-67v364h64l2 -60c29 46 75 68 132 68z" />
    <glyph glyph-name="zero" unicode="0" horiz-adv-x="748" 
d="M375 -10c-190 0 -306 163 -306 379s116 380 306 380c188 0 304 -164 304 -380s-116 -379 -304 -379zM375 68c132 0 219 120 219 301s-87 302 -219 302c-133 0 -220 -121 -220 -302s87 -301 220 -301z" />
    <glyph glyph-name="one" unicode="1" horiz-adv-x="449" 
d="M319 742h15v-742h-83v615l-176 -102l-33 68z" />
    <glyph glyph-name="two" unicode="2" horiz-adv-x="644" 
d="M230 78h356v-78h-517v14l245 266c110 116 146 165 146 244c0 78 -59 146 -163 146c-87 0 -150 -42 -194 -109l-63 47c56 87 144 141 259 141c166 0 248 -109 248 -220c0 -105 -51 -172 -178 -305z" />
    <glyph glyph-name="three" unicode="3" horiz-adv-x="646" 
d="M336 453c133 -4 235 -86 235 -229c0 -112 -84 -230 -260 -230c-124 0 -211 53 -269 131l57 54c49 -62 116 -107 209 -107c117 0 180 75 180 155c0 136 -121 178 -261 151l-18 38l221 246h-376v77h512v-33z" />
    <glyph glyph-name="four" unicode="4" horiz-adv-x="706" 
d="M664 232v-77h-137v-155h-82v155h-436v13l437 571h81v-507h137zM150 232h295v385z" />
    <glyph glyph-name="five" unicode="5" horiz-adv-x="619" 
d="M304 475c164 0 257 -101 257 -239c0 -135 -102 -245 -267 -245c-112 0 -190 43 -246 97l48 64c49 -47 104 -83 196 -83c104 0 184 62 184 162c0 101 -72 169 -187 169c-85 0 -146 -24 -201 -60l-8 6v393h440v-77h-360v-217c44 20 91 30 144 30z" />
    <glyph glyph-name="six" unicode="6" horiz-adv-x="635" 
d="M337 490c143 0 249 -108 249 -251c0 -141 -105 -248 -268 -248c-164 0 -269 105 -269 248c0 72 26 136 72 195l240 305h107l-217 -264c25 10 53 15 86 15zM318 69c110 0 182 73 182 170c0 102 -72 176 -182 176c-117 0 -183 -77 -183 -178c0 -97 70 -168 183 -168z" />
    <glyph glyph-name="seven" unicode="7" horiz-adv-x="559" 
d="M42 739h508v-13l-306 -726h-92l286 662h-396v77z" />
    <glyph glyph-name="eight" unicode="8" horiz-adv-x="679" 
d="M476 388c75 -25 134 -95 134 -182c0 -131 -103 -216 -270 -216s-271 85 -271 216c0 87 59 157 134 182c-61 27 -104 87 -104 165c0 112 92 196 241 196s241 -84 241 -196c0 -78 -44 -138 -105 -165zM340 674c-99 0 -157 -57 -157 -127c0 -72 54 -126 157 -126
c102 0 157 54 157 126c0 70 -58 127 -157 127zM340 65c118 0 185 56 185 143c0 77 -67 141 -185 141c-119 0 -185 -64 -185 -141c0 -87 67 -143 185 -143z" />
    <glyph glyph-name="nine" unicode="9" horiz-adv-x="635" 
d="M316 748c165 0 270 -105 270 -248c0 -72 -26 -136 -72 -195l-241 -305h-106l217 264c-25 -10 -53 -15 -86 -15c-143 0 -249 108 -249 251c0 141 105 248 267 248zM316 324c117 0 184 77 184 178c0 97 -71 168 -184 168c-110 0 -182 -73 -182 -170
c0 -102 72 -176 182 -176z" />
    <glyph glyph-name="uni2780" unicode="&#x2780;" 
d="M535 -104c-262 0 -475 190 -475 473c0 284 213 474 475 474s475 -191 475 -474s-213 -473 -475 -473zM535 -33c220 0 402 158 402 402s-182 402 -402 402s-402 -158 -402 -402s182 -402 402 -402zM520 146v344l-113 -58l-28 60l203 103h12v-449h-74z" />
    <glyph glyph-name="uni2781" unicode="&#x2781;" 
d="M535 -104c-262 0 -475 190 -475 473c0 284 213 474 475 474s475 -191 475 -474s-213 -473 -475 -473zM535 -33c220 0 402 158 402 402s-182 402 -402 402s-402 -158 -402 -402s182 -402 402 -402zM506 214h213v-69h-356v12l164 161c70 68 91 96 91 136
c0 41 -35 74 -97 74c-53 0 -93 -26 -121 -65l-52 44c38 54 99 89 178 89c117 0 168 -68 168 -137c0 -63 -33 -109 -116 -182z" />
    <glyph glyph-name="uni2782" unicode="&#x2782;" 
d="M535 -104c-262 0 -475 190 -475 473c0 284 213 474 475 474s475 -191 475 -474s-213 -473 -475 -473zM535 -33c220 0 402 158 402 402s-182 402 -402 402s-402 -158 -402 -402s182 -402 402 -402zM537 143c-85 0 -143 30 -183 78l47 50c31 -37 72 -61 133 -61
c69 0 106 36 106 83c0 71 -77 92 -161 75l-14 28l126 128h-227v69h352v-19l-148 -152c85 -3 147 -51 147 -133c0 -76 -58 -146 -178 -146z" />
    <glyph glyph-name="uni2783" unicode="&#x2783;" 
d="M535 -104c-262 0 -475 190 -475 473c0 284 213 474 475 474s475 -191 475 -474s-213 -473 -475 -473zM535 -33c220 0 402 158 402 402s-182 402 -402 402s-402 -158 -402 -402s182 -402 402 -402zM740 297v-62h-87v-88h-71v88h-292v9l290 347h73v-294h87zM409 297h173
v198z" />
    <glyph glyph-name="uni2784" unicode="&#x2784;" 
d="M535 -104c-262 0 -475 190 -475 473c0 284 213 474 475 474s475 -191 475 -474s-213 -473 -475 -473zM535 -33c220 0 402 158 402 402s-182 402 -402 402s-402 -158 -402 -402s182 -402 402 -402zM542 435c111 0 172 -62 172 -141c0 -78 -67 -152 -185 -152
c-76 0 -128 26 -167 63l41 52c32 -29 67 -48 125 -48c64 0 111 31 111 82c0 48 -42 85 -118 85c-54 0 -93 -14 -127 -31l-9 4v245h299v-66h-229v-111c26 13 54 18 87 18z" />
    <glyph glyph-name="uni2785" unicode="&#x2785;" 
d="M535 -104c-262 0 -475 190 -475 473c0 284 213 474 475 474s475 -191 475 -474s-213 -473 -475 -473zM535 -33c220 0 402 158 402 402s-182 402 -402 402s-402 -158 -402 -402s182 -402 402 -402zM545 445c98 0 168 -61 168 -150c0 -87 -73 -153 -185 -153
c-115 0 -187 65 -187 154c0 45 18 85 51 125l150 173h95l-150 -160c17 7 36 11 58 11zM528 209c65 0 109 37 109 86c0 52 -44 89 -109 89c-71 0 -111 -37 -111 -89c0 -49 43 -86 111 -86z" />
    <glyph glyph-name="uni2786" unicode="&#x2786;" 
d="M535 -104c-262 0 -475 190 -475 473c0 284 213 474 475 474s475 -191 475 -474s-213 -473 -475 -473zM535 -33c220 0 402 158 402 402s-182 402 -402 402s-402 -158 -402 -402s182 -402 402 -402zM362 591h351v-11l-200 -433h-82l184 376h-253v68z" />
    <glyph glyph-name="uni2787" unicode="&#x2787;" 
d="M535 -104c-262 0 -475 190 -475 473c0 284 213 474 475 474s475 -191 475 -474s-213 -473 -475 -473zM535 -33c220 0 402 158 402 402s-182 402 -402 402s-402 -158 -402 -402s182 -402 402 -402zM536 140c-115 0 -190 52 -190 135c0 51 40 90 94 105
c-45 15 -75 50 -75 98c0 69 65 120 171 120c105 0 170 -51 170 -120c0 -48 -29 -83 -75 -98c55 -15 93 -54 93 -105c0 -83 -74 -135 -188 -135zM536 402c61 0 95 27 95 67c0 38 -35 69 -95 69c-61 0 -96 -31 -96 -69c0 -40 33 -67 96 -67zM536 202c71 0 113 29 113 75
c0 43 -41 75 -113 75c-74 0 -115 -32 -115 -75c0 -46 43 -75 115 -75z" />
    <glyph glyph-name="uni2788" unicode="&#x2788;" 
d="M535 -104c-262 0 -475 190 -475 473c0 284 213 474 475 474s475 -191 475 -474s-213 -473 -475 -473zM535 -33c220 0 402 158 402 402s-182 402 -402 402s-402 -158 -402 -402s182 -402 402 -402zM425 145l150 159c-17 -7 -36 -10 -59 -10c-97 0 -166 60 -166 149
c0 87 72 154 185 154c114 0 186 -65 186 -155c0 -44 -17 -85 -51 -124l-149 -173h-96zM535 354c70 0 110 38 110 90c0 49 -43 85 -110 85c-66 0 -110 -36 -110 -86c0 -52 44 -89 110 -89z" />
    <glyph glyph-name="uni278A" unicode="&#x278a;" 
d="M535 -104c-262 0 -475 190 -475 473c0 284 213 474 475 474s475 -191 475 -474s-213 -473 -475 -473zM514 145h83v450h-13l-210 -103l31 -67l109 54v-334z" />
    <glyph glyph-name="uni278B" unicode="&#x278b;" 
d="M535 -104c-262 0 -475 190 -475 473c0 284 213 474 475 474s475 -191 475 -474s-213 -473 -475 -473zM360 145h359v76h-201l62 55c81 70 115 119 115 182c0 69 -50 138 -169 138c-80 0 -142 -36 -180 -89l57 -50c27 39 66 64 117 64c58 0 90 -31 90 -69
c0 -37 -19 -64 -88 -133l-162 -161v-13z" />
    <glyph glyph-name="uni278C" unicode="&#x278c;" 
d="M535 -104c-262 0 -475 190 -475 473c0 284 213 474 475 474s475 -191 475 -474s-213 -473 -475 -473zM537 142c120 0 180 70 180 147c0 82 -60 130 -143 135l144 147v22h-356v-76h218l-120 -123l15 -30c81 19 158 -1 158 -69c0 -45 -36 -78 -100 -78
c-60 0 -99 23 -129 59l-52 -56c41 -48 99 -78 185 -78z" />
    <glyph glyph-name="uni278D" unicode="&#x278d;" 
d="M535 -104c-262 0 -475 190 -475 473c0 284 213 474 475 474s475 -191 475 -474s-213 -473 -475 -473zM578 147h78v84h86v69h-86v291h-81l-288 -349v-11h291v-84zM418 300l160 186v-186h-160z" />
    <glyph glyph-name="uni278E" unicode="&#x278e;" 
d="M535 -104c-262 0 -475 190 -475 473c0 284 213 474 475 474s475 -191 475 -474s-213 -473 -475 -473zM529 141c121 0 187 75 187 153s-59 142 -173 142c-30 0 -56 -6 -80 -17v102h224v72h-301v-247l8 -5c34 16 73 30 126 30c73 0 113 -35 113 -80c0 -47 -44 -75 -105 -75
c-56 0 -89 19 -121 46l-45 -58c39 -37 92 -63 167 -63z" />
    <glyph glyph-name="uni278F" unicode="&#x278f;" 
d="M535 -104c-262 0 -475 190 -475 473c0 284 213 474 475 474s475 -191 475 -474s-213 -473 -475 -473zM529 141c113 0 186 67 186 155s-68 149 -166 149c-21 0 -39 -2 -55 -9l149 157h-106l-145 -168c-35 -41 -52 -83 -52 -128c0 -90 73 -156 189 -156zM529 216
c-64 0 -105 33 -105 79c0 50 38 84 105 84c62 0 103 -34 103 -83c0 -47 -41 -80 -103 -80z" />
    <glyph glyph-name="uni2790" unicode="&#x2790;" 
d="M535 -104c-262 0 -475 190 -475 473c0 284 213 474 475 474s475 -191 475 -474s-213 -473 -475 -473zM428 147h90l197 432v12h-354v-76h245z" />
    <glyph glyph-name="uni2791" unicode="&#x2791;" 
d="M535 -104c-262 0 -475 190 -475 473c0 284 213 474 475 474s475 -191 475 -474s-213 -473 -475 -473zM536 139c114 0 191 52 191 137c0 50 -38 88 -90 103c44 16 73 50 73 98c0 71 -68 122 -174 122c-107 0 -174 -51 -174 -122c0 -48 29 -82 72 -98
c-51 -15 -90 -53 -90 -103c0 -85 77 -137 192 -137zM536 404c-59 0 -91 24 -91 64c0 36 33 65 91 65c57 0 90 -29 90 -65c0 -40 -33 -64 -90 -64zM536 206c-68 0 -108 28 -108 73c0 41 38 70 108 70c68 0 106 -29 106 -70c0 -45 -40 -73 -106 -73z" />
    <glyph glyph-name="uni2792" unicode="&#x2792;" 
d="M535 -104c-262 0 -475 190 -475 473c0 284 213 474 475 474s475 -191 475 -474s-213 -473 -475 -473zM420 145h106l145 168c35 41 52 83 52 127c0 91 -73 157 -188 157c-114 0 -187 -67 -187 -155c0 -89 68 -149 166 -149c22 0 39 2 55 9zM535 359c-62 0 -103 34 -103 83
c0 46 41 80 103 80c63 0 105 -34 105 -79c0 -50 -39 -84 -105 -84z" />
    <glyph glyph-name="uni24FF" unicode="&#x24ff;" 
d="M535 -104c-262 0 -475 190 -475 473c0 284 213 474 475 474s475 -191 475 -474s-213 -473 -475 -473zM535 140c128 0 208 95 208 230c0 133 -80 228 -208 228c-129 0 -209 -95 -209 -228c0 -134 80 -230 209 -230zM535 217c-75 0 -126 56 -126 153c0 96 51 153 126 153
c74 0 125 -57 125 -153c0 -97 -51 -153 -125 -153z" />
    <glyph glyph-name="uni2776" unicode="&#x2776;" 
d="M535 -104c-262 0 -475 190 -475 473c0 284 213 474 475 474s475 -191 475 -474s-213 -473 -475 -473zM514 145h83v450h-13l-210 -103l31 -67l109 54v-334z" />
    <glyph glyph-name="uni2777" unicode="&#x2777;" 
d="M535 -104c-262 0 -475 190 -475 473c0 284 213 474 475 474s475 -191 475 -474s-213 -473 -475 -473zM360 145h359v76h-201l62 55c81 70 115 119 115 182c0 69 -50 138 -169 138c-80 0 -142 -36 -180 -89l57 -50c27 39 66 64 117 64c58 0 90 -31 90 -69
c0 -37 -19 -64 -88 -133l-162 -161v-13z" />
    <glyph glyph-name="uni2778" unicode="&#x2778;" 
d="M535 -104c-262 0 -475 190 -475 473c0 284 213 474 475 474s475 -191 475 -474s-213 -473 -475 -473zM537 142c120 0 180 70 180 147c0 82 -60 130 -143 135l144 147v22h-356v-76h218l-120 -123l15 -30c81 19 158 -1 158 -69c0 -45 -36 -78 -100 -78
c-60 0 -99 23 -129 59l-52 -56c41 -48 99 -78 185 -78z" />
    <glyph glyph-name="uni2779" unicode="&#x2779;" 
d="M535 -104c-262 0 -475 190 -475 473c0 284 213 474 475 474s475 -191 475 -474s-213 -473 -475 -473zM578 147h78v84h86v69h-86v291h-81l-288 -349v-11h291v-84zM418 300l160 186v-186h-160z" />
    <glyph glyph-name="uni277A" unicode="&#x277a;" 
d="M535 -104c-262 0 -475 190 -475 473c0 284 213 474 475 474s475 -191 475 -474s-213 -473 -475 -473zM529 141c121 0 187 75 187 153s-59 142 -173 142c-30 0 -56 -6 -80 -17v102h224v72h-301v-247l8 -5c34 16 73 30 126 30c73 0 113 -35 113 -80c0 -47 -44 -75 -105 -75
c-56 0 -89 19 -121 46l-45 -58c39 -37 92 -63 167 -63z" />
    <glyph glyph-name="uni277B" unicode="&#x277b;" 
d="M535 -104c-262 0 -475 190 -475 473c0 284 213 474 475 474s475 -191 475 -474s-213 -473 -475 -473zM529 141c113 0 186 67 186 155s-68 149 -166 149c-21 0 -39 -2 -55 -9l149 157h-106l-145 -168c-35 -41 -52 -83 -52 -128c0 -90 73 -156 189 -156zM529 216
c-64 0 -105 33 -105 79c0 50 38 84 105 84c62 0 103 -34 103 -83c0 -47 -41 -80 -103 -80z" />
    <glyph glyph-name="uni277C" unicode="&#x277c;" 
d="M535 -104c-262 0 -475 190 -475 473c0 284 213 474 475 474s475 -191 475 -474s-213 -473 -475 -473zM428 147h90l197 432v12h-354v-76h245z" />
    <glyph glyph-name="uni277D" unicode="&#x277d;" 
d="M535 -104c-262 0 -475 190 -475 473c0 284 213 474 475 474s475 -191 475 -474s-213 -473 -475 -473zM536 139c114 0 191 52 191 137c0 50 -38 88 -90 103c44 16 73 50 73 98c0 71 -68 122 -174 122c-107 0 -174 -51 -174 -122c0 -48 29 -82 72 -98
c-51 -15 -90 -53 -90 -103c0 -85 77 -137 192 -137zM536 404c-59 0 -91 24 -91 64c0 36 33 65 91 65c57 0 90 -29 90 -65c0 -40 -33 -64 -90 -64zM536 206c-68 0 -108 28 -108 73c0 41 38 70 108 70c68 0 106 -29 106 -70c0 -45 -40 -73 -106 -73z" />
    <glyph glyph-name="uni277E" unicode="&#x277e;" 
d="M535 -104c-262 0 -475 190 -475 473c0 284 213 474 475 474s475 -191 475 -474s-213 -473 -475 -473zM420 145h106l145 168c35 41 52 83 52 127c0 91 -73 157 -188 157c-114 0 -187 -67 -187 -155c0 -89 68 -149 166 -149c22 0 39 2 55 9zM535 359c-62 0 -103 34 -103 83
c0 46 41 80 103 80c63 0 105 -34 105 -79c0 -50 -39 -84 -105 -84z" />
    <glyph glyph-name="uni24EA" unicode="&#x24ea;" 
d="M535 -104c-262 0 -475 190 -475 473c0 284 213 474 475 474s475 -191 475 -474s-213 -473 -475 -473zM535 -33c220 0 402 158 402 402s-182 402 -402 402s-402 -158 -402 -402s182 -402 402 -402zM535 140c-129 0 -209 100 -209 230s80 229 209 229
c128 0 208 -99 208 -229c0 -131 -80 -230 -208 -230zM535 210c79 0 133 59 133 160c0 100 -54 160 -133 160s-133 -60 -133 -160c0 -101 54 -160 133 -160z" />
    <glyph glyph-name="uni2460" unicode="&#x2460;" 
d="M535 -104c-262 0 -475 190 -475 473c0 284 213 474 475 474s475 -191 475 -474s-213 -473 -475 -473zM535 -33c220 0 402 158 402 402s-182 402 -402 402s-402 -158 -402 -402s182 -402 402 -402zM520 146v344l-113 -58l-28 60l203 103h12v-449h-74z" />
    <glyph glyph-name="uni2461" unicode="&#x2461;" 
d="M535 -104c-262 0 -475 190 -475 473c0 284 213 474 475 474s475 -191 475 -474s-213 -473 -475 -473zM535 -33c220 0 402 158 402 402s-182 402 -402 402s-402 -158 -402 -402s182 -402 402 -402zM506 214h213v-69h-356v12l164 161c70 68 91 96 91 136
c0 41 -35 74 -97 74c-53 0 -93 -26 -121 -65l-52 44c38 54 99 89 178 89c117 0 168 -68 168 -137c0 -63 -33 -109 -116 -182z" />
    <glyph glyph-name="uni2462" unicode="&#x2462;" 
d="M535 -104c-262 0 -475 190 -475 473c0 284 213 474 475 474s475 -191 475 -474s-213 -473 -475 -473zM535 -33c220 0 402 158 402 402s-182 402 -402 402s-402 -158 -402 -402s182 -402 402 -402zM537 143c-85 0 -143 30 -183 78l47 50c31 -37 72 -61 133 -61
c69 0 106 36 106 83c0 71 -77 92 -161 75l-14 28l126 128h-227v69h352v-19l-148 -152c85 -3 147 -51 147 -133c0 -76 -58 -146 -178 -146z" />
    <glyph glyph-name="uni2463" unicode="&#x2463;" 
d="M535 -104c-262 0 -475 190 -475 473c0 284 213 474 475 474s475 -191 475 -474s-213 -473 -475 -473zM535 -33c220 0 402 158 402 402s-182 402 -402 402s-402 -158 -402 -402s182 -402 402 -402zM740 297v-62h-87v-88h-71v88h-292v9l290 347h73v-294h87zM409 297h173
v198z" />
    <glyph glyph-name="uni2464" unicode="&#x2464;" 
d="M535 -104c-262 0 -475 190 -475 473c0 284 213 474 475 474s475 -191 475 -474s-213 -473 -475 -473zM535 -33c220 0 402 158 402 402s-182 402 -402 402s-402 -158 -402 -402s182 -402 402 -402zM542 435c111 0 172 -62 172 -141c0 -78 -67 -152 -185 -152
c-76 0 -128 26 -167 63l41 52c32 -29 67 -48 125 -48c64 0 111 31 111 82c0 48 -42 85 -118 85c-54 0 -93 -14 -127 -31l-9 4v245h299v-66h-229v-111c26 13 54 18 87 18z" />
    <glyph glyph-name="uni2465" unicode="&#x2465;" 
d="M535 -104c-262 0 -475 190 -475 473c0 284 213 474 475 474s475 -191 475 -474s-213 -473 -475 -473zM535 -33c220 0 402 158 402 402s-182 402 -402 402s-402 -158 -402 -402s182 -402 402 -402zM545 445c98 0 168 -61 168 -150c0 -87 -73 -153 -185 -153
c-115 0 -187 65 -187 154c0 45 18 85 51 125l150 173h95l-150 -160c17 7 36 11 58 11zM528 209c65 0 109 37 109 86c0 52 -44 89 -109 89c-71 0 -111 -37 -111 -89c0 -49 43 -86 111 -86z" />
    <glyph glyph-name="uni2466" unicode="&#x2466;" 
d="M535 -104c-262 0 -475 190 -475 473c0 284 213 474 475 474s475 -191 475 -474s-213 -473 -475 -473zM535 -33c220 0 402 158 402 402s-182 402 -402 402s-402 -158 -402 -402s182 -402 402 -402zM362 591h351v-11l-200 -433h-82l184 376h-253v68z" />
    <glyph glyph-name="uni2467" unicode="&#x2467;" 
d="M535 -104c-262 0 -475 190 -475 473c0 284 213 474 475 474s475 -191 475 -474s-213 -473 -475 -473zM535 -33c220 0 402 158 402 402s-182 402 -402 402s-402 -158 -402 -402s182 -402 402 -402zM536 140c-115 0 -190 52 -190 135c0 51 40 90 94 105
c-45 15 -75 50 -75 98c0 69 65 120 171 120c105 0 170 -51 170 -120c0 -48 -29 -83 -75 -98c55 -15 93 -54 93 -105c0 -83 -74 -135 -188 -135zM536 402c61 0 95 27 95 67c0 38 -35 69 -95 69c-61 0 -96 -31 -96 -69c0 -40 33 -67 96 -67zM536 202c71 0 113 29 113 75
c0 43 -41 75 -113 75c-74 0 -115 -32 -115 -75c0 -46 43 -75 115 -75z" />
    <glyph glyph-name="uni2468" unicode="&#x2468;" 
d="M535 -104c-262 0 -475 190 -475 473c0 284 213 474 475 474s475 -191 475 -474s-213 -473 -475 -473zM535 -33c220 0 402 158 402 402s-182 402 -402 402s-402 -158 -402 -402s182 -402 402 -402zM425 145l150 159c-17 -7 -36 -10 -59 -10c-97 0 -166 60 -166 149
c0 87 72 154 185 154c114 0 186 -65 186 -155c0 -44 -17 -85 -51 -124l-149 -173h-96zM535 354c70 0 110 38 110 90c0 49 -43 85 -110 85c-66 0 -110 -36 -110 -86c0 -52 44 -89 110 -89z" />
    <glyph glyph-name="zero.osf" horiz-adv-x="748" 
d="M375 -9c-187 0 -306 135 -306 311c0 177 119 313 306 313c184 0 304 -136 304 -313c0 -176 -120 -311 -304 -311zM375 69c133 0 219 97 219 233c0 138 -86 234 -219 234c-134 0 -220 -96 -220 -234c0 -136 86 -233 220 -233z" />
    <glyph glyph-name="one.osf" horiz-adv-x="448" 
d="M319 615h14v-615h-83v492l-176 -87l-32 68z" />
    <glyph glyph-name="two.osf" horiz-adv-x="603" 
d="M232 79h313v-79h-488v10l228 214c112 102 134 140 134 200s-47 113 -142 113c-82 0 -139 -39 -177 -93l-58 48c50 75 131 124 239 124c157 0 224 -95 224 -187c0 -86 -37 -145 -170 -261z" />
    <glyph glyph-name="three.osf" horiz-adv-x="646" 
d="M336 322c133 -4 235 -87 235 -230c0 -111 -84 -229 -260 -229c-124 0 -211 52 -269 130l57 55c49 -62 116 -107 209 -107c117 0 180 75 180 154c0 137 -121 179 -261 152l-18 37l221 246h-376v78h512v-33z" />
    <glyph glyph-name="four.osf" horiz-adv-x="706" 
d="M664 99v-77h-137v-155h-82v155h-436v13l437 571h81v-507h137zM150 99h295v385z" />
    <glyph glyph-name="five.osf" horiz-adv-x="619" 
d="M304 342c164 0 257 -101 257 -239c0 -135 -102 -245 -267 -245c-112 0 -190 43 -246 97l48 64c49 -47 104 -83 196 -83c104 0 184 61 184 162s-72 169 -187 169c-85 0 -146 -24 -201 -60l-8 6v393h440v-77h-360v-217c44 20 91 30 144 30z" />
    <glyph glyph-name="six.osf" horiz-adv-x="635" 
d="M337 490c143 0 249 -108 249 -251c0 -141 -105 -248 -268 -248c-164 0 -269 105 -269 248c0 72 26 136 72 195l240 305h107l-217 -264c25 10 53 15 86 15zM318 69c110 0 182 73 182 170c0 102 -72 176 -182 176c-117 0 -183 -77 -183 -178c0 -97 70 -168 183 -168z" />
    <glyph glyph-name="seven.osf" horiz-adv-x="559" 
d="M42 606h508v-13l-306 -726h-92l286 662h-396v77z" />
    <glyph glyph-name="eight.osf" horiz-adv-x="679" 
d="M476 388c75 -25 134 -95 134 -182c0 -131 -103 -216 -270 -216s-271 85 -271 216c0 87 59 157 134 182c-61 27 -104 87 -104 165c0 112 92 196 241 196s241 -84 241 -196c0 -78 -44 -138 -105 -165zM340 674c-99 0 -157 -57 -157 -127c0 -72 54 -126 157 -126
c102 0 157 54 157 126c0 70 -58 127 -157 127zM340 65c118 0 185 56 185 143c0 77 -67 141 -185 141c-119 0 -185 -64 -185 -141c0 -87 67 -143 185 -143z" />
    <glyph glyph-name="nine.osf" horiz-adv-x="635" 
d="M316 615c165 0 270 -105 270 -248c0 -72 -26 -136 -72 -195l-241 -305h-106l217 264c-25 -10 -53 -15 -86 -15c-143 0 -249 108 -249 251c0 141 105 248 267 248zM316 191c117 0 184 77 184 178c0 97 -71 168 -184 168c-110 0 -182 -73 -182 -170
c0 -102 72 -176 182 -176z" />
    <glyph glyph-name="zero.tf" horiz-adv-x="660" 
d="M331 -10c-175 0 -282 163 -282 379s107 380 282 380c173 0 280 -164 280 -380s-107 -379 -280 -379zM331 68c118 0 196 119 196 301s-78 302 -196 302c-119 0 -197 -120 -197 -302s78 -301 197 -301z" />
    <glyph glyph-name="one.tf" horiz-adv-x="660" 
d="M427 77h178v-77h-464v77h203v543l-211 -107l-34 68l313 161h15v-665z" />
    <glyph glyph-name="two.tf" horiz-adv-x="660" 
d="M242 78h356v-78h-517v14l245 266c110 116 147 165 147 244c0 78 -60 146 -164 146c-87 0 -150 -42 -194 -109l-62 47c55 87 143 141 258 141c166 0 248 -109 248 -220c0 -105 -51 -172 -178 -305z" />
    <glyph glyph-name="three.tf" horiz-adv-x="660" 
d="M347 453c133 -3 236 -86 236 -229c0 -112 -85 -230 -261 -230c-124 0 -211 53 -269 131l57 54c49 -62 116 -107 209 -107c118 0 180 75 180 155c0 136 -121 178 -261 151l-17 38l221 246h-377v77h512v-33z" />
    <glyph glyph-name="four.tf" horiz-adv-x="660" 
d="M652 232v-77h-129v-155h-82v155h-415v13l415 571h82v-507h129zM164 232h277v384z" />
    <glyph glyph-name="five.tf" horiz-adv-x="660" 
d="M326 475c164 0 258 -101 258 -239c0 -135 -102 -245 -268 -245c-112 0 -190 43 -246 97l49 64c49 -47 104 -83 195 -83c105 0 185 62 185 162c0 101 -73 169 -187 169c-85 0 -146 -24 -201 -60l-9 6v393h441v-77h-360v-217c44 20 90 30 143 30z" />
    <glyph glyph-name="six.tf" horiz-adv-x="660" 
d="M350 490c143 0 248 -108 248 -251c0 -141 -105 -248 -267 -248c-165 0 -269 105 -269 248c0 72 26 136 71 195l241 305h107l-218 -264c25 10 53 15 87 15zM331 69c110 0 182 73 182 170c0 102 -72 176 -182 176c-117 0 -183 -77 -183 -178c0 -97 70 -168 183 -168z" />
    <glyph glyph-name="seven.tf" horiz-adv-x="660" 
d="M65 739h508v-13l-306 -726h-92l286 662h-396v77z" />
    <glyph glyph-name="eight.tf" horiz-adv-x="660" 
d="M467 388c75 -25 134 -95 134 -182c0 -131 -103 -216 -270 -216s-271 85 -271 216c0 87 60 157 134 182c-61 27 -104 87 -104 165c0 112 91 196 241 196c149 0 241 -84 241 -196c0 -78 -44 -138 -105 -165zM331 674c-100 0 -158 -57 -158 -127c0 -72 55 -126 158 -126
c102 0 157 54 157 126c0 70 -58 127 -157 127zM331 65c117 0 184 56 184 143c0 77 -66 141 -184 141c-120 0 -185 -64 -185 -141c0 -87 66 -143 185 -143z" />
    <glyph glyph-name="nine.tf" horiz-adv-x="660" 
d="M329 748c165 0 269 -105 269 -248c0 -72 -26 -136 -71 -195l-241 -305h-107l218 264c-25 -10 -52 -15 -86 -15c-144 0 -249 108 -249 251c0 141 105 248 267 248zM329 324c117 0 183 77 183 178c0 97 -70 168 -183 168c-110 0 -182 -73 -182 -170
c0 -102 72 -176 182 -176z" />
    <glyph glyph-name="uni2080" unicode="&#x2080;" horiz-adv-x="457" 
d="M229 -106c-108 0 -174 80 -174 191s66 190 174 190c106 0 173 -79 173 -190s-67 -191 -173 -191zM229 -44c62 0 105 46 105 129s-43 129 -105 129c-63 0 -105 -46 -105 -129s42 -129 105 -129z" />
    <glyph glyph-name="uni2081" unicode="&#x2081;" horiz-adv-x="309" 
d="M150 -100v279l-93 -45l-24 55l172 86h11v-375h-66z" />
    <glyph glyph-name="uni2082" unicode="&#x2082;" horiz-adv-x="387" 
d="M174 -38h167v-62h-297v10l135 138c57 55 74 77 74 109s-28 58 -77 58c-42 0 -74 -20 -97 -52l-47 39c32 46 82 75 148 75c99 0 142 -59 142 -116c0 -52 -30 -89 -97 -153z" />
    <glyph glyph-name="uni2083" unicode="&#x2083;" horiz-adv-x="395" 
d="M185 -105c-69 0 -118 25 -152 65l43 45c25 -30 58 -49 107 -49c55 0 85 27 85 65c0 57 -63 73 -132 58l-12 26l100 104h-181v61h294v-16l-120 -124c69 -5 119 -46 119 -113c0 -62 -50 -122 -151 -122z" />
    <glyph glyph-name="uni2084" unicode="&#x2084;" horiz-adv-x="416" 
d="M383 27v-56h-71v-71h-65v71h-240v8l239 291h66v-243h71zM116 27h131v155z" />
    <glyph glyph-name="uni2085" unicode="&#x2085;" horiz-adv-x="376" 
d="M187 139c94 0 143 -52 143 -119c0 -65 -54 -127 -154 -127c-62 0 -106 22 -138 54l36 46c27 -23 54 -39 101 -39c51 0 88 24 88 64c0 39 -33 67 -95 67c-44 0 -76 -11 -105 -24l-6 3v206h249v-60h-187v-83c20 8 43 12 68 12z" />
    <glyph glyph-name="uni2086" unicode="&#x2086;" horiz-adv-x="390" 
d="M212 147c80 0 138 -50 138 -125c0 -73 -61 -129 -155 -129c-95 0 -156 55 -156 130c0 37 15 71 43 106l122 141h85l-120 -129c12 4 26 6 43 6zM195 -46c52 0 87 29 87 68c0 41 -35 70 -87 70c-56 0 -87 -29 -87 -71c0 -38 34 -67 87 -67z" />
    <glyph glyph-name="uni2087" unicode="&#x2087;" horiz-adv-x="333" 
d="M33 270h293v-10l-164 -360h-73l148 309h-204v61z" />
    <glyph glyph-name="uni2088" unicode="&#x2088;" horiz-adv-x="426" 
d="M214 -107c-96 0 -159 43 -159 113c0 42 31 73 72 87c-33 14 -57 43 -57 82c0 58 55 101 144 101c88 0 143 -43 143 -101c0 -39 -23 -68 -57 -82c41 -14 71 -45 71 -87c0 -70 -63 -113 -157 -113zM214 115c48 0 75 21 75 52c0 29 -28 52 -75 52c-48 0 -76 -23 -76 -52
c0 -31 26 -52 76 -52zM214 -50c56 0 89 22 89 59c0 32 -33 56 -90 56s-90 -24 -90 -56c0 -37 34 -59 91 -59z" />
    <glyph glyph-name="uni2089" unicode="&#x2089;" horiz-adv-x="390" 
d="M194 277c96 0 156 -55 156 -130c0 -37 -15 -71 -43 -106l-121 -141h-85l120 129c-13 -4 -27 -6 -43 -6c-80 0 -139 50 -139 125c0 73 61 129 155 129zM194 78c56 0 88 29 88 71c0 38 -34 67 -88 67c-52 0 -86 -29 -86 -68c0 -41 34 -70 86 -70z" />
    <glyph glyph-name="zero.dnom" horiz-adv-x="457" 
d="M229 -6c-108 0 -174 80 -174 191s66 190 174 190c106 0 173 -79 173 -190s-67 -191 -173 -191zM229 56c62 0 105 46 105 129s-43 129 -105 129c-63 0 -105 -46 -105 -129s42 -129 105 -129z" />
    <glyph glyph-name="one.dnom" horiz-adv-x="309" 
d="M150 0v279l-93 -45l-24 55l172 86h11v-375h-66z" />
    <glyph glyph-name="two.dnom" horiz-adv-x="387" 
d="M174 62h167v-62h-297v10l135 138c57 55 74 77 74 109s-28 58 -77 58c-42 0 -74 -20 -97 -52l-47 39c32 46 82 75 148 75c99 0 142 -59 142 -116c0 -52 -30 -89 -97 -153z" />
    <glyph glyph-name="three.dnom" horiz-adv-x="395" 
d="M185 -5c-69 0 -118 25 -152 65l43 45c25 -30 58 -49 107 -49c55 0 85 27 85 65c0 57 -63 73 -132 58l-12 26l100 104h-181v61h294v-16l-120 -124c69 -5 119 -46 119 -113c0 -62 -50 -122 -151 -122z" />
    <glyph glyph-name="four.dnom" horiz-adv-x="416" 
d="M383 127v-56h-71v-71h-65v71h-240v8l239 291h66v-243h71zM116 127h131v155z" />
    <glyph glyph-name="five.dnom" horiz-adv-x="376" 
d="M187 239c94 0 143 -52 143 -119c0 -65 -54 -127 -154 -127c-62 0 -106 22 -138 54l36 47c27 -24 54 -40 101 -40c51 0 88 24 88 64c0 39 -33 67 -95 67c-44 0 -76 -11 -105 -24l-6 3v206h249v-60h-187v-83c20 8 43 12 68 12z" />
    <glyph glyph-name="six.dnom" horiz-adv-x="390" 
d="M212 247c80 0 138 -50 138 -125c0 -73 -61 -129 -155 -129c-95 0 -156 55 -156 130c0 37 15 71 43 106l122 141h85l-120 -129c12 4 26 6 43 6zM195 54c52 0 87 29 87 68c0 41 -35 70 -87 70c-56 0 -87 -29 -87 -71c0 -38 34 -67 87 -67z" />
    <glyph glyph-name="seven.dnom" horiz-adv-x="333" 
d="M33 370h293v-10l-164 -360h-73l148 309h-204v61z" />
    <glyph glyph-name="eight.dnom" horiz-adv-x="426" 
d="M214 -7c-96 0 -159 43 -159 113c0 42 31 73 72 87c-33 14 -57 43 -57 82c0 58 55 101 144 101c88 0 143 -43 143 -101c0 -39 -23 -68 -57 -82c41 -14 71 -45 71 -87c0 -70 -63 -113 -157 -113zM214 215c48 0 75 21 75 52c0 29 -28 52 -75 52c-48 0 -76 -23 -76 -52
c0 -31 26 -52 76 -52zM214 50c56 0 89 22 89 59c0 32 -33 56 -90 56s-90 -24 -90 -56c0 -37 34 -59 91 -59z" />
    <glyph glyph-name="nine.dnom" horiz-adv-x="390" 
d="M194 377c96 0 156 -55 156 -130c0 -37 -15 -71 -43 -106l-121 -141h-85l120 129c-13 -4 -27 -6 -43 -6c-80 0 -139 50 -139 125c0 73 61 129 155 129zM194 178c56 0 88 29 88 71c0 38 -34 67 -88 67c-52 0 -86 -29 -86 -68c0 -41 34 -70 86 -70z" />
    <glyph glyph-name="zero.numr" horiz-adv-x="457" 
d="M229 363c-108 0 -174 80 -174 191s66 190 174 190c106 0 173 -79 173 -190s-67 -191 -173 -191zM229 425c62 0 105 46 105 129s-43 129 -105 129c-63 0 -105 -46 -105 -129s42 -129 105 -129z" />
    <glyph glyph-name="one.numr" horiz-adv-x="309" 
d="M150 369v279l-93 -45l-24 55l172 86h11v-375h-66z" />
    <glyph glyph-name="two.numr" horiz-adv-x="387" 
d="M174 431h167v-62h-297v10l135 138c57 55 74 77 74 109s-28 58 -77 58c-42 0 -74 -20 -97 -52l-47 39c32 46 82 75 148 75c99 0 142 -59 142 -116c0 -52 -30 -89 -97 -153z" />
    <glyph glyph-name="three.numr" horiz-adv-x="395" 
d="M185 364c-69 0 -118 25 -152 65l43 45c25 -30 58 -49 107 -49c55 0 85 27 85 65c0 57 -63 73 -132 58l-12 26l100 104h-181v61h294v-16l-120 -124c69 -5 119 -46 119 -113c0 -62 -50 -122 -151 -122z" />
    <glyph glyph-name="four.numr" horiz-adv-x="416" 
d="M383 496v-56h-71v-71h-65v71h-240v8l239 291h66v-243h71zM116 496h131v155z" />
    <glyph glyph-name="five.numr" horiz-adv-x="376" 
d="M187 608c94 0 143 -52 143 -119c0 -65 -54 -127 -154 -127c-62 0 -106 22 -138 54l36 47c27 -24 54 -40 101 -40c51 0 88 24 88 64c0 39 -33 67 -95 67c-44 0 -76 -11 -105 -24l-6 3v206h249v-60h-187v-83c20 8 43 12 68 12z" />
    <glyph glyph-name="six.numr" horiz-adv-x="390" 
d="M212 616c80 0 138 -50 138 -125c0 -73 -61 -129 -155 -129c-95 0 -156 55 -156 130c0 37 15 71 43 106l122 141h85l-120 -129c12 4 26 6 43 6zM195 423c52 0 87 29 87 68c0 41 -35 70 -87 70c-56 0 -87 -29 -87 -71c0 -38 34 -67 87 -67z" />
    <glyph glyph-name="seven.numr" horiz-adv-x="333" 
d="M33 739h293v-10l-164 -360h-73l148 309h-204v61z" />
    <glyph glyph-name="eight.numr" horiz-adv-x="426" 
d="M214 362c-96 0 -159 43 -159 113c0 42 31 73 72 87c-33 14 -57 43 -57 82c0 58 55 101 144 101c88 0 143 -43 143 -101c0 -39 -23 -68 -57 -82c41 -14 71 -45 71 -87c0 -70 -63 -113 -157 -113zM214 584c48 0 75 21 75 52c0 29 -28 52 -75 52c-48 0 -76 -23 -76 -52
c0 -31 26 -52 76 -52zM214 419c56 0 89 22 89 59c0 32 -33 56 -90 56s-90 -24 -90 -56c0 -37 34 -59 91 -59z" />
    <glyph glyph-name="nine.numr" horiz-adv-x="390" 
d="M194 746c96 0 156 -55 156 -130c0 -37 -15 -71 -43 -106l-121 -141h-85l120 129c-13 -4 -27 -6 -43 -6c-80 0 -139 50 -139 125c0 73 61 129 155 129zM194 547c56 0 88 29 88 71c0 38 -34 67 -88 67c-52 0 -86 -29 -86 -68c0 -41 34 -70 86 -70z" />
    <glyph glyph-name="uni2070" unicode="&#x2070;" horiz-adv-x="457" 
d="M229 533c-108 0 -174 80 -174 191s66 190 174 190c106 0 173 -79 173 -190s-67 -191 -173 -191zM229 595c62 0 105 46 105 129s-43 129 -105 129c-63 0 -105 -46 -105 -129s42 -129 105 -129z" />
    <glyph glyph-name="uni00B9" unicode="&#xb9;" horiz-adv-x="309" 
d="M150 539v279l-93 -45l-24 55l172 86h11v-375h-66z" />
    <glyph glyph-name="uni00B2" unicode="&#xb2;" horiz-adv-x="387" 
d="M174 601h167v-62h-297v10l135 138c57 55 74 77 74 109s-28 58 -77 58c-42 0 -74 -20 -97 -52l-47 39c32 46 82 75 148 75c99 0 142 -59 142 -116c0 -52 -30 -89 -97 -153z" />
    <glyph glyph-name="uni00B3" unicode="&#xb3;" horiz-adv-x="395" 
d="M185 534c-69 0 -118 25 -152 65l43 45c25 -30 58 -49 107 -49c55 0 85 27 85 65c0 57 -63 73 -132 58l-12 26l100 104h-181v61h294v-16l-120 -124c69 -5 119 -46 119 -113c0 -62 -50 -122 -151 -122z" />
    <glyph glyph-name="uni2074" unicode="&#x2074;" horiz-adv-x="416" 
d="M383 666v-56h-71v-71h-65v71h-240v8l239 291h66v-243h71zM116 666h131v155z" />
    <glyph glyph-name="uni2075" unicode="&#x2075;" horiz-adv-x="376" 
d="M187 778c94 0 143 -52 143 -119c0 -65 -54 -127 -154 -127c-62 0 -106 22 -138 54l36 47c27 -24 54 -40 101 -40c51 0 88 24 88 64c0 39 -33 67 -95 67c-44 0 -76 -11 -105 -24l-6 3v206h249v-60h-187v-83c20 8 43 12 68 12z" />
    <glyph glyph-name="uni2076" unicode="&#x2076;" horiz-adv-x="390" 
d="M212 786c80 0 138 -50 138 -125c0 -73 -61 -129 -155 -129c-95 0 -156 55 -156 130c0 37 15 71 43 106l122 141h85l-120 -129c12 4 26 6 43 6zM195 593c52 0 87 29 87 68c0 41 -35 70 -87 70c-56 0 -87 -29 -87 -71c0 -38 34 -67 87 -67z" />
    <glyph glyph-name="uni2077" unicode="&#x2077;" horiz-adv-x="333" 
d="M33 909h293v-10l-164 -360h-73l148 309h-204v61z" />
    <glyph glyph-name="uni2078" unicode="&#x2078;" horiz-adv-x="426" 
d="M214 532c-96 0 -159 43 -159 113c0 42 31 73 72 87c-33 14 -57 43 -57 82c0 58 55 101 144 101c88 0 143 -43 143 -101c0 -39 -23 -68 -57 -82c41 -14 71 -45 71 -87c0 -70 -63 -113 -157 -113zM214 754c48 0 75 21 75 52c0 29 -28 52 -75 52c-48 0 -76 -23 -76 -52
c0 -31 26 -52 76 -52zM214 589c56 0 89 22 89 59c0 32 -33 56 -90 56s-90 -24 -90 -56c0 -37 34 -59 91 -59z" />
    <glyph glyph-name="uni2079" unicode="&#x2079;" horiz-adv-x="390" 
d="M194 916c96 0 156 -55 156 -130c0 -37 -15 -71 -43 -106l-121 -141h-85l120 129c-13 -4 -27 -6 -43 -6c-80 0 -139 50 -139 125c0 73 61 129 155 129zM194 717c56 0 88 29 88 71c0 38 -34 67 -88 67c-52 0 -86 -29 -86 -68c0 -41 34 -70 86 -70z" />
    <glyph glyph-name="fraction" unicode="&#x2044;" horiz-adv-x="103" 
d="M-223 0l468 739h80l-467 -739h-81z" />
    <glyph glyph-name="uni215F" unicode="&#x215f;" horiz-adv-x="412" 
d="M150 369v279l-93 -45l-24 55l172 86h11v-375h-66zM86 0l468 739h80l-467 -739h-81z" />
    <glyph glyph-name="onehalf" unicode="&#xbd;" horiz-adv-x="799" 
d="M150 369v279l-93 -45l-24 55l172 86h11v-375h-66zM86 0l468 739h80l-467 -739h-81zM586 62h167v-62h-297v10l135 138c57 55 74 77 74 109s-28 58 -77 58c-42 0 -74 -20 -97 -52l-47 39c32 46 82 75 148 75c99 0 142 -59 142 -116c0 -52 -30 -89 -97 -153z" />
    <glyph glyph-name="uni2189" unicode="&#x2189;" horiz-adv-x="955" 
d="M229 363c-108 0 -174 80 -174 191s66 190 174 190c106 0 173 -79 173 -190s-67 -191 -173 -191zM234 0l468 739h80l-467 -739h-81zM229 425c62 0 105 46 105 129s-43 129 -105 129c-63 0 -105 -46 -105 -129s42 -129 105 -129zM745 -5c-69 0 -118 25 -152 65l43 45
c25 -30 58 -49 107 -49c55 0 85 27 85 65c0 57 -63 73 -132 58l-12 26l100 104h-181v61h294v-16l-120 -124c69 -5 119 -46 119 -113c0 -62 -50 -122 -151 -122z" />
    <glyph glyph-name="uni2153" unicode="&#x2153;" horiz-adv-x="807" 
d="M150 369v279l-93 -45l-24 55l172 86h11v-375h-66zM86 0l468 739h80l-467 -739h-81zM597 -5c-69 0 -118 25 -152 65l43 45c25 -30 58 -49 107 -49c55 0 85 27 85 65c0 57 -63 73 -132 58l-12 26l100 104h-181v61h294v-16l-120 -124c69 -5 119 -46 119 -113
c0 -62 -50 -122 -151 -122z" />
    <glyph glyph-name="uni2154" unicode="&#x2154;" horiz-adv-x="885" 
d="M174 431h167v-62h-297v10l135 138c57 55 74 77 74 109s-28 58 -77 58c-42 0 -74 -20 -97 -52l-47 39c32 46 82 75 148 75c99 0 142 -59 142 -116c0 -52 -30 -89 -97 -153zM164 0l468 739h80l-467 -739h-81zM675 -5c-69 0 -118 25 -152 65l43 45c25 -30 58 -49 107 -49
c55 0 85 27 85 65c0 57 -63 73 -132 58l-12 26l100 104h-181v61h294v-16l-120 -124c69 -5 119 -46 119 -113c0 -62 -50 -122 -151 -122z" />
    <glyph glyph-name="onequarter" unicode="&#xbc;" horiz-adv-x="783" 
d="M150 369v279l-93 -45l-24 55l172 86h11v-375h-66zM86 0l468 739h80l-467 -739h-81zM750 127v-56h-71v-71h-65v71h-240v8l239 291h66v-243h71zM483 127h131v155z" />
    <glyph glyph-name="threequarters" unicode="&#xbe;" horiz-adv-x="869" 
d="M185 364c-69 0 -118 25 -152 65l43 45c25 -30 58 -49 107 -49c55 0 85 27 85 65c0 57 -63 73 -132 58l-12 26l100 104h-181v61h294v-16l-120 -124c69 -5 119 -46 119 -113c0 -62 -50 -122 -151 -122zM172 0l468 739h80l-467 -739h-81zM836 127v-56h-71v-71h-65v71h-240v8
l239 291h66v-243h71zM569 127h131v155z" />
    <glyph glyph-name="uni2156" unicode="&#x2156;" horiz-adv-x="866" 
d="M174 431h167v-62h-297v10l135 138c57 55 74 77 74 109s-28 58 -77 58c-42 0 -74 -20 -97 -52l-47 39c32 46 82 75 148 75c99 0 142 -59 142 -116c0 -52 -30 -89 -97 -153zM164 0l468 739h80l-467 -739h-81zM677 239c94 0 143 -52 143 -119c0 -65 -54 -127 -154 -127
c-62 0 -106 22 -138 54l36 47c27 -24 54 -40 101 -40c51 0 88 24 88 64c0 39 -33 67 -95 67c-44 0 -76 -11 -105 -24l-6 3v206h249v-60h-187v-83c20 8 43 12 68 12z" />
    <glyph glyph-name="uni2157" unicode="&#x2157;" horiz-adv-x="874" 
d="M185 364c-69 0 -118 25 -152 65l43 45c25 -30 58 -49 107 -49c55 0 85 27 85 65c0 57 -63 73 -132 58l-12 26l100 104h-181v61h294v-16l-120 -124c69 -5 119 -46 119 -113c0 -62 -50 -122 -151 -122zM172 0l468 739h80l-467 -739h-81zM685 239c94 0 143 -52 143 -119
c0 -65 -54 -127 -154 -127c-62 0 -106 22 -138 54l36 47c27 -24 54 -40 101 -40c51 0 88 24 88 64c0 39 -33 67 -95 67c-44 0 -76 -11 -105 -24l-6 3v206h249v-60h-187v-83c20 8 43 12 68 12z" />
    <glyph glyph-name="uni2158" unicode="&#x2158;" horiz-adv-x="895" 
d="M383 496v-56h-71v-71h-65v71h-240v8l239 291h66v-243h71zM193 0l468 739h80l-467 -739h-81zM116 496h131v155zM706 239c94 0 143 -52 143 -119c0 -65 -54 -127 -154 -127c-62 0 -106 22 -138 54l36 47c27 -24 54 -40 101 -40c51 0 88 24 88 64c0 39 -33 67 -95 67
c-44 0 -76 -11 -105 -24l-6 3v206h249v-60h-187v-83c20 8 43 12 68 12z" />
    <glyph glyph-name="uni2159" unicode="&#x2159;" horiz-adv-x="802" 
d="M150 369v279l-93 -45l-24 55l172 86h11v-375h-66zM86 0l468 739h80l-467 -739h-81zM624 247c80 0 138 -50 138 -125c0 -73 -61 -129 -155 -129c-95 0 -156 55 -156 130c0 37 15 71 43 106l122 141h85l-120 -129c12 4 26 6 43 6zM607 54c52 0 87 29 87 68
c0 41 -35 70 -87 70c-56 0 -87 -29 -87 -71c0 -38 34 -67 87 -67z" />
    <glyph glyph-name="uni215A" unicode="&#x215a;" horiz-adv-x="869" 
d="M187 608c94 0 143 -52 143 -119c0 -65 -54 -127 -154 -127c-62 0 -106 22 -138 54l36 47c27 -24 54 -40 101 -40c51 0 88 24 88 64c0 39 -33 67 -95 67c-44 0 -76 -11 -105 -24l-6 3v206h249v-60h-187v-83c20 8 43 12 68 12zM153 0l468 739h80l-467 -739h-81zM691 247
c80 0 138 -50 138 -125c0 -73 -61 -129 -155 -129c-95 0 -156 55 -156 130c0 37 15 71 43 106l122 141h85l-120 -129c12 4 26 6 43 6zM674 54c52 0 87 29 87 68c0 41 -35 70 -87 70c-56 0 -87 -29 -87 -71c0 -38 34 -67 87 -67z" />
    <glyph glyph-name="uni2150" unicode="&#x2150;" horiz-adv-x="745" 
d="M150 369v279l-93 -45l-24 55l172 86h11v-375h-66zM86 0l468 739h80l-467 -739h-81zM445 370h293v-10l-164 -360h-73l148 309h-204v61z" />
    <glyph glyph-name="oneeighth" unicode="&#x215b;" horiz-adv-x="838" 
d="M150 369v279l-93 -45l-24 55l172 86h11v-375h-66zM86 0l468 739h80l-467 -739h-81zM626 -7c-96 0 -159 43 -159 113c0 42 31 73 72 87c-33 14 -57 43 -57 82c0 58 55 101 144 101c88 0 143 -43 143 -101c0 -39 -23 -68 -57 -82c41 -14 71 -45 71 -87
c0 -70 -63 -113 -157 -113zM626 215c48 0 75 21 75 52c0 29 -28 52 -75 52c-48 0 -76 -23 -76 -52c0 -31 26 -52 76 -52zM626 50c56 0 89 22 89 59c0 32 -33 56 -90 56s-90 -24 -90 -56c0 -37 34 -59 91 -59z" />
    <glyph glyph-name="threeeighths" unicode="&#x215c;" horiz-adv-x="924" 
d="M185 364c-69 0 -118 25 -152 65l43 45c25 -30 58 -49 107 -49c55 0 85 27 85 65c0 57 -63 73 -132 58l-12 26l100 104h-181v61h294v-16l-120 -124c69 -5 119 -46 119 -113c0 -62 -50 -122 -151 -122zM172 0l468 739h80l-467 -739h-81zM712 -7c-96 0 -159 43 -159 113
c0 42 31 73 72 87c-33 14 -57 43 -57 82c0 58 55 101 144 101c88 0 143 -43 143 -101c0 -39 -23 -68 -57 -82c41 -14 71 -45 71 -87c0 -70 -63 -113 -157 -113zM712 215c48 0 75 21 75 52c0 29 -28 52 -75 52c-48 0 -76 -23 -76 -52c0 -31 26 -52 76 -52zM712 50
c56 0 89 22 89 59c0 32 -33 56 -90 56s-90 -24 -90 -56c0 -37 34 -59 91 -59z" />
    <glyph glyph-name="fiveeighths" unicode="&#x215d;" horiz-adv-x="905" 
d="M187 608c94 0 143 -52 143 -119c0 -65 -54 -127 -154 -127c-62 0 -106 22 -138 54l36 47c27 -24 54 -40 101 -40c51 0 88 24 88 64c0 39 -33 67 -95 67c-44 0 -76 -11 -105 -24l-6 3v206h249v-60h-187v-83c20 8 43 12 68 12zM153 0l468 739h80l-467 -739h-81zM693 -7
c-96 0 -159 43 -159 113c0 42 31 73 72 87c-33 14 -57 43 -57 82c0 58 55 101 144 101c88 0 143 -43 143 -101c0 -39 -23 -68 -57 -82c41 -14 71 -45 71 -87c0 -70 -63 -113 -157 -113zM693 215c48 0 75 21 75 52c0 29 -28 52 -75 52c-48 0 -76 -23 -76 -52
c0 -31 26 -52 76 -52zM693 50c56 0 89 22 89 59c0 32 -33 56 -90 56s-90 -24 -90 -56c0 -37 34 -59 91 -59z" />
    <glyph glyph-name="seveneighths" unicode="&#x215e;" horiz-adv-x="848" 
d="M33 739h293v-10l-164 -360h-73l148 309h-204v61zM96 0l468 739h80l-467 -739h-81zM636 -7c-96 0 -159 43 -159 113c0 42 31 73 72 87c-33 14 -57 43 -57 82c0 58 55 101 144 101c88 0 143 -43 143 -101c0 -39 -23 -68 -57 -82c41 -14 71 -45 71 -87
c0 -70 -63 -113 -157 -113zM636 215c48 0 75 21 75 52c0 29 -28 52 -75 52c-48 0 -76 -23 -76 -52c0 -31 26 -52 76 -52zM636 50c56 0 89 22 89 59c0 32 -33 56 -90 56s-90 -24 -90 -56c0 -37 34 -59 91 -59z" />
    <glyph glyph-name="uni2151" unicode="&#x2151;" horiz-adv-x="802" 
d="M150 369v279l-93 -45l-24 55l172 86h11v-375h-66zM86 0l468 739h80l-467 -739h-81zM606 377c96 0 156 -55 156 -130c0 -37 -15 -71 -43 -106l-121 -141h-85l120 129c-13 -4 -27 -6 -43 -6c-80 0 -139 50 -139 125c0 73 61 129 155 129zM606 178c56 0 88 29 88 71
c0 38 -34 67 -88 67c-52 0 -86 -29 -86 -68c0 -41 34 -70 86 -70z" />
    <glyph glyph-name="period" unicode="." horiz-adv-x="222" 
d="M112 -12c-33 0 -58 24 -58 57c0 31 25 56 58 56c32 0 57 -25 57 -56c0 -33 -25 -57 -57 -57z" />
    <glyph glyph-name="comma" unicode="," horiz-adv-x="222" 
d="M77 -158l-30 33c41 34 70 74 72 116v3c-4 -1 -7 -2 -13 -2c-28 0 -49 23 -49 51c0 32 23 55 56 55c39 0 61 -32 61 -80c0 -66 -36 -129 -97 -176z" />
    <glyph glyph-name="colon" unicode=":" horiz-adv-x="222" 
d="M112 414c-33 0 -58 24 -58 57c0 31 25 56 58 56c32 0 57 -25 57 -56c0 -33 -25 -57 -57 -57zM112 -12c-33 0 -58 24 -58 57c0 31 25 56 58 56c32 0 57 -25 57 -56c0 -33 -25 -57 -57 -57z" />
    <glyph glyph-name="semicolon" unicode=";" horiz-adv-x="222" 
d="M105 414c-33 0 -58 24 -58 57c0 31 25 56 58 56c32 0 57 -25 57 -56c0 -33 -25 -57 -57 -57zM77 -158l-30 33c41 34 70 74 72 116v3c-4 -1 -7 -2 -13 -2c-28 0 -49 23 -49 51c0 32 23 55 56 55c39 0 61 -32 61 -80c0 -66 -36 -129 -97 -176z" />
    <glyph glyph-name="ellipsis" unicode="&#x2026;" horiz-adv-x="702" 
d="M112 -12c-33 0 -58 24 -58 57c0 31 25 56 58 56c32 0 57 -25 57 -56c0 -33 -25 -57 -57 -57zM352 -12c-33 0 -58 24 -58 57c0 31 25 56 58 56c32 0 56 -25 56 -56c0 -33 -24 -57 -56 -57zM591 -12c-33 0 -57 24 -57 57c0 31 24 56 57 56c32 0 57 -25 57 -56
c0 -33 -25 -57 -57 -57z" />
    <glyph glyph-name="exclam" unicode="!" horiz-adv-x="259" 
d="M162 192h-66l-12 547h89zM129 -10c-31 0 -55 24 -55 55c0 30 24 54 55 54s55 -24 55 -54c0 -31 -24 -55 -55 -55z" />
    <glyph glyph-name="exclamdown" unicode="&#xa1;" horiz-adv-x="259" 
d="M129 420c-31 0 -55 24 -55 53c0 32 24 56 55 56s55 -24 55 -56c0 -29 -24 -53 -55 -53zM85 -221l11 548h66l12 -548h-89z" />
    <glyph glyph-name="question" unicode="?" horiz-adv-x="557" 
d="M212 192v24c0 187 213 158 213 317c0 79 -55 141 -154 141c-87 0 -146 -38 -187 -95l-56 53c54 70 135 117 246 117c151 0 234 -95 234 -211c0 -211 -222 -177 -222 -326v-20h-74zM254 -10c-32 0 -56 24 -56 55c0 30 24 54 56 54c30 0 54 -24 54 -54
c0 -31 -24 -55 -54 -55z" />
    <glyph glyph-name="questiondown" unicode="&#xbf;" horiz-adv-x="507" 
d="M303 420c-30 0 -54 24 -54 53c0 32 24 56 54 56c32 0 56 -24 56 -56c0 -29 -24 -53 -56 -53zM284 -230c-152 0 -235 95 -235 211c0 210 223 176 223 326v20h74v-24c0 -188 -214 -158 -214 -318c0 -79 55 -141 155 -141c86 0 146 39 187 95l55 -53
c-54 -70 -135 -116 -245 -116z" />
    <glyph glyph-name="periodcentered" unicode="&#xb7;" horiz-adv-x="222" 
d="M112 239c-33 0 -58 25 -58 57s25 56 58 56c32 0 57 -24 57 -56s-25 -57 -57 -57z" />
    <glyph glyph-name="bullet" unicode="&#x2022;" horiz-adv-x="348" 
d="M175 243c-60 0 -105 44 -105 103c0 57 45 102 105 102c58 0 103 -45 103 -102c0 -59 -45 -103 -103 -103z" />
    <glyph glyph-name="asterisk" unicode="*" horiz-adv-x="364" 
d="M330 608l-106 -29l69 -84l-52 -38l-59 94l-59 -94l-53 38l70 84l-107 29l21 62l102 -42l-7 111h66l-8 -111l103 42z" />
    <glyph glyph-name="numbersign" unicode="#" horiz-adv-x="854" 
d="M813 484h-164l-57 -227h165l-20 -76h-164l-45 -181h-82l45 181h-223l-45 -181h-82l45 181h-164l19 76h164l57 227h-165l19 76h165l45 179h80l-44 -179h224l45 179h81l-45 -179h165zM510 257l57 227h-224l-56 -227h223z" />
    <glyph glyph-name="slash" unicode="/" horiz-adv-x="428" 
d="M43 -206h-77l384 1057h78z" />
    <glyph glyph-name="backslash" unicode="\" horiz-adv-x="428" 
d="M385 -206l-385 1057h78l384 -1057h-77z" />
    <glyph glyph-name="periodcentered.loclCAT.case" horiz-adv-x="6" 
d="M-118 343c-33 0 -58 25 -58 57s25 56 58 56c32 0 57 -24 57 -56s-25 -57 -57 -57z" />
    <glyph glyph-name="periodcentered.loclCAT" horiz-adv-x="110" 
d="M55 307c-31 0 -55 23 -55 55c0 30 24 54 55 54s55 -24 55 -54c0 -32 -24 -55 -55 -55z" />
    <glyph glyph-name="period.ss05" horiz-adv-x="227" 
d="M114 -12l-77 75l77 77l76 -76z" />
    <glyph glyph-name="comma.ss05" horiz-adv-x="222" 
d="M57 -114v210h112l-99 -210h-13z" />
    <glyph glyph-name="colon.ss05" horiz-adv-x="227" 
d="M114 376l-77 76l77 77l76 -76zM114 -12l-77 75l77 77l76 -76z" />
    <glyph glyph-name="semicolon.ss05" horiz-adv-x="227" 
d="M114 376l-77 76l77 77l76 -76zM57 -114v210h112l-99 -210h-13z" />
    <glyph glyph-name="ellipsis.ss05" horiz-adv-x="706" 
d="M114 -12l-77 75l77 77l76 -76zM354 -12l-77 75l77 77l75 -76zM593 -12l-76 75l76 77l76 -76z" />
    <glyph glyph-name="exclam.ss05" horiz-adv-x="219" 
d="M143 192h-65l-13 547h89zM110 -12l-73 72l73 73l72 -73z" />
    <glyph glyph-name="exclamdown.ss05" horiz-adv-x="219" 
d="M109 384l-72 72l72 73l73 -72zM65 -223l10 548h66l13 -548h-89z" />
    <glyph glyph-name="question.ss05" horiz-adv-x="557" 
d="M212 192v24c0 187 213 158 213 317c0 79 -55 141 -154 141c-87 0 -146 -38 -187 -95l-56 53c54 70 135 117 246 117c151 0 234 -95 234 -211c0 -211 -222 -177 -222 -326v-20h-74zM249 -12l-73 72l73 73l72 -73z" />
    <glyph glyph-name="questiondown.ss05" horiz-adv-x="507" 
d="M309 384l-72 72l72 73l72 -72zM284 -233c-152 0 -235 96 -235 212c0 210 223 176 223 326v20h74v-24c0 -188 -214 -159 -214 -318c0 -79 55 -141 155 -141c86 0 146 38 187 95l55 -53c-54 -70 -135 -117 -245 -117z" />
    <glyph glyph-name="periodcentered.ss05" horiz-adv-x="227" 
d="M114 239l-77 76l77 76l76 -76z" />
    <glyph glyph-name="bullet.ss05" horiz-adv-x="352" 
d="M177 242l-140 138l140 139l137 -138z" />
    <glyph glyph-name="uni208D" unicode="&#x208d;" horiz-adv-x="259" 
d="M219 -213c-109 67 -173 167 -173 308c0 140 64 240 173 306l33 -45c-81 -58 -134 -133 -134 -261c0 -130 53 -204 134 -263z" />
    <glyph glyph-name="uni208E" unicode="&#x208e;" horiz-adv-x="259" 
d="M40 -213l-33 45c81 59 134 133 134 263c0 128 -53 203 -134 261l33 45c109 -66 173 -166 173 -306c0 -141 -64 -241 -173 -308z" />
    <glyph glyph-name="parenleft" unicode="(" horiz-adv-x="379" 
d="M337 -185c-178 115 -279 285 -279 516s101 402 279 514l33 -52c-137 -102 -228 -240 -228 -462c0 -223 91 -361 228 -464z" />
    <glyph glyph-name="parenright" unicode=")" horiz-adv-x="379" 
d="M42 -185l-33 52c136 103 228 241 228 464c0 222 -92 360 -228 462l33 52c178 -112 279 -283 279 -514s-101 -401 -279 -516z" />
    <glyph glyph-name="braceleft" unicode="{" horiz-adv-x="344" 
d="M326 -168c-143 5 -219 86 -219 185c0 75 39 146 39 205c0 63 -34 93 -104 109v15c70 17 104 46 104 108c0 59 -39 132 -39 206c0 100 76 180 219 184v-61c-96 -4 -139 -55 -139 -123c0 -66 40 -138 40 -206c0 -58 -33 -90 -80 -116c47 -25 80 -57 80 -116
c0 -68 -40 -139 -40 -205c0 -68 43 -119 139 -124v-61z" />
    <glyph glyph-name="braceright" unicode="}" horiz-adv-x="344" 
d="M18 -168v61c96 5 139 56 139 124c0 66 -39 137 -39 205c0 59 32 91 79 116c-47 26 -79 58 -79 116c0 68 39 140 39 206c0 68 -43 119 -139 123v61c143 -4 219 -84 219 -184c0 -74 -39 -147 -39 -206c0 -62 34 -91 104 -108v-15c-70 -16 -104 -46 -104 -109
c0 -59 39 -130 39 -205c0 -99 -76 -180 -219 -185z" />
    <glyph glyph-name="bracketleft" unicode="[" horiz-adv-x="327" 
d="M105 -169v1014h204v-66h-124v-882h124v-66h-204z" />
    <glyph glyph-name="bracketright" unicode="]" horiz-adv-x="327" 
d="M18 -169v66h124v882h-124v66h204v-1014h-204z" />
    <glyph glyph-name="uni207D" unicode="&#x207d;" horiz-adv-x="259" 
d="M219 417c-109 67 -173 167 -173 308c0 140 64 240 173 306l33 -45c-81 -58 -134 -133 -134 -261c0 -130 53 -204 134 -263z" />
    <glyph glyph-name="uni207E" unicode="&#x207e;" horiz-adv-x="259" 
d="M40 417l-33 45c81 59 134 133 134 263c0 128 -53 203 -134 261l33 45c109 -66 173 -166 173 -306c0 -141 -64 -241 -173 -308z" />
    <glyph glyph-name="hyphen" unicode="-" horiz-adv-x="363" 
d="M54 331h255v-71h-255v71z" />
    <glyph glyph-name="uni00AD" unicode="&#xad;" horiz-adv-x="363" 
d="M54 331h255v-71h-255v71z" />
    <glyph glyph-name="endash" unicode="&#x2013;" horiz-adv-x="422" 
d="M20 331h382v-71h-382v71z" />
    <glyph glyph-name="emdash" unicode="&#x2014;" horiz-adv-x="766" 
d="M0 331h766v-71h-766v71z" />
    <glyph glyph-name="uni2011" unicode="&#x2011;" horiz-adv-x="363" 
d="M54 331h255v-71h-255v71z" />
    <glyph glyph-name="underscore" unicode="_" horiz-adv-x="422" 
d="M20 -103v71h382v-71h-382z" />
    <glyph glyph-name="quotesinglbase" unicode="&#x201a;" horiz-adv-x="222" 
d="M77 -156l-30 34c41 34 70 74 72 115v3c-4 -1 -7 -1 -13 -1c-28 0 -49 22 -49 50c0 32 23 55 56 55c39 0 61 -32 61 -80c0 -66 -36 -129 -97 -176z" />
    <glyph glyph-name="quotedblbase" unicode="&#x201e;" horiz-adv-x="395" 
d="M77 -156l-30 34c41 34 70 74 72 115v3c-4 -1 -7 -1 -13 -1c-28 0 -49 22 -49 50c0 32 23 55 56 55c39 0 61 -32 61 -80c0 -66 -36 -129 -97 -176zM250 -156l-30 34c41 34 69 74 72 115v3c-4 -1 -8 -1 -13 -1c-28 0 -49 22 -49 50c0 32 23 55 55 55c40 0 62 -32 62 -80
c0 -66 -36 -129 -97 -176z" />
    <glyph glyph-name="quotedblleft" unicode="&#x201c;" horiz-adv-x="395" 
d="M110 495c-39 0 -62 32 -62 80c0 66 36 129 97 176l30 -34c-41 -33 -69 -74 -72 -115v-3c4 1 8 2 14 2c27 0 48 -23 48 -51c0 -32 -23 -55 -55 -55zM283 495c-40 0 -62 32 -62 80c0 66 36 129 97 176l30 -34c-41 -33 -69 -74 -72 -115v-3c4 1 8 2 13 2c28 0 49 -23 49 -51
c0 -32 -23 -55 -55 -55z" />
    <glyph glyph-name="quotedblright" unicode="&#x201d;" horiz-adv-x="395" 
d="M77 495l-30 34c41 34 70 74 72 115v3c-4 -1 -7 -1 -13 -1c-28 0 -49 22 -49 50c0 32 23 55 56 55c39 0 61 -32 61 -80c0 -66 -36 -129 -97 -176zM250 495l-30 34c41 34 70 74 72 115v3c-4 -1 -8 -1 -13 -1c-28 0 -49 22 -49 50c0 32 23 55 55 55c40 0 62 -32 62 -80
c0 -66 -36 -129 -97 -176z" />
    <glyph glyph-name="quoteleft" unicode="&#x2018;" horiz-adv-x="222" 
d="M110 495c-39 0 -62 32 -62 80c0 66 36 129 97 176l30 -34c-41 -33 -69 -74 -72 -115v-3c4 1 8 2 14 2c27 0 48 -23 48 -51c0 -32 -23 -55 -55 -55z" />
    <glyph glyph-name="quoteright" unicode="&#x2019;" horiz-adv-x="222" 
d="M77 495l-30 34c41 34 70 74 72 115v3c-4 -1 -7 -1 -13 -1c-28 0 -49 22 -49 50c0 32 23 55 56 55c39 0 61 -32 61 -80c0 -66 -36 -129 -97 -176z" />
    <glyph glyph-name="guillemotleft" unicode="&#xab;" horiz-adv-x="525" 
d="M206 54l-184 217l184 216h74l-164 -216l164 -217h-74zM427 54l-184 217l184 216h74l-164 -216l164 -217h-74z" />
    <glyph glyph-name="guillemotright" unicode="&#xbb;" horiz-adv-x="525" 
d="M24 54l164 217l-164 216h74l184 -216l-184 -217h-74zM245 54l164 217l-164 216h74l184 -216l-184 -217h-74z" />
    <glyph glyph-name="guilsinglleft" unicode="&#x2039;" horiz-adv-x="304" 
d="M280 487l-164 -216l164 -217h-74l-184 217l184 216h74z" />
    <glyph glyph-name="guilsinglright" unicode="&#x203a;" horiz-adv-x="304" 
d="M24 54l164 217l-164 216h74l184 -216l-184 -217h-74z" />
    <glyph glyph-name="quotedbl" unicode="&#x22;" horiz-adv-x="373" 
d="M98 492l-32 247h92l-33 -247h-27zM247 492l-32 247h92l-33 -247h-27z" />
    <glyph glyph-name="quotesingle" unicode="'" horiz-adv-x="224" 
d="M98 492l-32 247h92l-33 -247h-27z" />
    <glyph glyph-name="quotesinglbase.ss05" horiz-adv-x="222" 
d="M57 -114v210h112l-99 -210h-13z" />
    <glyph glyph-name="quotedblbase.ss05" horiz-adv-x="394" 
d="M57 -114v210h112l-99 -210h-13zM229 -114v210h112l-99 -210h-13z" />
    <glyph glyph-name="quotedblleft.ss05" horiz-adv-x="394" 
d="M52 541l100 210h13v-210h-113zM225 541l99 210h13v-210h-112z" />
    <glyph glyph-name="quotedblright.ss05" horiz-adv-x="394" 
d="M57 529v210h112l-99 -210h-13zM229 529v210h112l-99 -210h-13z" />
    <glyph glyph-name="quoteleft.ss05" horiz-adv-x="222" 
d="M52 538l100 210h13v-210h-113z" />
    <glyph glyph-name="quoteright.ss05" horiz-adv-x="222" 
d="M57 529v210h112l-99 -210h-13z" />
    <glyph glyph-name="uni00A0" unicode="&#xa0;" horiz-adv-x="220" 
 />
    <glyph glyph-name="space.frac" horiz-adv-x="600" 
 />
    <glyph glyph-name=".null" horiz-adv-x="600" 
 />
    <glyph glyph-name="uniFEFF" unicode="&#xfeff;" horiz-adv-x="0" 
 />
    <glyph glyph-name="cent" unicode="&#xa2;" horiz-adv-x="547" 
d="M508 185c-48 -50 -102 -76 -172 -81v-104h-67v106c-122 18 -211 115 -211 266c0 135 87 239 211 261v106h67v-101c71 -4 124 -30 169 -74l-45 -58c-34 35 -74 55 -124 59v-388c48 4 87 23 126 62zM139 371c0 -105 57 -170 130 -189v376c-77 -23 -130 -94 -130 -187z" />
    <glyph glyph-name="currency" unicode="&#xa4;" horiz-adv-x="689" 
d="M588 389c0 -57 -15 -107 -42 -147l87 -88l-54 -54l-87 88c-40 -28 -90 -43 -147 -43c-58 0 -108 15 -147 43l-88 -88l-54 54l87 88c-27 40 -42 90 -42 147c0 58 15 108 42 147l-87 88l54 55l87 -88c40 27 90 42 148 42c57 0 107 -15 147 -43l87 89l54 -55l-87 -88
c27 -39 42 -89 42 -147zM178 389c0 -100 66 -166 167 -166c100 0 166 66 166 166s-66 167 -166 167c-101 0 -167 -67 -167 -167z" />
    <glyph glyph-name="dollar" unicode="$" horiz-adv-x="609" 
d="M557 206c0 -123 -88 -205 -223 -216v-117h-66v117c-102 9 -177 55 -229 106l52 64c51 -50 111 -82 177 -91v271c-104 27 -209 62 -209 201c0 109 84 190 209 206v113h66v-111c92 -4 165 -41 213 -90l-49 -62c-40 44 -95 71 -164 75v-263c108 -28 223 -61 223 -203z
M145 543c0 -69 54 -97 123 -117v243c-76 -14 -123 -62 -123 -126zM334 69c86 9 137 59 137 131c0 76 -62 103 -137 124v-255z" />
    <glyph glyph-name="Euro" unicode="&#x20ac;" horiz-adv-x="737" 
d="M641 172l57 -53c-47 -71 -131 -130 -255 -130c-161 0 -277 100 -311 269h-90v68h81c-1 14 -2 29 -2 44c0 20 1 39 3 57h-82v69h94c41 158 160 253 315 253c115 0 192 -47 244 -116l-56 -53c-42 57 -100 91 -186 91c-112 0 -194 -64 -229 -175h239v-69h-253
c-2 -18 -3 -37 -3 -57c0 -15 1 -30 2 -44h254v-68h-243c31 -122 114 -190 227 -190c90 0 153 44 194 104z" />
    <glyph glyph-name="florin" unicode="&#x192;" horiz-adv-x="442" 
d="M390 675c-94 0 -129 -41 -129 -136v-140h134v-73h-134v-321c0 -143 -63 -213 -206 -213h-13v76h13c89 0 123 41 123 136v322h-132v73h132v138c0 142 60 213 206 213h16v-75h-10z" />
    <glyph glyph-name="uni20BA" unicode="&#x20ba;" horiz-adv-x="587" 
d="M492 233h87c0 -154 -100 -233 -282 -233h-171v224l-84 -36v72l84 37v106l-84 -37v73l84 37v263h83v-227l204 89v-73l-204 -89v-106l204 89v-73l-204 -89v-181h89c129 0 194 48 194 154z" />
    <glyph glyph-name="uni20BC" unicode="&#x20bc;" horiz-adv-x="868" 
d="M475 580c162 -17 304 -134 304 -369v-211h-84v213c0 181 -97 269 -220 284v-497h-81v498c-125 -15 -221 -103 -221 -285v-213h-84v211c0 237 140 353 305 369v159h81v-159z" />
    <glyph glyph-name="uni20B9" unicode="&#x20b9;" horiz-adv-x="610" 
d="M563 739v-68h-188c40 -25 66 -59 77 -102h111v-68h-107c-9 -108 -82 -162 -208 -181l231 -320h-102l-247 358l4 13c159 6 222 44 235 130h-322v68h321c-14 59 -64 96 -145 102h-176v68h516z" />
    <glyph glyph-name="sterling" unicode="&#xa3;" horiz-adv-x="604" 
d="M239 226c0 -61 -12 -104 -49 -147h367v-79h-505v14c79 78 102 127 102 203c0 39 -8 71 -18 103h-92v70h68c-11 36 -20 74 -20 123c0 139 101 239 254 239c113 0 179 -53 219 -112l-61 -55c-32 52 -82 87 -156 87c-103 0 -170 -70 -170 -164c0 -46 10 -83 22 -118h253v-70
h-229c9 -28 15 -58 15 -94z" />
    <glyph glyph-name="yen" unicode="&#xa5;" horiz-adv-x="635" 
d="M625 739l-251 -370h184v-69h-196v-101h196v-68h-196v-131h-84v131h-201v68h201v101h-201v69h188l-255 370h101l210 -317l205 317h99z" />
    <glyph glyph-name="uni2219" unicode="&#x2219;" horiz-adv-x="545" 
d="M272 279c-41 0 -72 28 -72 70c0 40 31 70 72 70c42 0 73 -30 73 -70c0 -42 -31 -70 -73 -70z" />
    <glyph glyph-name="uni2215" unicode="&#x2215;" horiz-adv-x="608" 
d="M25 0l473 739h85l-472 -739h-86z" />
    <glyph glyph-name="uni208C" unicode="&#x208c;" horiz-adv-x="376" 
d="M32 123v63h312v-63h-312zM32 -28v63h312v-63h-312z" />
    <glyph glyph-name="uni207C" unicode="&#x207c;" horiz-adv-x="376" 
d="M32 753v63h312v-63h-312zM32 602v63h312v-63h-312z" />
    <glyph glyph-name="uni208B" unicode="&#x208b;" horiz-adv-x="356" 
d="M24 47v64h308v-64h-308z" />
    <glyph glyph-name="uni207B" unicode="&#x207b;" horiz-adv-x="356" 
d="M24 677v64h308v-64h-308z" />
    <glyph glyph-name="plus" unicode="+" horiz-adv-x="600" 
d="M570 346v-76h-232v-232h-76v232h-232v76h232v232h76v-232h232z" />
    <glyph glyph-name="minus" unicode="&#x2212;" horiz-adv-x="576" 
d="M30 270v76h516v-76h-516z" />
    <glyph glyph-name="multiply" unicode="&#xd7;" horiz-adv-x="524" 
d="M484 477l-169 -169l169 -169l-53 -52l-169 168l-169 -169l-53 53l169 169l-169 168l52 54l170 -169l169 169z" />
    <glyph glyph-name="divide" unicode="&#xf7;" horiz-adv-x="576" 
d="M287 465c-32 0 -56 22 -56 53s24 54 56 54c33 0 57 -23 57 -54s-24 -53 -57 -53zM30 270v76h516v-76h-516zM287 45c-32 0 -56 22 -56 53c0 32 24 54 56 54c33 0 57 -22 57 -54c0 -31 -24 -53 -57 -53z" />
    <glyph glyph-name="equal" unicode="=" horiz-adv-x="600" 
d="M40 399v74h520v-74h-520zM40 143v75h520v-75h-520z" />
    <glyph glyph-name="notequal" unicode="&#x2260;" horiz-adv-x="620" 
d="M580 399h-176l-107 -181h283v-75h-328l-57 -96l-81 -1l58 97h-132v75h176l108 181h-284v74h327l58 97h81l-58 -97h132v-74z" />
    <glyph glyph-name="greater" unicode="&#x3e;" horiz-adv-x="577" 
d="M40 533l507 -219v-12l-507 -219v79l348 146l-348 147v78z" />
    <glyph glyph-name="less" unicode="&#x3c;" horiz-adv-x="577" 
d="M537 533v-78l-349 -147l349 -146v-79l-507 219v12z" />
    <glyph glyph-name="greaterequal" unicode="&#x2265;" horiz-adv-x="616" 
d="M561 363v-11l-511 -206v73l353 139l-353 140v73zM50 71h516v-71h-516v71z" />
    <glyph glyph-name="lessequal" unicode="&#x2264;" horiz-adv-x="616" 
d="M566 571v-73l-354 -140l354 -139v-73l-511 206v11zM50 0v71h516v-71h-516z" />
    <glyph glyph-name="plusminus" unicode="&#xb1;" horiz-adv-x="611" 
d="M342 417h219v-70h-219v-194h-74v194h-218v70h218v195h74v-195zM50 0v71h511v-71h-511z" />
    <glyph glyph-name="approxequal" unicode="&#x2248;" horiz-adv-x="580" 
d="M393 337c-87 0 -137 110 -206 110c-44 0 -68 -42 -68 -99h-69c0 107 53 179 137 179c89 0 137 -112 206 -112c43 0 65 42 65 101h72c0 -108 -53 -179 -137 -179zM393 97c-87 0 -137 110 -206 110c-44 0 -68 -41 -68 -100h-69c0 108 53 178 137 178
c89 0 137 -108 206 -108c43 0 65 39 65 98h72c0 -107 -53 -178 -137 -178z" />
    <glyph glyph-name="asciitilde" unicode="~" horiz-adv-x="663" 
d="M455 265c-110 0 -171 176 -251 176c-50 0 -82 -64 -83 -170h-71c0 155 65 252 160 252c109 0 170 -179 250 -179c49 0 82 66 83 173h70c0 -156 -62 -252 -158 -252z" />
    <glyph glyph-name="logicalnot" unicode="&#xac;" horiz-adv-x="620" 
d="M570 467v-347h-75v271h-465v76h540z" />
    <glyph glyph-name="asciicircum" unicode="^" horiz-adv-x="500" 
d="M480 303h-85l-146 292l-145 -292h-84l226 436h7z" />
    <glyph glyph-name="infinity" unicode="&#x221e;" horiz-adv-x="775" 
d="M566 481c97 0 159 -67 159 -170c0 -104 -62 -173 -159 -173c-79 0 -133 54 -179 113c-47 -59 -100 -113 -178 -113c-98 0 -159 68 -159 173c0 103 61 170 159 170c73 0 129 -55 179 -115c49 60 105 115 178 115zM216 214c45 0 85 44 127 96c-39 52 -77 95 -127 95
c-53 0 -88 -37 -88 -94c0 -58 35 -97 88 -97zM560 214c51 0 87 39 87 97c0 56 -36 94 -87 94s-89 -43 -128 -94c42 -53 82 -97 128 -97z" />
    <glyph glyph-name="integral" unicode="&#x222b;" horiz-adv-x="448" 
d="M45 -208v76h14c88 0 121 42 121 136v533c0 142 62 213 207 213h16v-75h-11c-94 0 -129 -41 -129 -136v-534c0 -142 -61 -212 -201 -213h-17z" />
    <glyph glyph-name="uni2126" unicode="&#x2126;" horiz-adv-x="807" 
d="M565 79h184v-79h-291v67c120 96 193 209 193 345c0 153 -99 255 -247 255c-150 0 -247 -102 -247 -255c0 -136 72 -249 192 -345v-67h-291v79h184c-113 93 -172 209 -172 337c0 204 145 332 334 332s333 -128 333 -332c0 -128 -59 -244 -172 -337z" />
    <glyph glyph-name="uni2206" unicode="&#x2206;" horiz-adv-x="664" 
d="M338 745l318 -745h-648l317 745h13zM127 75h408l-204 508z" />
    <glyph glyph-name="product" unicode="&#x220f;" horiz-adv-x="757" 
d="M716 739v-78h-129v-867h-83v867h-251v-867h-84v867h-127v78h674z" />
    <glyph glyph-name="summation" unicode="&#x2211;" horiz-adv-x="525" 
d="M42 -206v13l226 465l-225 454v13h440v-77h-315l193 -390l-194 -400h315v-78h-440z" />
    <glyph glyph-name="radical" unicode="&#x221a;" horiz-adv-x="760" 
d="M770 739v-75h-126l-333 -870h-13l-290 721h92l206 -541l277 765h187z" />
    <glyph glyph-name="uni00B5" unicode="&#xb5;" horiz-adv-x="636" 
d="M470 515h77v-515h-71l-4 100c-30 -75 -92 -111 -161 -111c-60 0 -114 27 -146 83v-278h-76v721h78v-273c0 -123 68 -181 150 -181s153 56 153 184v270z" />
    <glyph glyph-name="partialdiff" unicode="&#x2202;" horiz-adv-x="626" 
d="M289 748c184 0 264 -122 264 -375c0 -242 -106 -386 -278 -386c-136 0 -226 93 -226 226c0 164 106 290 263 290c82 0 138 -33 165 -82c-6 189 -68 262 -195 262c-59 0 -109 -18 -155 -50l-30 56c56 40 124 59 192 59zM285 53c116 0 183 111 183 234
c0 93 -61 151 -148 151c-119 0 -194 -98 -194 -218c0 -99 61 -167 159 -167z" />
    <glyph glyph-name="percent" unicode="%" horiz-adv-x="1050" 
d="M246 368c-107 0 -197 78 -197 191c0 115 90 193 197 193c105 0 195 -78 195 -193c0 -113 -90 -191 -195 -191zM247 0l472 739h85l-473 -739h-84zM246 435c65 0 122 52 122 124c0 74 -57 125 -122 125c-67 0 -123 -51 -123 -125c0 -72 56 -124 123 -124zM805 -12
c-106 0 -196 78 -196 192s90 191 196 191s196 -77 196 -191s-90 -192 -196 -192zM805 55c66 0 123 52 123 125c0 72 -57 124 -123 124s-122 -52 -122 -124c0 -73 56 -125 122 -125z" />
    <glyph glyph-name="perthousand" unicode="&#x2030;" horiz-adv-x="1475" 
d="M242 368c-105 0 -193 78 -193 191c0 115 88 193 193 193c103 0 191 -78 191 -193c0 -113 -88 -191 -191 -191zM240 0l465 739h88l-465 -739h-88zM242 435c63 0 118 52 118 124c0 74 -55 125 -118 125c-65 0 -119 -51 -119 -125c0 -72 54 -124 119 -124zM792 -12
c-105 0 -192 78 -192 192s87 191 192 191c104 0 192 -77 192 -191s-88 -192 -192 -192zM1234 -12c-105 0 -192 78 -192 192s87 191 192 191c103 0 192 -77 192 -191s-89 -192 -192 -192zM792 55c64 0 118 52 118 125c0 72 -54 124 -118 124s-119 -52 -119 -124
c0 -73 55 -125 119 -125zM1234 55c64 0 118 52 118 125c0 72 -54 124 -118 124s-119 -52 -119 -124c0 -73 55 -125 119 -125z" />
    <glyph glyph-name="uni208A" unicode="&#x208a;" horiz-adv-x="372" 
d="M348 111v-64h-130v-130h-64v130h-130v64h130v130h64v-130h130z" />
    <glyph glyph-name="uni207A" unicode="&#x207a;" horiz-adv-x="372" 
d="M348 741v-64h-130v-130h-64v130h-130v64h130v130h64v-130h130z" />
    <glyph glyph-name="divide.ss05" horiz-adv-x="576" 
d="M288 449l-69 68l69 70l69 -69zM30 270v76h516v-76h-516zM288 29l-69 69l69 70l69 -70z" />
    <glyph glyph-name="arrowup" unicode="&#x2191;" horiz-adv-x="903" 
d="M803 397l-53 -54l-261 260v-603h-75v604l-261 -261l-53 54l351 351z" />
    <glyph glyph-name="uni2197" unicode="&#x2197;" horiz-adv-x="756" 
d="M153 92l-53 53l427 427h-369v76h497l1 -498h-76v368z" />
    <glyph glyph-name="arrowright" unicode="&#x2192;" horiz-adv-x="948" 
d="M497 721l351 -351l-351 -352l-54 53l260 261h-603v75h604l-261 261z" />
    <glyph glyph-name="uni2198" unicode="&#x2198;" horiz-adv-x="756" 
d="M580 589h76v-497h-497v75l368 1l-427 426l53 53l427 -426v368z" />
    <glyph glyph-name="arrowdown" unicode="&#x2193;" horiz-adv-x="903" 
d="M750 396l53 -54l-351 -351l-352 351l53 54l261 -260v603h75v-604z" />
    <glyph glyph-name="uni2199" unicode="&#x2199;" horiz-adv-x="756" 
d="M656 595l-428 -427h370v-76h-497l-1 498h76v-369l427 427z" />
    <glyph glyph-name="arrowleft" unicode="&#x2190;" horiz-adv-x="948" 
d="M848 408v-75h-604l261 -261l-54 -53l-351 351l351 352l54 -53l-260 -261h603z" />
    <glyph glyph-name="uni2196" unicode="&#x2196;" horiz-adv-x="756" 
d="M656 145l-53 -53l-427 427v-368h-76v496l497 1v-76h-368z" />
    <glyph glyph-name="uni25CF" unicode="&#x25cf;" 
d="M535 -104c-262 0 -475 190 -475 473c0 284 213 474 475 474s475 -191 475 -474s-213 -473 -475 -473z" />
    <glyph glyph-name="circle" unicode="&#x25cb;" 
d="M535 -104c-262 0 -475 190 -475 473c0 284 213 474 475 474s475 -191 475 -474s-213 -473 -475 -473zM535 -33c220 0 402 158 402 402s-182 402 -402 402s-402 -158 -402 -402s182 -402 402 -402z" />
    <glyph glyph-name="lozenge" unicode="&#x25ca;" horiz-adv-x="544" 
d="M281 745l255 -375l-256 -378h-15l-257 377l257 376h16zM271 636l-176 -267l179 -267l176 268z" />
    <glyph glyph-name="at" unicode="@" horiz-adv-x="952" 
d="M491 346c29 0 61 -3 95 -7v26c0 66 -37 103 -104 103c-56 0 -98 -23 -132 -56l-38 52c45 40 105 66 174 66c110 0 174 -64 174 -165v-141c0 -47 12 -77 60 -77c70 0 112 74 112 191c0 212 -133 346 -347 346c-209 0 -366 -151 -366 -375c0 -225 148 -381 367 -381
c88 0 163 25 221 71l34 -47c-68 -52 -156 -82 -255 -82c-252 0 -428 183 -428 439c0 254 181 435 427 435c247 0 409 -164 409 -406c0 -137 -71 -250 -187 -250c-64 0 -99 31 -113 72c-35 -49 -95 -72 -152 -72c-93 0 -146 52 -146 127c0 92 77 131 195 131zM453 147
c68 0 133 41 133 118v20c-33 4 -62 7 -88 7c-81 0 -129 -22 -129 -76c0 -37 26 -69 84 -69z" />
    <glyph glyph-name="ampersand" unicode="&#x26;" horiz-adv-x="735" 
d="M696 49l-52 -54l-88 85c-60 -57 -143 -88 -243 -88c-162 0 -255 71 -255 188c0 103 67 165 179 209c-69 72 -92 124 -92 185c0 91 68 177 199 177c123 0 195 -78 195 -171c0 -105 -64 -157 -182 -205l189 -182c27 50 41 113 38 186h80c0 -96 -21 -178 -61 -240zM342 681
c-72 0 -118 -47 -118 -110c0 -44 17 -83 89 -153c94 43 151 81 151 156c0 59 -43 107 -122 107zM318 63c75 0 138 25 183 70l-218 211c-84 -37 -140 -83 -140 -161c0 -73 60 -120 175 -120z" />
    <glyph glyph-name="paragraph" unicode="&#xb6;" horiz-adv-x="639" 
d="M305 311c-158 0 -253 76 -253 213c0 143 96 215 266 215h38l2 -428h-53zM451 0v739h82v-739h-82z" />
    <glyph glyph-name="section" unicode="&#xa7;" horiz-adv-x="504" 
d="M377 366c0 135 -312 39 -312 234c0 91 82 148 194 148c84 0 146 -29 188 -78l-42 -47c-34 40 -83 65 -144 65c-74 0 -122 -32 -122 -84c0 -130 312 -40 312 -238h-74zM255 -9c-101 0 -171 40 -216 89l43 50c50 -53 105 -78 172 -78c65 0 116 30 116 89
c0 136 -311 40 -311 238h75c0 -129 310 -38 310 -235c0 -96 -83 -153 -189 -153z" />
    <glyph glyph-name="copyright" unicode="&#xa9;" horiz-adv-x="864" 
d="M433 -12c-214 0 -375 165 -375 382s161 382 375 382c212 0 373 -165 373 -382s-161 -382 -373 -382zM433 44c180 0 314 139 314 326s-134 325 -314 325c-182 0 -316 -138 -316 -325s134 -326 316 -326zM432 141c-121 0 -212 97 -212 228c0 135 92 229 218 229
c72 0 133 -32 166 -79l-49 -42c-27 36 -67 56 -117 56c-87 0 -148 -67 -148 -164c0 -93 62 -163 144 -163c58 0 96 28 123 66l47 -45c-40 -56 -101 -86 -172 -86z" />
    <glyph glyph-name="registered" unicode="&#xae;" horiz-adv-x="479" 
d="M240 739c118 0 205 -86 205 -206c0 -118 -87 -205 -205 -205c-120 0 -207 87 -207 205c0 120 87 206 207 206zM240 379c90 0 153 64 153 154c0 91 -63 155 -153 155c-92 0 -155 -64 -155 -155c0 -90 63 -154 155 -154zM318 571c0 -27 -16 -47 -43 -56l63 -79h-57l-57 74
h-13v-74h-45v195h76c46 0 76 -23 76 -60zM242 590h-31v-38h27c25 0 34 6 34 19s-8 19 -30 19z" />
    <glyph glyph-name="uni2117" unicode="&#x2117;" horiz-adv-x="864" 
d="M433 752c212 0 373 -165 373 -382s-161 -382 -373 -382c-214 0 -375 165 -375 382s161 382 375 382zM433 44c180 0 314 139 314 326s-134 325 -314 325c-182 0 -316 -138 -316 -325s134 -326 316 -326zM453 593c103 0 166 -52 166 -139c0 -90 -62 -139 -174 -139h-68
v-169h-68v447h144zM445 378c71 0 104 24 104 76c0 50 -32 76 -96 76h-76v-152h68z" />
    <glyph glyph-name="trademark" unicode="&#x2122;" horiz-adv-x="919" 
d="M54 673v66h327v-66h-127v-341h-71v341h-129zM865 332h-70l-36 235l-114 -236h-10l-114 236l-36 -235h-71l72 407h10l144 -294l144 294h10z" />
    <glyph glyph-name="degree" unicode="&#xb0;" horiz-adv-x="485" 
d="M246 369c-116 0 -197 82 -197 192c0 113 77 190 192 190c114 0 195 -81 195 -192c0 -108 -82 -190 -190 -190zM246 438c68 0 117 53 117 121c0 72 -49 124 -122 124c-72 0 -118 -49 -118 -122c0 -71 49 -123 123 -123z" />
    <glyph glyph-name="bar" unicode="|" horiz-adv-x="391" 
d="M158 851h75v-1057h-75v1057z" />
    <glyph glyph-name="brokenbar" unicode="&#xa6;" horiz-adv-x="391" 
d="M158 851h75v-396h-75v396zM158 190h75v-396h-75v396z" />
    <glyph glyph-name="dagger" unicode="&#x2020;" horiz-adv-x="752" 
d="M368 499l-50 240h115l-51 -240h-14zM80 387v115l240 -51v-14zM672 387l-241 50v14l241 51v-115zM334 -206v433l34 161h14l35 -161v-433h-83z" />
    <glyph glyph-name="uni2113" unicode="&#x2113;" horiz-adv-x="522" 
d="M459 664c0 -237 -114 -355 -263 -398v-60c0 -109 35 -145 111 -145c50 0 91 14 145 50v-75c-51 -31 -102 -46 -158 -46c-128 0 -184 69 -184 218v42c-22 -3 -45 -4 -68 -4v61c23 0 46 2 68 5v406c0 134 66 210 171 210c104 0 178 -78 178 -239v-25zM196 727v-394
c106 39 189 133 189 331v25c0 127 -44 173 -99 173s-90 -45 -90 -135z" />
    <glyph glyph-name="daggerdbl" unicode="&#x2021;" horiz-adv-x="752" 
d="M369 499l-50 240h114l-51 -240h-13zM80 387v115l240 -51v-14zM672 387l-241 50v14l241 51v-115zM369 146l-39 121l39 121h13l40 -121l-40 -121h-13zM80 32v115l240 -50v-15zM672 32l-241 50v15l241 50v-115zM319 -206l50 240h13l51 -240h-114z" />
    <glyph glyph-name="estimated" unicode="&#x212e;" horiz-adv-x="902" 
d="M451 -12c-133 0 -226 33 -303 106c-76 73 -115 164 -115 275c0 112 40 202 117 276c77 72 167 107 301 107c123 0 209 -30 289 -95c80 -64 123 -171 128 -299h-664c-9 0 -17 0 -17 -19v-187c0 -39 106 -134 264 -134c105 0 205 52 265 121h78c-53 -58 -101 -97 -157 -120
c-59 -22 -100 -31 -186 -31zM204 383h491c16 0 18 4 18 17v184c0 60 -144 141 -264 141c-149 0 -262 -101 -262 -134v-200c0 -5 4 -8 17 -8z" />
    <glyph glyph-name="uni2116" unicode="&#x2116;" horiz-adv-x="1267" 
d="M105 0v750h21l473 -568v557h84v-750h-21l-473 568v-557h-84zM1028 364c-106 0 -199 73 -199 191c0 119 93 191 199 191c105 0 197 -72 197 -191c0 -117 -90 -191 -197 -191zM1028 424c68 0 129 50 129 131c0 82 -58 131 -129 131c-70 0 -130 -49 -130 -131
c0 -81 60 -131 130 -131zM859 186v62h336v-62h-336zM859 0v62h336v-62h-336z" />
    <glyph glyph-name="ampersand.ss08" horiz-adv-x="715" 
d="M723 46l-58 -50l-99 125c-56 -84 -142 -133 -254 -133c-154 0 -259 104 -259 252c0 119 69 217 199 277l-165 208v14h532v-74h-389zM316 63c91 0 162 46 203 117l-220 277c-111 -48 -162 -127 -162 -217c0 -100 72 -177 179 -177z" />
    <glyph glyph-name="uni02BC" unicode="&#x2bc;" horiz-adv-x="222" 
d="M77 495l-30 34c41 34 70 74 72 115v3c-4 -1 -7 -1 -13 -1c-28 0 -49 22 -49 50c0 32 23 55 56 55c39 0 61 -32 61 -80c0 -66 -36 -129 -97 -176z" />
    <glyph glyph-name="uni02C9" unicode="&#x2c9;" horiz-adv-x="361" 
d="M50 619v67h261v-67h-261z" />
    <glyph glyph-name="uni0308" unicode="&#x308;" horiz-adv-x="0" 
d="M-293 600c-30 0 -52 22 -52 52c0 29 22 53 52 53c31 0 52 -24 52 -53c0 -30 -21 -52 -52 -52zM-102 600c-30 0 -52 22 -52 52c0 29 22 53 52 53c31 0 52 -24 52 -53c0 -30 -21 -52 -52 -52z" />
    <glyph glyph-name="uni0307" unicode="&#x307;" horiz-adv-x="0" 
d="M-110 596c-32 0 -57 25 -57 56c0 32 25 55 57 55c34 0 60 -24 60 -55s-26 -56 -60 -56z" />
    <glyph glyph-name="gravecomb" unicode="&#x300;" horiz-adv-x="0" 
d="M-117 586l-83 136l77 37l73 -173h-67z" />
    <glyph glyph-name="acutecomb" unicode="&#x301;" horiz-adv-x="0" 
d="M-200 586l73 173l77 -37l-83 -136h-67z" />
    <glyph glyph-name="uni030B" unicode="&#x30b;" horiz-adv-x="0" 
d="M-339 586l72 174l66 -31l-70 -143h-68zM-194 586l78 168l66 -31l-76 -137h-68z" />
    <glyph glyph-name="caroncomb.alt" horiz-adv-x="0" 
d="M-134 582l10 157h74l-25 -157h-59z" />
    <glyph glyph-name="uni0302" unicode="&#x302;" horiz-adv-x="0" 
d="M-50 586h-68l-72 101l-71 -101h-68l92 153h93z" />
    <glyph glyph-name="uni030C" unicode="&#x30c;" horiz-adv-x="0" 
d="M-118 740h68l-92 -153h-93l-94 153h68l72 -100z" />
    <glyph glyph-name="uni0306" unicode="&#x306;" horiz-adv-x="0" 
d="M-187 591c-84 0 -131 52 -137 148h64c5 -56 29 -85 73 -85c45 0 67 29 73 85h64c-6 -96 -54 -148 -137 -148z" />
    <glyph glyph-name="uni030A" unicode="&#x30a;" horiz-adv-x="0" 
d="M-175 568c-73 0 -126 51 -126 119s54 120 126 120c71 0 125 -52 125 -120c0 -69 -55 -119 -125 -119zM-175 619c39 0 67 27 67 68c0 40 -28 68 -67 68c-40 0 -68 -28 -68 -68c0 -41 28 -68 68 -68z" />
    <glyph glyph-name="tildecomb" unicode="&#x303;" horiz-adv-x="0" 
d="M-354 620c16 67 47 96 87 96c59 0 83 -47 121 -47c22 0 31 11 43 47l53 -15c-17 -67 -47 -97 -87 -97c-60 0 -83 47 -122 47c-20 0 -30 -11 -41 -45z" />
    <glyph glyph-name="uni0304" unicode="&#x304;" horiz-adv-x="0" 
d="M-311 619v67h261v-67h-261z" />
    <glyph glyph-name="uni0312" unicode="&#x312;" horiz-adv-x="0" 
d="M-106 592c-45 0 -67 38 -67 75c0 51 30 104 115 100v-31c-39 1 -58 -20 -60 -45c-2 -6 -1 -12 -1 -17c7 9 19 14 35 12c20 -3 34 -19 34 -41c0 -28 -18 -53 -56 -53z" />
    <glyph glyph-name="uni0313" unicode="&#x313;" horiz-adv-x="0" 
d="M-166 592v32c39 -1 59 20 61 45c1 6 1 11 0 17c-6 -9 -18 -15 -34 -12c-20 3 -34 19 -34 41c0 28 18 52 56 52c44 0 67 -37 67 -74c0 -52 -31 -104 -116 -101z" />
    <glyph glyph-name="uni0326" unicode="&#x326;" horiz-adv-x="0" 
d="M-166 -232v31c39 0 59 21 61 45c1 6 1 12 0 17c-6 -9 -18 -14 -34 -11c-20 2 -34 18 -34 40c0 28 18 53 56 53c44 0 67 -38 67 -74c0 -52 -31 -104 -116 -101z" />
    <glyph glyph-name="uni0327" unicode="&#x327;" horiz-adv-x="0" 
d="M-180 -206l43 143h87l-65 -143h-65z" />
    <glyph glyph-name="uni0328" unicode="&#x328;" horiz-adv-x="0" 
d="M-50 -169c-26 -9 -54 -16 -87 -16c-75 0 -113 30 -113 83c0 46 27 82 99 129l36 -24c-57 -36 -70 -60 -70 -85s17 -39 56 -39c32 0 55 7 79 17v-65z" />
    <glyph glyph-name="uni0335" unicode="&#x335;" horiz-adv-x="0" 
d="M-385 280v60h335v-60h-335z" />
    <glyph glyph-name="uni0336" unicode="&#x336;" horiz-adv-x="0" 
d="M-525 276v68h475v-68h-475z" />
    <glyph glyph-name="uni0337" unicode="&#x337;" horiz-adv-x="0" 
d="M-162 406v75l112 84v-77zM-287 322v76l109 83v-76z" />
    <glyph glyph-name="uni0338" unicode="&#x338;" horiz-adv-x="0" 
d="M-461 -8l-44 39l410 494l45 -38z" />
    <glyph glyph-name="acute" unicode="&#xb4;" horiz-adv-x="250" 
d="M50 586l73 173l77 -37l-83 -136h-67z" />
    <glyph glyph-name="breve" unicode="&#x2d8;" horiz-adv-x="374" 
d="M187 591c-84 0 -131 52 -137 148h64c5 -56 29 -85 73 -85c45 0 67 29 73 85h64c-6 -96 -54 -148 -137 -148z" />
    <glyph glyph-name="caron" unicode="&#x2c7;" horiz-adv-x="379" 
d="M261 740h68l-92 -153h-93l-94 153h68l72 -100z" />
    <glyph glyph-name="cedilla" unicode="&#xb8;" horiz-adv-x="230" 
d="M50 -206l43 143h87l-65 -143h-65z" />
    <glyph glyph-name="circumflex" unicode="&#x2c6;" horiz-adv-x="379" 
d="M329 586h-68l-72 101l-71 -101h-68l92 153h93z" />
    <glyph glyph-name="dieresis" unicode="&#xa8;" horiz-adv-x="395" 
d="M102 600c-30 0 -52 22 -52 52c0 29 22 53 52 53c31 0 52 -24 52 -53c0 -30 -21 -52 -52 -52zM293 600c-30 0 -52 22 -52 52c0 29 22 53 52 53c31 0 52 -24 52 -53c0 -30 -21 -52 -52 -52z" />
    <glyph glyph-name="dotaccent" unicode="&#x2d9;" horiz-adv-x="217" 
d="M107 596c-32 0 -57 25 -57 56c0 32 25 55 57 55c34 0 60 -24 60 -55s-26 -56 -60 -56z" />
    <glyph glyph-name="grave" unicode="`" horiz-adv-x="250" 
d="M133 586l-83 136l77 37l73 -173h-67z" />
    <glyph glyph-name="hungarumlaut" unicode="&#x2dd;" horiz-adv-x="389" 
d="M50 586l72 174l66 -31l-70 -143h-68zM195 586l78 168l66 -31l-76 -137h-68z" />
    <glyph glyph-name="macron" unicode="&#xaf;" horiz-adv-x="361" 
d="M50 619v67h261v-67h-261z" />
    <glyph glyph-name="ogonek" unicode="&#x2db;" horiz-adv-x="300" 
d="M250 -169c-26 -9 -54 -16 -87 -16c-75 0 -113 30 -113 83c0 46 27 82 99 129l36 -24c-57 -36 -70 -60 -70 -85s17 -39 56 -39c32 0 55 7 79 17v-65z" />
    <glyph glyph-name="ring" unicode="&#x2da;" horiz-adv-x="351" 
d="M176 568c-73 0 -126 51 -126 119s54 120 126 120c71 0 125 -52 125 -120c0 -69 -55 -119 -125 -119zM176 619c39 0 67 27 67 68c0 40 -28 68 -67 68c-40 0 -68 -28 -68 -68c0 -41 28 -68 68 -68z" />
    <glyph glyph-name="tilde" unicode="&#x2dc;" horiz-adv-x="404" 
d="M50 620c16 67 47 96 87 96c59 0 83 -47 121 -47c22 0 31 11 43 47l53 -15c-17 -67 -47 -97 -87 -97c-60 0 -83 47 -122 47c-20 0 -30 -11 -41 -45z" />
    <glyph glyph-name="uni0335.case" horiz-adv-x="0" 
d="M-408 276v68h358v-68h-358z" />
    <glyph glyph-name="uni0336.case" horiz-adv-x="0" 
d="M-525 276v68h475v-68h-475z" />
    <glyph glyph-name="uni0337.case" horiz-adv-x="0" 
d="M-282 331v95l232 213v-96z" />
    <glyph glyph-name="uni0338.case" horiz-adv-x="0" 
d="M-625 13l-51 43l575 671l51 -44z" />
    <glyph glyph-name="uni0307.i" horiz-adv-x="0" 
d="M-107 640c-32 0 -56 24 -56 54c0 31 24 53 56 53c33 0 57 -22 57 -53c0 -30 -24 -54 -57 -54z" />
    <glyph glyph-name="uni0307.i.ss05" horiz-adv-x="0" 
d="M-116 624l-67 66l67 67l66 -66z" />
    </font>
</defs>
</svg>
